<svg width="24" height="24" xmlns="http://www.w3.org/2000/svg" fill="none">

 <g>
  <title>Layer 1</title>
  <path id="svg_1" stroke-linejoin="round" stroke-linecap="round" stroke-width="1.5" stroke="#ff7f00" d="m19,6.34267c-1.65,-2.039 -4.1727,-3.34267 -7,-3.34267c-4.97056,0 -9,4.02944 -9,9c0,1.8501 0.55827,3.5699 1.51555,5m16.48445,-5c0,4.9706 -4.0294,9 -9,9c-1.039,0 -2.03692,-0.1761 -2.96548,-0.5m2.96548,-4.5l1,0c0.6667,0 2,-0.4 2,-2c0,-1.6 -1.3333,-2 -2,-2l-2,0c-0.6667,0 -2,-0.4 -2,-2c0,-1.6 1.3333,-2 2,-2l1,0m0,8l-3,0m3,0l0,2m3,-10l-3,0m0,0l0,-2"/>
 </g>
</svg>