<svg width="24" height="24" xmlns="http://www.w3.org/2000/svg" fill="none">

 <g>
  <title>Layer 1</title>
  <path id="svg_1" stroke-linejoin="round" stroke-linecap="round" stroke-width="2" stroke="#fff200" d="m11.245,4.174c0.2315,-0.66592 0.3472,-0.99887 0.5184,-1.09115c0.1481,-0.07987 0.3264,-0.07987 0.4746,0c0.1711,0.09228 0.2868,0.42523 0.5183,1.09115l1.5303,4.40239c0.0659,0.18953 0.0988,0.28429 0.1582,0.35486c0.0524,0.06234 0.1193,0.11093 0.1948,0.14153c0.0854,0.03465 0.1857,0.03669 0.3863,0.04078l4.6598,0.09496c0.7049,0.01436 1.0573,0.02155 1.198,0.1558c0.1217,0.11619 0.1768,0.28582 0.1466,0.45137c-0.0348,0.19131 -0.3157,0.40421 -0.8775,0.83021l-3.7141,2.8157c-0.1599,0.1213 -0.2398,0.1819 -0.2886,0.2601c-0.0431,0.0692 -0.0686,0.1478 -0.0744,0.229c-0.0065,0.092 0.0225,0.188 0.0806,0.3801l1.3497,4.4611c0.2041,0.6748 0.3062,1.0122 0.222,1.1874c-0.0729,0.1517 -0.2172,0.2565 -0.384,0.279c-0.1927,0.0259 -0.482,-0.1754 -1.0607,-0.5781l-3.8257,-2.6621c-0.1647,-0.1146 -0.247,-0.1719 -0.3365,-0.1942c-0.0791,-0.0196 -0.1618,-0.0196 -0.2408,0c-0.0895,0.0223 -0.1719,0.0796 -0.3366,0.1942l-3.82565,2.6621c-0.57868,0.4027 -0.86802,0.604 -1.06072,0.5781c-0.16677,-0.0225 -0.31107,-0.1273 -0.38396,-0.279c-0.08422,-0.1752 0.01786,-0.5126 0.22201,-1.1874l1.34965,-4.4611c0.0581,-0.1921 0.08715,-0.2881 0.08061,-0.3801c-0.00578,-0.0812 -0.03132,-0.1598 -0.07441,-0.229c-0.04877,-0.0782 -0.12872,-0.1388 -0.28861,-0.2601l-3.71404,-2.8157c-0.5618,-0.426 -0.8427,-0.6389 -0.87757,-0.83021c-0.03019,-0.16555 0.02493,-0.33518 0.14666,-0.45137c0.14064,-0.13425 0.49307,-0.14143 1.19792,-0.1558l4.65981,-0.09496c0.2006,-0.00409 0.30091,-0.00613 0.38637,-0.04078c0.07549,-0.0306 0.14237,-0.07919 0.1948,-0.14153c0.05936,-0.07057 0.0923,-0.16533 0.15818,-0.35486l1.53025,-4.40239z"/>
 </g>
</svg>