<svg width="679" height="679" xmlns="http://www.w3.org/2000/svg" version="1.1">
 <g>
  <title>Layer 1</title>
  <path fill="#ffbfeb" d="m409.94,113.98q-0.56,0.19 -0.61,0.69q-0.03,0.38 0.34,0.48l0.33,0.08q0.41,0.11 -0.41,0.72q-0.19,0.15 -0.32,0.37q-0.12,0.21 -0.03,0.43q0.32,0.85 -0.03,1.64q-0.14,0.32 -0.07,0.66q0.12,0.56 -0.34,0.8a0.59,0.59 0 0 0 -0.21,0.86q0.54,0.77 -0.11,1.52q-0.24,0.26 0.02,0.52l0.27,0.27q0.36,0.36 0.17,0.83q-0.28,0.68 0.14,1.46q0.22,0.39 -0.1,0.71l-0.43,0.43a0.37,0.37 0 0 0 0,0.52l0.2,0.2q0.37,0.37 0.08,0.8q-0.4,0.59 0.1,1.21q0.32,0.39 0.17,0.87q-0.27,0.89 -0.19,1.82q0.07,0.94 -0.67,1.27q-0.43,0.19 -0.4,0.66q0.02,0.23 0.18,0.4q0.28,0.32 0.06,0.69l-0.37,0.64c-10.94,-26.19 -24.08,-52.41 -45.96,-70.14q-2.66,-2.15 -6.04,-4.14c-6.76,-3.98 -12.7,-6.99 -20.68,-7.87q-0.21,-0.02 -0.15,-0.23q0.03,-0.12 0.15,-0.21q0.08,-0.06 0.19,-0.08c36.48,-3.81 60.95,33.52 74.72,61.12z" id="svg_116"/>
  <path fill="#ff6dd5" d="m275.76,161.66q-1.01,-0.09 -1.33,-2.98q-0.04,-0.4 0.19,-0.73q0.45,-0.63 -0.19,-1.02a0.58,0.57 36.6 0 1 -0.13,-0.87q0.69,-0.8 -0.12,-1.35a0.23,0.23 0 0 1 -0.03,-0.36l0.36,-0.36a0.17,0.17 0 0 0 -0.11,-0.29q-0.38,-0.02 -0.66,-0.1a0.12,0.12 0 0 1 0.05,-0.23q0.42,0.06 0.75,-0.15a0.1,0.09 -39.8 0 0 0.02,-0.15q-0.13,-0.13 -0.27,-0.27q-0.51,-0.53 0.14,-0.89l0.31,-0.17q0.97,-0.54 0.02,-0.61q-0.32,-0.03 -0.43,-0.35q-0.14,-0.43 0.17,-0.76q0.68,-0.7 -0.16,-1.14a0.46,0.46 0 0 1 0.04,-0.83l0.56,-0.23q0.61,-0.25 0.07,-0.63l-0.35,-0.26q-0.37,-0.27 -0.23,-0.71l0.89,-2.69a0.5,0.49 -78.5 0 0 -0.43,-0.65q-0.62,-0.04 -0.99,-0.52q-0.29,-0.37 0.16,-0.48l0.37,-0.1q0.47,-0.12 0.13,-0.47l-0.3,-0.29q-0.19,-0.2 -0.14,-0.46q0.3,-1.49 -0.64,-2.55q8.62,-19.66 22.05,-36.24q10.06,-12.42 22.76,-17.69q8.55,-3.56 20.02,-2.39q0.04,0 0.05,-0.03q0.01,-0.02 0.01,-0.03q0,-0.02 -0.02,-0.01c-15.27,3.42 -26.31,13.72 -34.81,24.88q-1.92,2.51 -3.83,5.04q-2.04,2.68 -3.57,5.24q-12.67,21.11 -20.38,44.88z" id="svg_117"/>
  <path fill="#ffbfeb" d="m409.94,113.98c11.93,23.59 20.13,48.99 26.51,74.82l2.49,11.16c7.19,32.12 10.73,61.9 13.29,94.81q-0.22,0.16 -0.67,0.11q-0.1,-0.01 -0.16,-0.1l-0.22,-0.34q-0.15,-0.23 -0.37,-0.38l-11.12,-7.94c-4.19,-51.52 -13.01,-102.27 -31.98,-150.59l0.37,-0.64q0.22,-0.37 -0.06,-0.69q-0.16,-0.17 -0.18,-0.4q-0.03,-0.47 0.4,-0.66q0.74,-0.33 0.67,-1.27q-0.08,-0.93 0.19,-1.82q0.15,-0.48 -0.17,-0.87q-0.5,-0.62 -0.1,-1.21q0.29,-0.43 -0.08,-0.8l-0.2,-0.2a0.37,0.37 0 0 1 0,-0.52l0.43,-0.43q0.32,-0.32 0.1,-0.71q-0.42,-0.78 -0.14,-1.46q0.19,-0.47 -0.17,-0.83l-0.27,-0.27q-0.26,-0.26 -0.02,-0.52q0.65,-0.75 0.11,-1.52a0.59,0.59 0 0 1 0.21,-0.86q0.46,-0.24 0.34,-0.8q-0.07,-0.34 0.07,-0.66q0.35,-0.79 0.03,-1.64q-0.09,-0.22 0.03,-0.43q0.13,-0.22 0.32,-0.37q0.82,-0.61 0.41,-0.72l-0.33,-0.08q-0.37,-0.1 -0.34,-0.48q0.05,-0.5 0.61,-0.69z" id="svg_118"/>
  <path fill="#ff6dd5" d="m273.48,138.01q0.94,1.06 0.64,2.55q-0.05,0.26 0.14,0.46l0.3,0.29q0.34,0.35 -0.13,0.47l-0.37,0.1q-0.45,0.11 -0.16,0.48q0.37,0.48 0.99,0.52a0.5,0.49 -78.5 0 1 0.43,0.65l-0.89,2.69q-0.14,0.44 0.23,0.71l0.35,0.26q0.54,0.38 -0.07,0.63l-0.56,0.23a0.46,0.46 0 0 0 -0.04,0.83q0.84,0.44 0.16,1.14q-0.31,0.33 -0.17,0.76q0.11,0.32 0.43,0.35q0.95,0.07 -0.02,0.61l-0.31,0.17q-0.65,0.36 -0.14,0.89q0.14,0.14 0.27,0.27a0.1,0.09 -39.8 0 1 -0.02,0.15q-0.33,0.21 -0.75,0.15a0.12,0.12 0 0 0 -0.05,0.23q0.28,0.08 0.66,0.1a0.17,0.17 0 0 1 0.11,0.29l-0.36,0.36a0.23,0.23 0 0 0 0.03,0.36q0.81,0.55 0.12,1.35a0.58,0.57 36.6 0 0 0.13,0.87q0.64,0.39 0.19,1.02q-0.23,0.33 -0.19,0.73q0.32,2.89 1.33,2.98q-6.58,19.32 -11.06,39.37l-8.7,-2.37l-2.57,-0.95q3.82,-13.96 8.05,-27.94q4.92,-16.29 12,-31.76z" id="svg_119"/>
  <path fill="#ff96df" d="m172.73,173.68q-0.99,9.18 -0.53,18.42q0,0.12 0.07,0.12q0.1,0.01 0.2,0.01q0.1,0 0.11,0.04q0.34,1.07 -0.17,1.88q-0.25,0.39 -0.25,0.85q-0.01,10.37 0,20.75q0,1.51 2.04,1.89q-6.42,1.89 -13.19,-0.24q-0.66,-1.01 -1.69,-1.74q-0.38,-0.27 -0.38,-0.73l0,-39.93q7.59,-2.85 13.79,-1.32z" id="svg_120"/>
  <path fill="#ffbfeb" d="m172.73,173.68l4.51,1.44l5.51,3.37q0.8,0.49 1.34,1.24q-1.65,-0.1 -1.7,1.39q-0.46,13.37 0.45,31.42q-2.24,3.44 -8.64,5.1q-2.04,-0.38 -2.04,-1.89q-0.01,-10.38 0,-20.75q0,-0.46 0.25,-0.85q0.51,-0.81 0.17,-1.88q-0.01,-0.04 -0.11,-0.04q-0.1,0 -0.2,-0.01q-0.07,0 -0.07,-0.12q-0.46,-9.24 0.53,-18.42z" id="svg_121" stroke="null"/>
  <path fill="#ff6dd5" d="m158.94,175l0,39.93q0,0.46 0.38,0.73q1.03,0.73 1.69,1.74c-14.34,-4.93 -20.01,-21.31 -11.96,-34.14q3.64,-5.81 9.89,-8.26z" id="svg_122"/>
  <path fill="#225ba8" d="m182.75,178.49l-5.51,-3.37q3.17,0.54 5.51,3.37z" id="svg_123"/>
  <path fill="#ffbfeb" d="m438.94,199.96l-2.49,-11.16q28.53,-8.42 58.04,-11.65c27.71,-3.03 63.63,-2.2 85.35,18.38q1.05,0.99 -0.19,0.26c-20.57,-12.08 -48.52,-12.7 -73.4,-10.23q-31.34,3.11 -67.31,14.4z" id="svg_124"/>
  <path fill="#ffbfeb" d="m184.09,179.73c8.98,9.28 9.37,24.27 -1.25,32.81q-0.91,-18.05 -0.45,-31.42q0.05,-1.49 1.7,-1.39z" id="svg_125"/>
  <path fill="#ff6dd5" d="m253.43,197.71l2.57,0.95q-0.09,0.17 -0.24,0.26q-0.63,0.4 -0.25,0.58q0.11,0.05 0.24,0.12q0.09,0.04 0.06,0.13q-0.42,1.1 0.52,1.48q0.34,0.14 0.06,0.37q-0.52,0.41 -0.49,1a0.54,0.53 82.9 0 0 0.65,0.51q0.54,-0.12 0.84,0.27a0.16,0.16 0 0 1 -0.12,0.26l-0.45,0.01q-0.52,0.01 -0.73,0.49q-0.08,0.19 -0.2,0.35a0.28,0.28 0 0 0 0.18,0.45l1.42,0.26a0.25,0.25 0 0 1 0.04,0.48l-0.88,0.3q-0.98,0.33 -0.11,0.89q0.52,0.33 1.15,0.24a0.62,0.61 86 0 1 0.7,0.61l0,2.78a0.72,0.7 -86.4 0 0 0.61,0.71q1.46,0.2 2.6,1.12q0.36,0.29 0.83,0.29q1.19,-0.01 2.25,0.46q1.34,0.59 2.04,0.73q4.08,0.8 6.56,2.92c-24.44,-7.91 -47.14,-14.12 -72.32,-17.58q-0.53,-0.07 -0.52,-0.6c0.02,-3.17 0.09,-8.34 -1.53,-11.56q-0.21,-0.41 0.25,-0.35c16.93,2.3 37.03,5.87 54.27,11.07z" id="svg_126"/>
  <path fill="#ff6dd5" d="m135.95,190.3a0.19,0.19 0 0 1 0.26,0.18l-0.36,9.94q-0.01,0.22 -0.23,0.27c-13.22,3.04 -25.8,9.37 -34.46,20.47q-1.48,1.89 -2.08,3.34q-0.09,0.22 -0.3,0.13l-0.01,-0.01q-0.21,-0.09 -0.12,-0.3q2.34,-5.48 4.72,-10.95q1.05,-2.42 5.65,-7.33c4.13,-4.41 10.44,-9.44 15.47,-11.42q3.28,-1.3 11.46,-4.32z" id="svg_127"/>
  <path fill="#ffbfeb" d="m402.27,262.99q-1.23,0.09 -2.54,-0.74q-0.45,-0.29 -0.35,0.24q0.07,0.41 -0.1,0.7a0.46,0.46 0 0 0 0.39,0.69l0.52,0a0.87,0.87 0 0 1 0.72,0.38q1.31,1.86 1.22,4.05q-0.02,0.45 0.42,0.57q0.45,0.12 0.77,-0.26q0.27,-0.31 0.35,0.09q0.06,0.28 -0.05,0.6q-0.2,0.55 -0.78,0.54q-0.29,-0.01 -0.35,0.39q-0.07,0.45 0.35,0.63q1.14,0.5 1.3,1.71q0.08,0.55 0.63,0.55l0.5,0q0.88,0 0.4,0.74q-0.22,0.32 -0.2,0.74q0.01,0.33 0.21,0.59q0.21,0.28 0.33,0.64q0.05,0.14 -0.09,0.16q-0.16,0.03 -0.24,0.12q-0.29,0.32 0.07,0.13q0.14,-0.07 0.27,-0.13a0.17,0.17 0 0 1 0.25,0.15q-0.01,1.43 1.37,1.96a0.43,0.43 0 0 1 0.23,0.59q-0.24,0.49 -0.08,1.18q-28.07,-17.12 -55.56,-30.73c-3.08,-1.53 -5.95,-3.25 -8.75,-4.46q-9.2,-3.99 -18.07,-8.07l-4.9,-4.11a1.02,1.02 0 0 1 -0.37,-0.72q-0.12,-1.51 -1.66,-1.77q-0.36,-0.06 -0.36,-0.43l0,-1.03q0,-0.46 0.44,-0.62l0.66,-0.24q0.46,-0.16 0.31,-0.63q-0.11,-0.31 -0.54,-0.31q-1.33,-0.01 -2.66,-0.03a0.16,0.16 0 0 1 -0.15,-0.18l0.03,-0.25q0.05,-0.32 0.37,-0.29q1.63,0.19 1.57,-1.16q-0.05,-1.1 -1.22,-1.78q-0.47,-0.28 -0.41,-0.83q0.16,-1.52 2.88,-1.42l16.01,7.11a1.86,1.86 0 0 0 1.58,-0.04q5.06,-2.54 10.1,-4.84q2.32,-1.07 4.57,-2.28c3.73,-2.01 7.47,-3.46 11.24,-5.08c4.9,-2.11 10.55,-5.08 16.2,-7c2.24,-0.76 4.35,-1.99 6.39,-2.74q13.51,-4.96 27.08,-9.84q0.78,-0.28 0.97,0.52l2.48,10.18q0.14,0.57 -0.41,0.77c-22.04,8.02 -43.1,17.18 -64.19,27.26q-0.6,0.28 -0.01,0.58q14.07,7.07 28.3,14.53q0.38,0.2 1.99,1.28c0.96,0.65 1.98,0.93 2.87,1.44q8.87,5.04 17.7,10.2z" id="svg_128"/>
  <path fill="#ff96df" d="m256,198.66l8.7,2.37q28.19,8.66 54.7,19.91q-2.72,-0.1 -2.88,1.42q-0.06,0.55 0.41,0.83q1.17,0.68 1.22,1.78q0.06,1.35 -1.57,1.16q-0.32,-0.03 -0.37,0.29l-0.03,0.25a0.16,0.16 0 0 0 0.15,0.18q1.33,0.02 2.66,0.03q0.43,0 0.54,0.31q0.15,0.47 -0.31,0.63l-0.66,0.24q-0.44,0.16 -0.44,0.62l0,1.03q0,0.37 0.36,0.43q1.54,0.26 1.66,1.77a1.02,1.02 0 0 0 0.37,0.72l4.9,4.11c-3.66,-1.31 -7.44,-3.27 -10.59,-4.5c-9.44,-3.65 -18.74,-7.57 -28.33,-10.88q-6.62,-2.28 -13.21,-4.63q-2.48,-2.12 -6.56,-2.92q-0.7,-0.14 -2.04,-0.73q-1.06,-0.47 -2.25,-0.46q-0.47,0 -0.83,-0.29q-1.14,-0.92 -2.6,-1.12a0.72,0.7 -86.4 0 1 -0.61,-0.71l0,-2.78a0.62,0.61 86 0 0 -0.7,-0.61q-0.63,0.09 -1.15,-0.24q-0.87,-0.56 0.11,-0.89l0.88,-0.3a0.25,0.25 0 0 0 -0.04,-0.48l-1.42,-0.26a0.28,0.28 0 0 1 -0.18,-0.45q0.12,-0.16 0.2,-0.35q0.21,-0.48 0.73,-0.49l0.45,-0.01a0.16,0.16 0 0 0 0.12,-0.26q-0.3,-0.39 -0.84,-0.27a0.54,0.53 82.9 0 1 -0.65,-0.51q-0.03,-0.59 0.49,-1q0.28,-0.23 -0.06,-0.37q-0.94,-0.38 -0.52,-1.48q0.03,-0.09 -0.06,-0.13q-0.13,-0.07 -0.24,-0.12q-0.38,-0.18 0.25,-0.58q0.15,-0.09 0.24,-0.26z" id="svg_129"/>
  <path fill="#ffbfeb" d="m568.34,253.41c2.8,-12.8 0.48,-28.42 -9.61,-37.76q-0.67,-0.62 0.12,-0.18c19.5,10.86 25.31,29.48 19.79,50.71a0.59,0.58 24.6 0 1 -0.9,0.33q-4.9,-3.36 -10.79,-4.41a0.73,0.72 -72.8 0 1 -0.53,-1.02c1.13,-2.47 1.49,-5.71 1.92,-7.67z" id="svg_130"/>
  <path fill="#ff6dd5" d="m253.39,276.87q-1.31,7.78 -0.53,16.6q-0.57,0.39 -0.68,1.78q-0.56,6.99 -0.78,14q-1.54,48.55 3.56,96.87q0.14,1.32 0.57,2.65l-12.22,-8.69q-0.58,-0.21 -0.96,-1c-3.07,-33.31 -3.23,-58.95 -2.68,-94.08q0.05,-2.79 0.49,-8.49c0.3,-3.79 0.24,-7.79 0.58,-11.34q1.16,-12.05 2.37,-24.1c1.26,-12.53 3.42,-25.63 5.16,-38.55a0.62,0.62 0 0 1 0.77,-0.52l10.13,2.74a0.88,0.88 0 0 1 0.64,1q-4.34,24.98 -6.42,51.13z" id="svg_131"/>
  <path fill="#ff6dd5" d="m175.07,339.14q0,0.21 1.42,0.92q0.5,0.26 0.42,0.82q-0.17,1.15 0.21,1.63q1.43,1.75 2.49,3.77a1.33,1.32 34.5 0 1 0.14,0.74q-0.11,1.2 0.75,2.19q0.38,0.43 -0.06,0.81q-0.25,0.22 0.2,0.82a0.99,0.94 81.1 0 0 0.43,0.33q0.74,0.28 0.14,0.9q-0.4,0.41 0.01,0.82l0.33,0.34q0.31,0.3 -0.04,0.56q-0.33,0.24 -0.78,0.37q-1.42,0.39 0.03,0.67l1.74,0.34a0.35,0.35 0 0 1 -0.04,0.69q-0.55,0.04 -0.99,0.41q-0.32,0.27 0.04,0.51q0.64,0.41 0.62,1.15q-0.01,0.32 -0.33,0.34q-0.17,0.02 -0.3,0.05a0.16,0.16 0 0 0 0.04,0.31q0.97,-0.01 1.68,0.66q0.31,0.3 -0.03,0.56q-0.28,0.22 -0.31,0.52q-0.09,0.78 0.81,0.82q0.38,0.01 0.17,0.33l-0.22,0.35a0.46,0.45 34.6 0 0 0.12,0.63q1.66,1.19 0.91,3.12c-12.75,-12.36 -20.77,-22.22 -30.49,-34.24c-11.89,-14.69 -21.04,-28.68 -28.32,-45.78c-7.08,-16.63 -9.17,-34.44 -0.07,-50.44q0.25,-0.44 0.34,0.06q0.07,0.42 -0.25,0.69q-0.36,0.29 -0.42,0.74c-2.77,19.31 3.66,36.48 13,53.14c10.07,17.94 22.59,33.89 36.61,49.35z" id="svg_132"/>
  <path fill="#ff96df" d="m252.86,293.47q-0.78,-8.82 0.53,-16.6q7.7,-5.42 15.3,-10.31q0.93,-0.6 3.05,-1.67c2.36,-1.2 4.79,-3.15 6.66,-4.26q1.91,-1.12 3.78,-2.31q12.87,-8.23 26.3,-15.46a2.01,2 -47.2 0 1 1.75,-0.07l13.57,5.88q0.97,0.43 -0.02,0.79c-2.27,0.85 -4.45,2.64 -6.16,3.6q-24.16,13.42 -42.39,25.47q-0.75,0.49 -1.25,0.76q-0.43,0.22 -0.83,0.5l-20.29,13.68z" id="svg_133"/>
  <path fill="#ffbfeb" d="m402.27,262.99q18.61,11.01 36.54,23.14q0.23,0.16 0.42,0.15q0.25,-0.01 0.46,-0.16l11.12,7.94q0.22,0.15 0.37,0.38l0.22,0.34q0.06,0.09 0.16,0.1q0.45,0.05 0.67,-0.11c0.36,0.44 0.57,0.98 1.03,1.32c20.21,14.74 39.86,30.19 58.39,46.93a1.1,1.1 0 0 0 1.68,-0.25q0.68,-1.11 2.03,-2.13q-0.17,1.63 -2.24,2.81q-0.55,0.32 -0.17,0.83q0.4,0.55 0.77,1.11q0.07,0.1 0.83,1.63q0.4,0.8 1.33,1.26a0.87,0.85 14.5 0 1 0.48,0.8q-0.03,0.75 0.72,1.14q0.52,0.27 0.69,0.84q0.29,1.03 0.79,2.03q0.26,0.53 0.4,1.1q0.43,1.7 -0.28,1.68a0.47,0.46 61.3 0 0 -0.25,0.86q1.06,0.66 0.51,1.65q-0.22,0.39 0.11,0.68q0.73,0.64 0.86,1.57q0.07,0.48 0.36,0.87q0.13,0.17 0.25,0.36q0.31,0.5 -0.28,0.51l-0.46,0q-0.98,0 -0.07,0.39l1.22,0.52a0.42,0.3 -18.4 0 1 -0.43,0.59q-0.22,-0.05 -0.29,0.23q-0.11,0.39 0.2,0.67q1.13,1.01 1.42,2.49q0.1,0.51 0.5,0.85q3.07,2.57 4.59,5.63q-30.42,-30.26 -60.33,-53.33q-25.78,-19.9 -58.8,-40.41q-0.16,-0.69 0.08,-1.18a0.43,0.43 0 0 0 -0.23,-0.59q-1.38,-0.53 -1.37,-1.96a0.17,0.17 0 0 0 -0.25,-0.15q-0.13,0.06 -0.27,0.13q-0.36,0.19 -0.07,-0.13q0.08,-0.09 0.24,-0.12q0.14,-0.02 0.09,-0.16q-0.12,-0.36 -0.33,-0.64q-0.2,-0.26 -0.21,-0.59q-0.02,-0.42 0.2,-0.74q0.48,-0.74 -0.4,-0.74l-0.5,0q-0.55,0 -0.63,-0.55q-0.16,-1.21 -1.3,-1.71q-0.42,-0.18 -0.35,-0.63q0.06,-0.4 0.35,-0.39q0.58,0.01 0.78,-0.54q0.11,-0.32 0.05,-0.6q-0.08,-0.4 -0.35,-0.09q-0.32,0.38 -0.77,0.26q-0.44,-0.12 -0.42,-0.57q0.09,-2.19 -1.22,-4.05a0.87,0.87 0 0 0 -0.72,-0.38l-0.52,0a0.46,0.46 0 0 1 -0.39,-0.69q0.17,-0.29 0.1,-0.7q-0.1,-0.53 0.35,-0.24q1.31,0.83 2.54,0.74z" id="svg_134"/>
  <path fill="#ff6dd5" d="m563.21,271.39l-1.96,0.04q-0.52,0.01 -0.55,0.53q-0.24,4.04 0.21,8.04q0.05,0.4 -0.11,0.74q-0.17,0.35 -0.17,0.73q0.17,13.9 0.01,27.8c-0.01,1.16 0.52,2.59 -0.06,4.05a2.26,2.25 10.2 0 0 2.16,3.09l1.46,-0.05c-14.3,1.78 -26.64,-8.73 -26.08,-23.37c0.51,-13.33 11.94,-22.87 25.09,-21.6z" id="svg_135"/>
  <path fill="#ff96df" d="m563.21,271.39l3.43,0.62l-0.2,41.15q0,0.46 0.28,0.81q0.75,0.95 1.5,1.36l-4.02,1.03l-1.46,0.05a2.26,2.25 10.2 0 1 -2.16,-3.09c0.58,-1.46 0.05,-2.89 0.06,-4.05q0.16,-13.9 -0.01,-27.8q0,-0.38 0.17,-0.73q0.16,-0.34 0.11,-0.74q-0.45,-4 -0.21,-8.04q0.03,-0.52 0.55,-0.53l1.96,-0.04z" id="svg_136"/>
  <path fill="#ffbfeb" d="m566.64,272.01c14.09,4.53 20.94,18.92 14.17,32.27q-4.06,8 -12.59,11.05q-0.75,-0.41 -1.5,-1.36q-0.28,-0.35 -0.28,-0.81l0.2,-41.15z" id="svg_137"/>
  <path fill="#ff96df" d="m221.15,300.57l-1.27,16.86a1.02,1.01 -15.3 0 1 -0.45,0.78q-1.9,1.3 -3.14,3.2q-4.44,3.04 -8.45,6.69c-7.58,6.91 -15.29,13.67 -22.72,20.75a0.45,0.45 0 0 0 -0.01,0.64q26.55,26.96 57.24,49.59q0.38,0.79 0.96,1l-0.33,0.37q-0.29,0.32 -0.5,0.71q-0.83,1.52 0.26,1.92a0.41,0.41 0 0 1 0.03,0.76q-0.37,0.18 -0.63,0.52a0.34,0.34 0 0 0 0.35,0.54q0.67,-0.16 1.14,0.22q0.6,0.51 -0.15,0.74q-1.35,0.41 -2.76,0.24a0.31,0.31 0 0 0 -0.35,0.31l0,0.27q0,0.17 0.17,0.17l2.84,0.05a0.4,0.4 0 0 1 0.4,0.36l0.03,0.25q0.02,0.21 -0.18,0.27l-1.39,0.43q-0.12,0.04 -0.12,0.16l0,0.32a0.24,0.23 83.3 0 0 0.29,0.23q0.79,-0.21 1.44,0.18q0.58,0.34 0.05,0.76q-0.52,0.41 -1.18,0.24a0.34,0.33 73.8 0 0 -0.31,0.57q0.41,0.39 1.01,0.48q0.51,0.08 0.19,0.47q-0.13,0.16 -0.29,0.28q-0.34,0.26 -0.42,0.67q-0.24,1.22 0.77,1.31q0.46,0.04 0.33,0.49l-0.25,0.85c-20.61,-15.33 -40.71,-31.62 -59.08,-49.6q0.75,-1.93 -0.91,-3.12a0.46,0.45 34.6 0 1 -0.12,-0.63l0.22,-0.35q0.21,-0.32 -0.17,-0.33q-0.9,-0.04 -0.81,-0.82q0.03,-0.3 0.31,-0.52q0.34,-0.26 0.03,-0.56q-0.71,-0.67 -1.68,-0.66a0.16,0.16 0 0 1 -0.04,-0.31q0.13,-0.03 0.3,-0.05q0.32,-0.02 0.33,-0.34q0.02,-0.74 -0.62,-1.15q-0.36,-0.24 -0.04,-0.51q0.44,-0.37 0.99,-0.41a0.35,0.35 0 0 0 0.04,-0.69l-1.74,-0.34q-1.45,-0.28 -0.03,-0.67q0.45,-0.13 0.78,-0.37q0.35,-0.26 0.04,-0.56l-0.33,-0.34q-0.41,-0.41 -0.01,-0.82q0.6,-0.62 -0.14,-0.9a0.99,0.94 81.1 0 1 -0.43,-0.33q-0.45,-0.6 -0.2,-0.82q0.44,-0.38 0.06,-0.81q-0.86,-0.99 -0.75,-2.19a1.33,1.32 34.5 0 0 -0.14,-0.74q-1.06,-2.02 -2.49,-3.77q-0.38,-0.48 -0.21,-1.63q0.08,-0.56 -0.42,-0.82q-1.42,-0.71 -1.42,-0.92q17.48,-16.65 40.18,-34.63q1.01,-0.8 1.64,-1.11q0.41,-0.2 0.7,-0.55q1.51,-1.87 3.56,-2.28z" id="svg_138"/>
  <path fill="#225ba8" d="m221.15,300.57q-0.04,8.15 -0.05,14.68c0,3.14 -1.67,4.39 -4.81,6.16q1.24,-1.9 3.14,-3.2a1.02,1.01 -15.3 0 0 0.45,-0.78l1.27,-16.86z" id="svg_139"/>
  <path fill="#ff96df" d="m353.37,316.1q-1.05,1.09 -1.06,4.16q0,9.48 0.04,18.95q0.01,0.46 -0.23,0.87q-0.85,1.52 -0.49,3.12q0.12,0.5 -0.13,0.94q-0.27,0.48 0.12,0.98q0.3,0.37 0.01,0.74q-0.48,0.64 0,1.26q0.29,0.38 0,0.76q-0.48,0.62 0,1.25q0.28,0.37 0,0.74q-0.48,0.63 0.01,1.25q0.29,0.38 0,0.75q-0.49,0.62 -0.01,1.24q0.29,0.38 0,0.75q-0.49,0.64 0.01,1.27q0.3,0.38 -0.01,0.75q-0.4,0.48 -0.14,0.96q0.24,0.45 0.14,0.95q-0.53,2.85 0.08,5.66q0.05,0.23 -0.06,0.44q-0.08,0.13 -0.14,0.26q-0.09,0.2 -0.07,0.45q0.2,2.94 -0.01,5.87q-0.01,0.17 0.06,0.32q0.07,0.17 0.16,0.34q0.22,0.42 -0.05,0.8q-0.44,0.61 0.05,1.21q0.22,0.28 0.06,0.6l-0.15,0.3q-0.2,0.4 -0.04,0.83q0.24,0.63 0,1.32q-0.17,0.5 0.13,0.94q0.32,0.45 -0.06,0.87a0.75,0.75 0 0 0 0,1.01q0.44,0.48 0.01,0.97a0.79,0.79 0 0 0 -0.01,1.03q0.43,0.52 -0.05,1.04a0.57,0.57 0 0 0 0.13,0.88q0.62,0.38 0.2,0.96a0.62,0.62 0 0 0 0.18,0.89q1.06,0.65 0.14,1.37q-0.43,0.34 -0.04,0.73l0.37,0.37q0.33,0.33 0.03,0.67q-0.58,0.67 0.15,1.41q-8.98,3.9 -19,3.11l-0.27,-4.31q-0.01,-0.14 -0.1,-0.21q-0.05,-0.03 -0.1,-0.04q-0.21,-0.07 -0.21,-0.22q-0.25,-7.83 -0.11,-15.66q0,-0.19 0.12,-0.35q0.15,-0.21 0.13,-0.47q-0.51,-4.68 -0.01,-9.35q0.03,-0.25 -0.11,-0.46q-0.1,-0.15 -0.09,-0.37q0.18,-7.91 -0.01,-20.75q-0.01,-0.38 0.14,-0.74q0.21,-0.5 0.08,-1.04q-0.48,-1.99 0.02,-3.99a1.57,1.54 39.4 0 0 -0.11,-1.01c-0.46,-0.97 0.01,-1.97 -0.02,-2.74q-0.41,-8.89 -0.03,-18.04q11.19,-0.88 20.35,3.41z" id="svg_140"/>
  <path fill="#ff96df" d="m333.02,312.69q-0.38,9.15 0.03,18.04c0.03,0.77 -0.44,1.77 0.02,2.74a1.57,1.54 39.4 0 1 0.11,1.01q-0.5,2 -0.02,3.99q0.13,0.54 -0.08,1.04q-0.15,0.36 -0.14,0.74q0.19,12.84 0.01,20.75q-0.01,0.22 0.09,0.37q0.14,0.21 0.11,0.46q-0.5,4.67 0.01,9.35q0.02,0.26 -0.13,0.47q-0.12,0.16 -0.12,0.35q-0.14,7.83 0.11,15.66q0,0.15 0.21,0.22q0.05,0.01 0.1,0.04q0.09,0.07 0.1,0.21l0.27,4.31q-5.2,-0.33 -10.61,-2.33q1.31,-5.25 0.79,-9.61q-0.22,-1.77 0.2,-2.79q0.04,-0.12 0.04,-0.2q-0.02,-0.18 -0.12,-0.35q-0.12,-0.2 -0.12,-0.44l0,-51.98q0,-0.37 0.26,-0.62l0.24,-0.25a0.95,0.91 68.8 0 0 0.28,-0.67l-0.04,-8.73l8.4,-1.78z" id="svg_141"/>
  <path fill="#ff6dd5" d="m324.62,314.47l0.04,8.73a0.95,0.91 68.8 0 1 -0.28,0.67l-0.24,0.25q-0.26,0.25 -0.26,0.62l0,51.98q0,0.24 0.12,0.44q0.1,0.17 0.12,0.35q0,0.08 -0.04,0.2q-0.42,1.02 -0.2,2.79q0.52,4.36 -0.79,9.61q-5.71,-2.05 -10.89,-6.07q0.71,-0.21 0.7,-0.64c0,-0.39 0.17,-0.92 0.33,-1.28q0.17,-0.37 0.08,-0.76l-0.72,-3.03q-0.11,-0.45 0.35,-0.45l0.41,0a0.24,0.24 0 0 0 0.23,-0.31q-0.54,-1.81 -0.31,-3.7q0.06,-0.5 -0.07,-0.98q-0.41,-1.5 0.14,-3.06q0.2,-0.57 -0.25,-0.98q-0.38,-0.33 -0.03,-0.69q0.37,-0.38 0.32,-0.9l-0.34,-4.23q-0.05,-0.62 0.46,-0.97q0.67,-0.45 0.08,-1.01q-0.39,-0.36 -0.18,-0.84q0.41,-0.95 0.42,-1.9q0,-0.53 -0.6,-1.68q-0.69,-1.31 -0.41,-2.89q0.08,-0.46 -0.35,-0.64q-0.24,-0.1 -0.43,-0.31a0.48,0.47 59.1 0 1 0.19,-0.76q0.87,-0.33 0.46,-0.98a0.87,0.84 -45.2 0 1 0.01,-0.91q0.57,-0.9 -0.4,-1.13a0.45,0.45 0 0 1 -0.25,-0.71q0.83,-1.09 0.76,-2.57q-0.02,-0.46 -0.43,-0.66q-0.14,-0.07 -0.24,-0.2q-0.28,-0.36 0,-0.73q0.13,-0.18 0.34,-0.24q0.53,-0.16 0.29,-0.65q-0.41,-0.84 0.26,-1.63a0.32,0.32 0 0 0 -0.33,-0.51q-0.28,0.07 -0.46,-0.16q-0.26,-0.33 -0.07,-0.7q0.66,-1.25 0.68,-2.74q0.01,-0.31 -0.3,-0.38q-0.25,-0.06 -0.41,-0.26q-0.28,-0.36 0,-0.74q0.13,-0.18 0.34,-0.24q0.53,-0.14 0.29,-0.64q-0.29,-0.6 -0.03,-1.18q0.31,-0.69 -0.37,-1.01q-0.29,-0.13 -0.38,-0.54q-0.04,-0.2 0.1,-0.34q0.13,-0.14 0.28,-0.27q0.33,-0.32 0.34,-0.77l0.05,-4.39a5.15,1.22 80.7 0 1 0.07,-0.98q0.09,-0.69 -0.86,-1.09q-0.51,-0.22 -0.01,-0.47q0.76,-0.38 0.04,-0.62a0.17,0.17 0 0 1 -0.02,-0.32q0.14,-0.07 0.29,-0.15q0.3,-0.16 0.31,-0.49q0,-0.44 0.36,-0.69q0.39,-0.28 0.48,-0.75l0.25,-1.27q5.17,-3.65 10.96,-5.45z" id="svg_142"/>
  <path fill="#225ba8" d="m538.95,317.74l-1.89,-1.16q-0.46,-0.29 -0.88,0.06l-1.39,1.13l1.52,-1.74q0.37,-0.42 0.87,-0.18q1.21,0.56 1.77,1.89z" id="svg_143"/>
  <path fill="#ffbfeb" d="m353.37,316.1q6.17,2.75 10.78,7.11l-2.53,0.17q-0.36,0.02 -0.37,0.38l-0.18,32.11q0,0.3 0.1,0.58q0.08,0.25 0.07,0.55q-0.22,13.17 0.25,27.05q-3.24,2.92 -8.79,5.28q-0.73,-0.74 -0.15,-1.41q0.3,-0.34 -0.03,-0.67l-0.37,-0.37q-0.39,-0.39 0.04,-0.73q0.92,-0.72 -0.14,-1.37a0.62,0.62 0 0 1 -0.18,-0.89q0.42,-0.58 -0.2,-0.96a0.57,0.57 0 0 1 -0.13,-0.88q0.48,-0.52 0.05,-1.04a0.79,0.79 0 0 1 0.01,-1.03q0.43,-0.49 -0.01,-0.97a0.75,0.75 0 0 1 0,-1.01q0.38,-0.42 0.06,-0.87q-0.3,-0.44 -0.13,-0.94q0.24,-0.69 0,-1.32q-0.16,-0.43 0.04,-0.83l0.15,-0.3q0.16,-0.32 -0.06,-0.6q-0.49,-0.6 -0.05,-1.21q0.27,-0.38 0.05,-0.8q-0.09,-0.17 -0.16,-0.34q-0.07,-0.15 -0.06,-0.32q0.21,-2.93 0.01,-5.87q-0.02,-0.25 0.07,-0.45q0.06,-0.13 0.14,-0.26q0.11,-0.21 0.06,-0.44q-0.61,-2.81 -0.08,-5.66q0.1,-0.5 -0.14,-0.95q-0.26,-0.48 0.14,-0.96q0.31,-0.37 0.01,-0.75q-0.5,-0.63 -0.01,-1.27q0.29,-0.37 0,-0.75q-0.48,-0.62 0.01,-1.24q0.29,-0.37 0,-0.75q-0.49,-0.62 -0.01,-1.25q0.28,-0.37 0,-0.74q-0.48,-0.63 0,-1.25q0.29,-0.38 0,-0.76q-0.48,-0.62 0,-1.26q0.29,-0.37 -0.01,-0.74q-0.39,-0.5 -0.12,-0.98q0.25,-0.44 0.13,-0.94q-0.36,-1.6 0.49,-3.12q0.24,-0.41 0.23,-0.87q-0.04,-9.47 -0.04,-18.95q0.01,-3.07 1.06,-4.16z" id="svg_144"/>
  <path fill="#ffbfeb" d="m451.67,396.91q-1.2,7.11 -0.74,15.3q-0.8,0.55 -0.92,1.85q-3.72,41.01 -13.75,80.94q-0.33,1.32 -1.18,3.78q-6.68,-1.04 -10.3,-4.26q3.97,-15.59 6.65,-30.77q4.68,-26.47 6,-40.01c0.83,-8.57 2,-17.7 2.6,-25.68q3.03,-40.49 1.57,-81.1q-0.02,-0.49 0.38,-0.2l11.34,8.17a0.74,0.73 -73.5 0 1 0.31,0.58q0.86,35.15 -1.96,71.4z" id="svg_145"/>
  <path fill="#ffbfeb" d="m538.95,317.74q3.87,3.52 8.71,5.78q0.36,0.17 0.08,0.46l-2.64,2.81q-3.1,2.32 -4.91,5.57l-18.36,19.76q-0.34,0.37 0.03,0.72c32.34,30.41 98.03,104.34 70.13,152.78q-0.25,0.43 -0.12,-0.05c4.21,-15.79 0.63,-33.53 -5.64,-48.27c-13.45,-31.57 -34.48,-57.81 -59.31,-83.56q-1.52,-3.06 -4.59,-5.63q-0.4,-0.34 -0.5,-0.85q-0.29,-1.48 -1.42,-2.49q-0.31,-0.28 -0.2,-0.67q0.07,-0.28 0.29,-0.23a0.42,0.3 -18.4 0 0 0.43,-0.59l-1.22,-0.52q-0.91,-0.39 0.07,-0.39l0.46,0q0.59,-0.01 0.28,-0.51q-0.12,-0.19 -0.25,-0.36q-0.29,-0.39 -0.36,-0.87q-0.13,-0.93 -0.86,-1.57q-0.33,-0.29 -0.11,-0.68q0.55,-0.99 -0.51,-1.65a0.47,0.46 61.3 0 1 0.25,-0.86q0.71,0.02 0.28,-1.68q-0.14,-0.57 -0.4,-1.1q-0.5,-1 -0.79,-2.03q-0.17,-0.57 -0.69,-0.84q-0.75,-0.39 -0.72,-1.14a0.87,0.85 14.5 0 0 -0.48,-0.8q-0.93,-0.46 -1.33,-1.26q-0.76,-1.53 -0.83,-1.63q-0.37,-0.56 -0.77,-1.11q-0.38,-0.51 0.17,-0.83q2.07,-1.18 2.24,-2.81q10.23,-10.88 19.43,-22.87l1.39,-1.13q0.42,-0.35 0.88,-0.06l1.89,1.16z" id="svg_146"/>
  <path fill="#ff6dd5" d="m313.66,319.92l-0.25,1.27q-0.09,0.47 -0.48,0.75q-0.36,0.25 -0.36,0.69q-0.01,0.33 -0.31,0.49q-0.15,0.08 -0.29,0.15a0.17,0.17 0 0 0 0.02,0.32q0.72,0.24 -0.04,0.62q-0.5,0.25 0.01,0.47q0.95,0.4 0.86,1.09a5.15,1.22 80.7 0 0 -0.07,0.98l-0.05,4.39q-0.01,0.45 -0.34,0.77q-0.15,0.13 -0.28,0.27q-0.14,0.14 -0.1,0.34q0.09,0.41 0.38,0.54q0.68,0.32 0.37,1.01q-0.26,0.58 0.03,1.18q0.24,0.5 -0.29,0.64q-0.21,0.06 -0.34,0.24q-0.28,0.38 0,0.74q0.16,0.2 0.41,0.26q0.31,0.07 0.3,0.38q-0.02,1.49 -0.68,2.74q-0.19,0.37 0.07,0.7q0.18,0.23 0.46,0.16a0.32,0.32 0 0 1 0.33,0.51q-0.67,0.79 -0.26,1.63q0.24,0.49 -0.29,0.65q-0.21,0.06 -0.34,0.24q-0.28,0.37 0,0.73q0.1,0.13 0.24,0.2q0.41,0.2 0.43,0.66q0.07,1.48 -0.76,2.57a0.45,0.45 0 0 0 0.25,0.71q0.97,0.23 0.4,1.13a0.87,0.84 -45.2 0 0 -0.01,0.91q0.41,0.65 -0.46,0.98a0.48,0.47 59.1 0 0 -0.19,0.76q0.19,0.21 0.43,0.31q0.43,0.18 0.35,0.64q-0.28,1.58 0.41,2.89q0.6,1.15 0.6,1.68q-0.01,0.95 -0.42,1.9q-0.21,0.48 0.18,0.84q0.59,0.56 -0.08,1.01q-0.51,0.35 -0.46,0.97l0.34,4.23q0.05,0.52 -0.32,0.9q-0.35,0.36 0.03,0.69q0.45,0.41 0.25,0.98q-0.55,1.56 -0.14,3.06q0.13,0.48 0.07,0.98q-0.23,1.89 0.31,3.7a0.24,0.24 0 0 1 -0.23,0.31l-0.41,0q-0.46,0 -0.35,0.45l0.72,3.03q0.09,0.39 -0.08,0.76c-0.16,0.36 -0.33,0.89 -0.33,1.28q0.01,0.43 -0.7,0.64c-21.23,-16.53 -19.89,-48.59 1.46,-64.12z" id="svg_147"/>
  <path fill="#ffbfeb" d="m364.15,323.21c16.91,15.82 16.76,41.03 1.35,57.55q-1.31,1.39 -4.01,3.29q-0.47,-13.88 -0.25,-27.05q0.01,-0.3 -0.07,-0.55q-0.1,-0.28 -0.1,-0.58l0.18,-32.11q0.01,-0.36 0.37,-0.38l2.53,-0.17z" id="svg_148"/>
  <path fill="#225ba8" d="m545.1,326.79q-1.72,3.22 -4.91,5.57q1.81,-3.25 4.91,-5.57z" id="svg_149"/>
  <path fill="#ffbfeb" d="m450.93,412.21q-0.46,-8.19 0.74,-15.3q22.37,-16.99 42.72,-35.66q0.4,-0.37 0.8,0l8.61,8.01q0.33,0.31 -0.06,0.55q-1.02,0.63 -1.43,1.01q-24.06,21.76 -51.38,41.39z" id="svg_150"/>
  <path fill="#ff6dd5" d="m103.11,431.66c10.15,-21.86 24.67,-41.96 40.63,-59.93q4.39,-4.94 8.7,-9.95q0.34,-0.4 0.71,-0.03l9.43,9.5q0.33,0.34 -0.05,0.62q-0.93,0.68 -1.66,1.5c-27.68,31.07 -81.57,99.07 -44.26,141.38q0.17,0.2 -0.05,0.06c-31.38,-19.18 -26.91,-54.17 -13.45,-83.15z" id="svg_151"/>
  <path fill="#ff96df" d="m243.31,400.08l12.22,8.69q37.61,26.43 70.49,44.22q4.17,2.26 17.67,9.19c1.83,0.93 2.91,0.5 4.51,-0.47q-1.68,3.38 1.84,4.87q0.09,0.04 0.01,0.1q-0.11,0.1 -0.05,0.29q0.05,0.13 0.18,0.18q1.43,0.48 1.87,1.98q0.12,0.41 0.07,0.84q-0.04,0.38 0.04,0.74q0.06,0.24 0.29,0.33l0.78,0.28q0.27,0.1 0.04,0.28l-0.83,0.62q-0.56,0.42 0.06,0.73q0.37,0.19 0.78,0.26a0.23,0.23 0 0 1 -0.04,0.45q-0.3,0 -0.69,0.3q-0.75,0.57 0.14,0.88q0.51,0.18 0.8,0.78q0.13,0.29 -0.11,0.51q-0.11,0.09 -0.23,0.16q-0.86,0.55 -0.13,0.71q0.14,0.04 0.28,0.11q0.23,0.12 0.22,0.38q-0.02,0.52 -0.31,0.82q-0.36,0.36 -0.02,0.75c1.27,1.49 2.98,1.88 4.3,2.59q5.13,2.74 10.51,4.99q0.4,0.17 1.21,0.96q0.34,0.33 0.82,0.29q1.51,-0.13 2.71,0.44q4.86,2.28 14.82,7.27q-13.52,-5.09 -23.55,-9.7q-40.11,-18.44 -70.7,-37.49c-16.86,-10.49 -33.67,-21.24 -49.56,-33.19l0.25,-0.85q0.13,-0.45 -0.33,-0.49q-1.01,-0.09 -0.77,-1.31q0.08,-0.41 0.42,-0.67q0.16,-0.12 0.29,-0.28q0.32,-0.39 -0.19,-0.47q-0.6,-0.09 -1.01,-0.48a0.34,0.33 73.8 0 1 0.31,-0.57q0.66,0.17 1.18,-0.24q0.53,-0.42 -0.05,-0.76q-0.65,-0.39 -1.44,-0.18a0.24,0.23 83.3 0 1 -0.29,-0.23l0,-0.32q0,-0.12 0.12,-0.16l1.39,-0.43q0.2,-0.06 0.18,-0.27l-0.03,-0.25a0.4,0.4 0 0 0 -0.4,-0.36l-2.84,-0.05q-0.17,0 -0.17,-0.17l0,-0.27a0.31,0.31 0 0 1 0.35,-0.31q1.41,0.17 2.76,-0.24q0.75,-0.23 0.15,-0.74q-0.47,-0.38 -1.14,-0.22a0.34,0.34 0 0 1 -0.35,-0.54q0.26,-0.34 0.63,-0.52a0.41,0.41 0 0 0 -0.03,-0.76q-1.09,-0.4 -0.26,-1.92q0.21,-0.39 0.5,-0.71l0.33,-0.37z" id="svg_152"/>
  <path fill="#ffbfeb" d="m412.58,491.82q-0.61,1.28 -0.58,2.68q0.01,0.58 0.47,0.92q0.74,0.54 1.06,1.43q0.17,0.47 -0.11,0.9q-0.34,0.51 -0.97,0.35a0.28,0.28 0 0 0 -0.33,0.36l0.1,0.32q0.04,0.12 0.17,0.11q1.37,-0.15 2.62,0.38a0.3,0.3 0 0 1 -0.14,0.58q-0.36,-0.02 -0.37,0.44q-0.01,0.35 0.32,0.48q2.19,0.88 2.34,3.32q0.04,0.52 0.56,0.52q1.03,-0.02 1.32,0.98q0.15,0.49 0.65,0.54q1.22,0.13 1.93,1a1.13,1.11 70.9 0 0 0.85,0.42q1.99,0.05 2.85,1.4q-19.34,-5.77 -37.76,-13.35q-9.96,-4.99 -14.82,-7.27q-1.2,-0.57 -2.71,-0.44q-0.48,0.04 -0.82,-0.29q-0.81,-0.79 -1.21,-0.96q-5.38,-2.25 -10.51,-4.99c-1.32,-0.71 -3.03,-1.1 -4.3,-2.59q-0.34,-0.39 0.02,-0.75q0.29,-0.3 0.31,-0.82q0.01,-0.26 -0.22,-0.38q-0.14,-0.07 -0.28,-0.11q-0.73,-0.16 0.13,-0.71q0.12,-0.07 0.23,-0.16q0.24,-0.22 0.11,-0.51q-0.29,-0.6 -0.8,-0.78q-0.89,-0.31 -0.14,-0.88q0.39,-0.3 0.69,-0.3a0.23,0.23 0 0 0 0.04,-0.45q-0.41,-0.07 -0.78,-0.26q-0.62,-0.31 -0.06,-0.73l0.83,-0.62q0.23,-0.18 -0.04,-0.28l-0.78,-0.28q-0.23,-0.09 -0.29,-0.33q-0.08,-0.36 -0.04,-0.74q0.05,-0.43 -0.07,-0.84q-0.44,-1.5 -1.87,-1.98q-0.13,-0.05 -0.18,-0.18q-0.06,-0.19 0.05,-0.29q0.08,-0.06 -0.01,-0.1q-3.52,-1.49 -1.84,-4.87l13.81,-7.36q0.14,-0.07 0.18,-0.22q0.01,-0.04 0.02,-0.08q0.02,-0.08 0.09,-0.11q10.72,-5.75 21.23,-11.88q0.36,-0.21 0.78,-0.19q0.42,0.02 0.59,-0.3q0.13,-0.23 0.36,-0.38l41.13,-25.62a0.1,0.1 0 0 1 0.15,0.1l-1.52,14.3q-0.04,0.45 -0.42,0.7q-11.77,7.61 -23.71,14.91q-9.91,6.06 -19.9,11.99q-8.31,4.94 -15.2,7.97q-4.11,1.81 -6.81,3.51q-0.52,0.32 0.04,0.58q26.32,12.15 53.56,22.19z" id="svg_153"/>
  <path fill="#ff6dd5" d="m271.61,493.61l3.86,11.02q-0.21,-0.09 -0.17,0.72q0.02,0.34 0.15,0.73q3.54,9.91 7.4,19.76q0.21,0.55 -0.38,0.54q-5.21,-0.05 -10.1,1.73q-0.49,0.18 -0.68,-0.31c-3.74,-9.67 -7.46,-19.21 -10.33,-29.21c-6.15,-21.46 -9.44,-36.45 -13.16,-54.98q-0.22,-1.07 -0.26,-1.49q-0.13,-1.13 0.82,-0.5l12.13,8.02a1.64,1.63 11.5 0 1 0.7,1.05q4.15,21.48 10.02,42.92z" id="svg_154"/>
  <path fill="#ff96df" d="m275.47,504.63l-3.86,-11.02c12.91,-3.81 25.14,-9.12 37.58,-13.94a1.34,1.32 47.8 0 1 1.08,0.06l12.9,6.67q0.17,0.09 -0.01,0.16c-9.86,3.95 -19.93,8.64 -29.4,11.93q-8.78,3.04 -18.29,6.14z" id="svg_155"/>
  <path fill="#ffbfeb" d="m425.32,508.95q-0.86,-1.35 -2.85,-1.4a1.13,1.11 70.9 0 1 -0.85,-0.42q-0.71,-0.87 -1.93,-1q-0.5,-0.05 -0.65,-0.54q-0.29,-1 -1.32,-0.98q-0.52,0 -0.56,-0.52q-0.15,-2.44 -2.34,-3.32q-0.33,-0.13 -0.32,-0.48q0.01,-0.46 0.37,-0.44a0.3,0.3 0 0 0 0.14,-0.58q-1.25,-0.53 -2.62,-0.38q-0.13,0.01 -0.17,-0.11l-0.1,-0.32a0.28,0.28 0 0 1 0.33,-0.36q0.63,0.16 0.97,-0.35q0.28,-0.43 0.11,-0.9q-0.32,-0.89 -1.06,-1.43q-0.46,-0.34 -0.47,-0.92q-0.03,-1.4 0.58,-2.68q5.34,1.69 10.73,3.49q0.54,0.18 0.88,0q0.45,-0.25 0.59,-0.79q3.62,3.22 10.3,4.26q17.93,5.77 36.42,9.29c28,5.34 78.83,10.17 98.07,-17.19q0.66,-0.93 0.41,0.18q-0.48,2.16 -1.66,4.55c-0.8,1.6 -1.4,3.7 -2.56,5.42c-16.64,24.7 -53.77,23.95 -79.76,21.26q-27.86,-2.88 -60.68,-13.34z" id="svg_156"/>
  <path fill="#ff6dd5" d="m150.3,510.26q-5.83,-3.56 -10.87,-8.15a0.04,0.04 0 0 1 0.04,-0.06c12.95,6.3 26.09,8.45 41.28,8.51q23.26,0.08 46,-4.81q7.39,-1.59 14.79,-3.2q0.52,-0.12 0.68,0.39l3,9.43a0.38,0.37 -14.7 0 1 -0.29,0.49q-8.5,1.52 -16.95,3.05c-23.35,4.23 -48.98,5.3 -71.21,-2.54c-1.66,-0.58 -3.06,-1.35 -4.76,-1.86c-0.7,-0.21 -1.2,-0.94 -1.71,-1.25z" id="svg_157"/>
  <path fill="#ffbfeb" d="m343.35,621.42q-1.02,-0.27 -1.17,-0.6c11.69,-2.16 22.43,-9.65 30.76,-18.12c9.94,-10.11 17.43,-20.74 24.26,-33.79q10.74,-20.48 18.04,-42.53a0.79,0.78 -72.4 0 1 0.98,-0.51l9.48,2.96q0.48,0.15 0.3,0.61q-3.64,9.32 -7.34,18.5q-9.31,23.1 -24.16,43.09c-4.97,6.69 -8.72,10.08 -12.71,14.2c-2.68,2.76 -5.52,4.62 -8.51,6.8c-8.64,6.33 -19.28,9.35 -29.93,9.39z" id="svg_158"/>
  <path fill="#ff96df" d="m291.02,537.57l-0.14,2.2q-0.03,0.46 -0.28,0.85q-0.35,0.55 -0.19,1.14c0.27,0.96 0.36,1.43 0.05,2.22q-0.17,0.44 -0.09,0.92q0.27,1.57 0.07,3.15q-0.06,0.5 0.1,0.98q0.62,1.78 -0.32,3.38q-0.16,0.26 0.05,0.48q0.7,0.71 0.12,1.23q-0.39,0.35 -0.05,0.75q0.52,0.61 0.12,1.19q-0.24,0.34 -0.1,0.73q0.63,1.73 0.03,3.49q-0.16,0.44 0.1,0.84q0.36,0.57 -0.1,1.01q-0.38,0.35 -0.04,0.75q0.51,0.6 0.11,1.18q-0.24,0.34 -0.1,0.72q0.64,1.76 0.04,3.56q-0.15,0.44 0.1,0.83q0.34,0.54 -0.11,0.96q-0.38,0.35 -0.04,0.75q0.56,0.65 0.03,1.28q-0.32,0.37 -0.01,0.75q0.52,0.63 0.02,1.24q-0.31,0.37 0.01,0.73q0.51,0.56 0.09,1.13q-0.25,0.34 -0.1,0.74l1.05,2.75q0.2,0.05 0.4,0.11q-8.77,3.63 -18.23,0.04q-0.21,-1.02 -1.28,-1.16a1.05,1.05 0 0 1 -0.9,-1.16c0.24,-2.17 0.8,-4.22 0.61,-6.42c-0.51,-5.93 -0.03,-11.62 -0.23,-17.51c-0.11,-3.21 0.14,-6.39 -0.12,-9.56q-0.19,-2.34 -0.28,-4.83q9.38,-5.02 19.61,-1.44z" id="svg_159"/>
  <path fill="#ffbfeb" d="m291.02,537.57c13.02,5.69 18.79,20.67 11.04,33.03q-4.13,5.42 -10.62,8.9l-1.05,-2.75q-0.15,-0.4 0.1,-0.74q0.42,-0.57 -0.09,-1.13q-0.32,-0.36 -0.01,-0.73q0.5,-0.61 -0.02,-1.24q-0.31,-0.38 0.01,-0.75q0.53,-0.63 -0.03,-1.28q-0.34,-0.4 0.04,-0.75q0.45,-0.42 0.11,-0.96q-0.25,-0.39 -0.1,-0.83q0.6,-1.8 -0.04,-3.56q-0.14,-0.38 0.1,-0.72q0.4,-0.58 -0.11,-1.18q-0.34,-0.4 0.04,-0.75q0.46,-0.44 0.1,-1.01q-0.26,-0.4 -0.1,-0.84q0.6,-1.76 -0.03,-3.49q-0.14,-0.39 0.1,-0.73q0.4,-0.58 -0.12,-1.19q-0.34,-0.4 0.05,-0.75q0.58,-0.52 -0.12,-1.23q-0.21,-0.22 -0.05,-0.48q0.94,-1.6 0.32,-3.38q-0.16,-0.48 -0.1,-0.98q0.2,-1.58 -0.07,-3.15q-0.08,-0.48 0.09,-0.92c0.31,-0.79 0.22,-1.26 -0.05,-2.22q-0.16,-0.59 0.19,-1.14q0.25,-0.39 0.28,-0.85l0.14,-2.2z" id="svg_160"/>
  <path fill="#ff6dd5" d="m271.41,539.01q0.09,2.49 0.28,4.83c0.26,3.17 0.01,6.35 0.12,9.56c0.2,5.89 -0.28,11.58 0.23,17.51c0.19,2.2 -0.37,4.25 -0.61,6.42a1.05,1.05 0 0 0 0.9,1.16q1.07,0.14 1.28,1.16q-13.8,-6.55 -13.5,-21.9q0.23,-12.2 11.3,-18.74z" id="svg_161"/>
  <path fill="#225ba8" d="m302.06,570.6q-3.09,6.49 -10.22,9.01q-0.2,-0.06 -0.4,-0.11q6.49,-3.48 10.62,-8.9z" id="svg_162"/>
  <path fill="#ff96df" d="m323.75,586.36q0.2,0.02 0.29,0.08q6.93,4.91 15.09,7.13c1.85,0.51 3.9,0.42 5.81,0.71q0.96,0.15 0,0.28c-6.97,0.93 -14.03,0.86 -20.68,-1.55q-10.25,-3.72 -18.19,-11.29q-0.2,-0.19 -0.04,-0.41l4.89,-6.57q0.15,-0.21 0.33,-0.03l11.9,11.38q0.25,0.25 0.6,0.27z" id="svg_163"/>
  <path fill="#225ba8" d="m342.18,620.82q0.15,0.33 1.17,0.6l-2.51,0q-1.14,0 -0.04,-0.27l1.38,-0.33z" id="svg_164"/>
 </g>

</svg>