<svg width="1424" height="536" xmlns="http://www.w3.org/2000/svg" version="1.1">
 <g>
  <title>Layer 1</title>
  <path id="svg_78" d="m318.22,217.33q0.17,-0.46 -0.41,-1.04q-0.22,-0.22 0.07,-0.35q0.23,-0.1 0.34,-0.32q0.05,-0.1 -0.05,-0.16q-0.04,-0.03 -0.08,-0.05q-0.05,-0.02 -0.06,-0.16q-0.05,-0.83 0.52,-1.32q0.41,-0.34 0.09,-0.77q-0.24,-0.34 -0.61,-0.29q-0.48,0.08 -0.76,-0.31q-0.47,-0.64 0.23,-1.31q0.81,-0.77 0.58,-1.78q-0.09,-0.39 0.18,-0.7l0.91,-1.06l28.22,18.02a0.41,0.41 0 0 0 0.63,-0.38c-2.87,-39.5 -10.82,-80.56 -25.7,-117.14c-7.22,-17.74 -17.84,-36 -32.87,-48.66c-5.73,-4.83 -14.47,-9.61 -22.32,-9.41q-0.18,0 -0.19,-0.17l0,0q-0.01,-0.18 0.16,-0.2c15.32,-1.83 26.85,4.39 37.12,15.01q11.97,12.38 19.81,27.73q14.31,28.01 21.16,58.99a1.07,1.07 0 0 0 1.35,0.8q23.85,-7.1 48.96,-9.3c18.3,-1.61 42.99,0.35 57.37,13.45q1.31,1.2 -0.26,0.38c-16.02,-8.32 -33.95,-8.33 -51.65,-7.06c-17.58,1.27 -35.81,5.5 -52.78,10.57q-0.72,0.21 -0.55,0.94q7.63,34.59 9.59,69.96a2.79,2.77 -74.2 0 0 1.17,2.11q23.03,16.18 43.81,35.15a0.7,0.7 0 0 0 0.97,-0.03q9.37,-9.56 17.58,-20.14q0.42,-0.53 0.88,-0.04q3.27,3.54 7.77,5.29q0.48,0.18 0.14,0.56c-6.44,7.12 -12.56,14.31 -19.33,21a0.89,0.89 0 0 0 0.02,1.28c25.41,23.91 71.73,76.11 53.11,114.41q-0.6,1.23 -0.32,-0.11c3.94,-18.73 -4.1,-38.83 -13.91,-54.56c-21.12,-33.85 -50.48,-60.37 -81.19,-84.83q-18.21,-14.5 -49.7,-34z" fill="#0fa2ca"/>
  <path id="svg_79" d="m216,161.39q-4.41,-0.6 -7.87,-2.37c2.92,-13.48 7.46,-27.68 12.31,-39.68c6.19,-15.31 19.8,-40.65 36.66,-46.27c4.07,-1.36 9.88,-2.47 14.21,-1.33q0.61,0.16 0.01,0.35q-0.39,0.12 -0.76,0.08c-1.87,-0.19 -6.19,1.44 -7.83,2.43c-2.8,1.69 -5.09,3.06 -7.65,5.49c-1.29,1.23 -3.05,2.28 -4.2,3.49q-10.32,10.95 -16.66,24.66c-7.8,16.88 -12.57,30.48 -15.74,43.75q-1.72,7.22 -2.48,9.4z" fill="#1f64ac"/>
  <circle id="svg_80" r="17.1" cy="157.55" cx="143.36" fill="#1781ba"/>
  <path id="svg_81" d="m208.13,159.02q3.46,1.77 7.87,2.37q27.1,8.36 52.45,20.16a3,3 0 0 0 2.59,-0.02q27.8,-13.59 56.99,-23.86q0.16,-0.06 0.2,0.11l1.97,8.01q0.08,0.3 -0.22,0.41q-24.5,9.14 -48.06,20.52a0.51,0.51 0 0 0 -0.02,0.91l37.27,20.08l-0.91,1.06q-0.27,0.31 -0.18,0.7q0.23,1.01 -0.58,1.78q-0.7,0.67 -0.23,1.31q0.28,0.39 0.76,0.31q0.37,-0.05 0.61,0.29q0.32,0.43 -0.09,0.77q-0.57,0.49 -0.52,1.32q0.01,0.14 0.06,0.16q0.04,0.02 0.08,0.05q0.1,0.06 0.05,0.16q-0.11,0.22 -0.34,0.32q-0.29,0.13 -0.07,0.35q0.58,0.58 0.41,1.04c-46.31,-27.12 -97.16,-49.1 -150.05,-57.43q-0.21,-0.03 -0.24,-0.25l-1,-8.75q-0.03,-0.22 0.19,-0.18q20.71,3.04 41.01,8.3z" fill="#1781ba"/>
  <path id="svg_82" d="m91.38,178.53c4.47,-13.84 14.89,-20.19 27.65,-25.17a0.19,0.18 80.6 0 1 0.25,0.18l-0.3,7.17q-0.01,0.24 -0.24,0.31c-7.33,2.29 -13.93,4.81 -19.93,9.75c-2.63,2.17 -4.96,5.15 -7.17,7.9q-0.5,0.62 -0.26,-0.14z" fill="#1f64ac"/>
  <path id="svg_83" d="m627.97,175.34q0,-1.77 -1.13,-0.41l-35.47,42.26a1.1,1.1 0 0 1 -1.69,0l-35.7,-42.64q-0.52,-0.63 -0.52,0.19l0.09,68.87q0,0.92 -0.92,0.9l-9.28,-0.12q-0.57,-0.01 -0.57,-0.58l0,-81.06q0,-0.56 0.56,-0.59q3.93,-0.18 11.65,-0.08q1.98,0.02 2.84,1.06q16.06,19.42 32.44,38.42a0.35,0.34 -45.6 0 0 0.52,-0.01l32.77,-38.71a2.41,2.39 -69.4 0 1 1.85,-0.85l12.37,0.07a0.55,0.55 0 0 1 0.55,0.55l-0.01,81.03q0,0.84 -0.83,0.84l-8.74,0.03q-0.76,0 -0.76,-0.76l-0.02,-68.41z" fill="#1f64ac"/>
  <path id="svg_84" d="m659.5,214.56l-0.01,29.34q0,0.65 -0.64,0.64l-9.09,-0.14q-0.63,-0.01 -0.63,-0.63l0.01,-80.65q0,-1.07 1.07,-1.07q35.98,-0.08 71.22,-0.01q3.46,0.01 6.72,3.32c4.07,4.12 4.75,6.44 4.76,12.58q0.02,9.86 0,19.73q-0.01,5.49 -1.35,8.45q-3.59,7.96 -13.31,8.11q-14.65,0.23 -58.3,-0.11q-0.45,-0.01 -0.45,0.44zm63.22,-38.41a4.4,4.4 0 0 0 -4.4,-4.4l-54.42,0a4.4,4.4 0 0 0 -4.4,4.4l0,23.7a4.4,4.4 0 0 0 4.4,4.4l54.42,0a4.4,4.4 0 0 0 4.4,-4.4l0,-23.7z" fill="#0fa2ca"/>
  <path id="svg_85" d="m753.75,171.75c-2.45,0.01 -3.71,2.09 -3.72,4.25q-0.08,16.52 -0.01,53.75c0.01,4.34 2.14,5.08 6.12,5.07q33.31,-0.13 67.05,0.02q0.24,0.01 0.24,0.24l0.14,9.1q0,0.29 -0.29,0.29q-36.55,0.08 -71.78,0.04c-4.97,-0.01 -9.78,-5.03 -11.19,-9.73q-0.64,-2.13 -0.65,-7.61q-0.03,-25.33 0.04,-50.67c0.02,-6.59 4.46,-14.27 11.8,-14.32q34.75,-0.22 71.59,-0.11a0.41,0.4 90 0 1 0.4,0.41l-0.01,8.93a0.34,0.33 0 0 1 -0.34,0.33q-34.87,0.01 -69.39,0.01z" fill="#0fa2ca"/>
  <path id="svg_86" d="m875.96,234.78l72.12,0a0.57,0.57 0 0 1 0.57,0.56l0.14,8.58a0.57,0.57 0 0 1 -0.57,0.58l-82.93,0.01a0.57,0.57 0 0 1 -0.57,-0.57l-0.01,-81.29a0.57,0.57 0 0 1 0.57,-0.57l9.6,-0.03a0.57,0.57 0 0 1 0.57,0.57l-0.06,71.59a0.57,0.57 0 0 0 0.57,0.57z" fill="#1f64ac"/>
  <path id="svg_87" d="m964.73,215.66l0.07,28.18q0,0.64 -0.64,0.64l-9.27,-0.03q-0.67,0 -0.67,-0.67q0.14,-42.48 0.02,-67.03q-0.06,-10.42 9.25,-14.35q1.05,-0.44 5.26,-0.43q28.38,0.03 56.75,0.06c6.8,0.01 11.98,5.93 12.02,12.57q0.22,34.63 0.21,69.27q0,0.68 -0.67,0.67l-9.13,-0.14q-0.71,-0.01 -0.7,-0.72l0.13,-28.66a0.67,0.67 0 0 0 -0.67,-0.67l-60.6,-0.04q-1.36,0 -1.36,1.35zm62.58,-42.37a1.51,1.51 0 0 0 -1.51,-1.51l-59.5,0a1.51,1.51 0 0 0 -1.51,1.51l0,29.9a1.51,1.51 0 0 0 1.51,1.51l59.5,0a1.51,1.51 0 0 0 1.51,-1.51l0,-29.9z" fill="#0fa2ca"/>
  <path id="svg_88" d="m1129.01,201.18c3.02,2.83 4.47,5.8 4.5,10.2q0.07,9.5 -0.02,18.99q-0.04,4.34 -1.36,6.84c-2.86,5.43 -7.06,7.31 -13.38,7.31q-33.63,0 -67.78,-0.02q-1.23,0 -1.23,-1.23l0,-80.43a0.52,0.51 85.4 0 1 0.43,-0.51q1.92,-0.36 3.83,-0.36q31.75,0.03 63.5,0c5.1,0 9.8,3.74 11.56,8.28q0.95,2.46 0.95,8.61c0,5.99 1.1,15.18 -1.34,20.63a1.49,1.48 -56.6 0 0 0.34,1.69zm-9.52,-25.81a3.63,3.63 0 0 0 -3.63,-3.63l-51.74,0a3.63,3.63 0 0 0 -3.63,3.63l0,18.48a3.63,3.63 0 0 0 3.63,3.63l51.74,0a3.63,3.63 0 0 0 3.63,-3.63l0,-18.48zm3.77,35.78a3.58,3.58 0 0 0 -3.58,-3.58l-55.62,0a3.58,3.58 0 0 0 -3.58,3.58l0,20.06a3.58,3.58 0 0 0 3.58,3.58l55.62,0a3.58,3.58 0 0 0 3.58,-3.58l0,-20.06z" fill="#0fa2ca"/>
  <path id="svg_92" d="m443.61,206.18c3.57,-10.5 2.9,-23.25 -4.31,-32.2q-1.28,-1.59 0.45,-0.49c13.8,8.77 15.59,21.31 13.23,36.85a0.45,0.45 0 0 1 -0.62,0.35l-8.23,-3.38a0.91,0.91 0 0 1 -0.52,-1.13z" fill="#0fa2ca"/>
  <path id="svg_93" d="m207.89,218.52q-1.56,6.46 -1.01,13.16q-0.42,0.91 -0.45,1.57c-1.46,29.26 -0.24,56.21 2.21,83.08q0.11,1.25 1.37,2.16q15.6,11.23 32.03,21.19l-0.42,0.86a0.16,0.16 0 0 0 0.23,0.2q0.24,-0.17 0.27,-0.05q0.02,0.16 -0.14,0.34q-0.21,0.23 -0.49,0.34q-0.48,0.18 -0.04,0.45q0.14,0.09 0.31,0.1q0.31,0.01 0.36,0.32q0.13,0.7 -0.62,0.64a0.74,0.74 0 0 0 -0.78,0.92q0.32,1.24 1.38,1.34a0.44,0.44 0 0 1 0.27,0.75l-0.47,0.47a0.72,0.71 58.2 0 0 -0.17,0.76q0.71,2.02 0.38,3.18q-39.68,-23.11 -73.95,-53.19c-22.7,-19.93 -75.87,-74.73 -57.4,-108.57q0.81,-1.48 0.56,0.19q-1.88,12.91 3.08,25.6c7.39,18.89 19.82,35.98 33.6,50.6a0.88,0.88 0 0 0 1.23,0.05q16.32,-14.87 33.75,-28.44a0.23,0.22 72.6 0 1 0.36,0.19l-0.61,11.94a1.73,1.73 0 0 1 -0.59,1.21l-25.67,22.65a0.75,0.74 -43.2 0 0 -0.04,1.09q19.94,20.12 42.7,36.99a0.2,0.19 -74.6 0 0 0.31,-0.18c-2.56,-24.09 -2.67,-47.98 -2.02,-72.18c0.54,-20.31 3.42,-40.86 6.56,-60.89q0.03,-0.23 0.26,-0.16l8.05,2.28q0.28,0.08 0.23,0.37q-3.26,19 -4.99,38.16q-0.07,0.73 0.36,0.51z" fill="#1f64ac"/>
  <path id="svg_94" d="m206.88,231.68q-0.55,-6.7 1.01,-13.16q20.49,-13.79 41.67,-25.51a0.58,0.57 -48 0 1 0.49,-0.03l10.8,4.64a0.09,0.09 0 0 1 0.01,0.16q-27.93,14.96 -53.98,33.9z" fill="#1781ba"/>
  <circle id="svg_96" r="17.08" cy="231.51" cx="439.3" fill="#1781ba"/>
  <circle id="svg_97" r="30.17" cy="275.7" cx="270.58" fill="#1781ba"/>
  <path id="svg_98" d="m344.45,386.12q-3.23,-0.86 -6.26,-1.94c-1.24,-0.45 -1.5,-1.23 -1.31,-2.44q1.87,-7.19 2.39,-9.74q5.59,-27.5 6.98,-42.5c0.89,-9.58 2.08,-19.32 2.56,-28.68c0.91,-17.54 1.04,-34.57 0.67,-52.08a0.18,0.18 0 0 1 0.29,-0.15l8.38,6.25q0.24,0.17 0.26,0.47q0.24,3.17 0.23,12.44q-0.03,20.39 -1.53,40.48a0.41,0.41 0 0 0 0.66,0.36q16.58,-12.43 31.72,-26.58a0.37,0.36 45.6 0 1 0.5,0.01l6.23,6.09q0.21,0.21 -0.01,0.41q-18.71,17 -39.1,31.64c-0.87,0.63 -1.07,1.29 -1.16,2.28c-1.91,21.34 -5.69,43.13 -11.5,63.68z" fill="#0fa2ca"/>
  <path id="svg_99" d="m103.76,396.52q0.39,0.42 0.57,0.94q0.06,0.17 -0.09,0.08c-18.88,-10.88 -20.9,-32.03 -14.22,-51.02c8.43,-23.98 24.71,-45.28 41.36,-63.67q0.35,-0.39 0.72,-0.01l6.83,7.02a0.56,0.55 -45.4 0 1 0,0.77c-19.99,20.82 -48.61,58.94 -43.42,89.11q1.65,9.65 8.25,16.78z" fill="#1f64ac"/>
  <path id="svg_100" d="m556.57,313.68l22.88,0.04a0.77,0.77 0 0 1 0.77,0.76l0.04,3.54a0.77,0.77 0 0 1 -0.76,0.78l-22.91,0.21a0.77,0.77 0 0 0 -0.76,0.77l0.01,9.75a0.77,0.77 0 0 0 0.77,0.77l28.83,-0.05a0.77,0.77 0 0 1 0.77,0.76l0.07,3.25a0.77,0.77 0 0 1 -0.77,0.78l-34.53,0a0.77,0.77 0 0 1 -0.77,-0.77l0.04,-36.6a0.77,0.77 0 0 1 0.77,-0.77l34.48,0.03a0.77,0.77 0 0 1 0.77,0.81l-0.21,3.6a0.77,0.77 0 0 1 -0.76,0.72l-28.69,0.06a0.77,0.77 0 0 0 -0.77,0.77l-0.04,10.02a0.77,0.77 0 0 0 0.77,0.77z" fill="#000000"/>
  <path id="svg_101" d="m743.65,296.88a7.39,7.39 0 0 1 7.39,7.39l0,23.78a7.03,6.1 -90 0 1 -6.1,7.03l-27.06,0a7.03,6.1 -90 0 1 -6.1,-7.03l0,-23.78a7.39,7.39 0 0 1 7.39,-7.39l24.48,0zm1.6973,6.3356a1.1,1.1 0 0 0 -1.1019,-1.0981l-25.8199,0.0451a1.1,1.1 0 0 0 -1.0981,1.1019l0.0453,25.9399a1.1,1.1 0 0 0 1.1019,1.0981l25.8199,-0.0451a1.1,1.1 0 0 0 1.0981,-1.1019l-0.0453,-25.9399z" fill="#000000"/>
  <path id="svg_102" d="m793.63,305.36c-2.58,9.68 -6.58,19.27 -10.05,28.7q-0.36,1 -1.41,1.01c-1.21,0.01 -2.5,0.15 -3.54,-0.25q-0.49,-0.18 -0.66,-0.67l-13.04,-35.92q-0.44,-1.22 0.86,-1.24l2.95,-0.05q1.44,-0.03 1.93,1.32l9.92,27.16q0.42,1.16 0.78,-0.02q0.17,-0.54 0.12,-1.13a1.35,1.25 55.4 0 1 0.07,-0.48l9.37,-25.82a1.39,1.38 4.6 0 1 1.03,-0.87q2.5,-0.49 4.97,0.05q0.59,0.12 0.8,0.69l9.95,27.85q0.19,0.53 0.38,0l10,-27.92a1.24,1.24 0 0 1 1.21,-0.83l4.12,0.1a0.59,0.59 0 0 1 0.54,0.8l-13.29,36.43q-0.13,0.37 -0.49,0.52c-0.95,0.41 -2.32,0.31 -3.5,0.29q-1.29,-0.01 -1.67,-1.07q-5.17,-14.55 -10.45,-28.7q-0.52,-1.37 -0.9,0.05z" fill="#000000"/>
  <path id="svg_103" d="m844.57,330.29l28.89,-0.03a0.77,0.77 0 0 1 0.77,0.76l0.07,3.24a0.77,0.77 0 0 1 -0.77,0.78l-34.54,0.01a0.77,0.77 0 0 1 -0.77,-0.77l0.01,-36.64a0.77,0.77 0 0 1 0.77,-0.77l34.52,0.1a0.77,0.77 0 0 1 0.77,0.8l-0.15,3.54a0.77,0.77 0 0 1 -0.77,0.74l-28.75,0.09a0.77,0.77 0 0 0 -0.77,0.77l-0.03,9.99a0.77,0.77 0 0 0 0.77,0.77l22.89,0.05a0.77,0.77 0 0 1 0.77,0.77l0.02,3.53a0.77,0.77 0 0 1 -0.77,0.78l-22.88,0.22a0.77,0.77 0 0 0 -0.76,0.77l-0.06,9.73a0.77,0.77 0 0 0 0.77,0.77z" fill="#000000"/>
  <path id="svg_104" d="m1051.74,319.61l-7.15,0.13q-1.83,0.03 -1.83,-1.81l0,-1.02q0,-1.83 1.83,-1.84l12.6,-0.05a0.48,0.48 0 0 1 0.48,0.48q-0.1,7.11 -0.14,14.26q-0.04,5.2 -5.78,5.24q-18.44,0.13 -27.5,0.01c-5.25,-0.07 -5.35,-4.98 -5.35,-9.03q0,-10.57 0.04,-21.14c0.02,-5.39 2.48,-7.72 7.63,-7.86q14.92,-0.43 24.42,0.13q7.29,0.43 6.5,7.72q-0.05,0.5 -0.54,0.6q-1.7,0.38 -3.41,0.12a0.85,0.85 0 0 1 -0.68,-0.58l-0.62,-1.83a1.37,1.37 0 0 0 -1.3,-0.94l-25.35,-0.12a1.33,1.33 0 0 0 -1.34,1.33l0.01,25.61a1.26,1.26 0 0 0 1.26,1.26l26.27,-0.02a0.55,0.55 0 0 0 0.55,-0.55l0.05,-9.46a0.64,0.64 0 0 0 -0.65,-0.64z" fill="#000000"/>
  <path id="svg_105" d="m1102.93,303.77l0.17,30.68q0.01,0.58 -0.57,0.57l-4.49,-0.13q-0.36,-0.01 -0.36,-0.37l0.06,-36.8q0,-0.5 0.49,-0.59q2.89,-0.49 5.76,-0.03q0.56,0.08 0.91,0.51l14.35,17.27q0.4,0.48 0.8,0l14.49,-17.46q0.38,-0.46 0.98,-0.46l5.6,-0.02q0.67,0 0.68,0.68l0.08,36.71a0.69,0.69 0 0 1 -0.71,0.69l-4.27,-0.07a0.72,0.71 -89.6 0 1 -0.7,-0.72l0.11,-29.23q0.01,-2.34 -1.08,-0.27q-0.57,1.1 -1.73,2.5q-6.4,7.73 -13.13,15.22a1.05,1.05 0 0 1 -1.59,-0.04l-15.48,-18.77a0.21,0.21 0 0 0 -0.37,0.13z" fill="#000000"/>
  <path id="svg_106" d="m1183.77,304.08c0,0.89 0.4,1.95 0.39,2.89q-0.17,13.85 0.04,27.54a0.45,0.45 0 0 1 -0.45,0.46l-4.25,0.03q-0.34,0 -0.34,-0.34l0.02,-37.08a0.54,0.54 0 0 1 0.46,-0.53c2.11,-0.33 5.51,-0.63 7.07,1.25c4.34,5.23 8.37,10.31 13.06,15.6q6.21,6.99 11.82,14.16q0.78,1.01 0.83,-0.27c0.03,-0.84 -0.43,-1.86 -0.43,-2.73q0.07,-13.83 -0.05,-27.38q0,-0.58 0.57,-0.59l4.71,-0.12a0.51,0.5 88.9 0 1 0.52,0.51l0.02,37.02q0,0.52 -0.51,0.52l-6.18,-0.03q-0.66,0 -1.09,-0.51l-25.49,-30.66q-0.72,-0.86 -0.72,0.26z" fill="#000000"/>
  <path id="svg_107" d="m1272,329.18c0,2.87 -1.87,5.6 -5.01,5.66q-16.51,0.28 -33,0.19a0.54,0.54 0 0 1 -0.54,-0.54l0.02,-36.74q0,-0.76 0.75,-0.77q15.22,-0.24 30.78,-0.04c4.81,0.06 7.01,3.1 7.01,7.83q-0.01,12.21 -0.01,24.41zm-5.32,-26.03a1.04,1.04 0 0 0 -1.04,-1.04l-25.94,0a1.04,1.04 0 0 0 -1.04,1.04l0,26.08a1.04,1.04 0 0 0 1.04,1.04l25.94,0a1.04,1.04 0 0 0 1.04,-1.04l0,-26.08z" fill="#000000"/>
  <path id="svg_108" d="m1292.1,312.76a0.94,0.94 0 0 0 0.94,0.94q13.24,-0.11 26.2,0.03c7.73,0.08 6.18,11.62 5.88,16.31c-0.27,4.42 -4.44,5.32 -8.62,5.25q-11.31,-0.19 -22.61,-0.24c-4.79,-0.02 -7.03,-1.6 -7.53,-6.37q-0.17,-1.58 1.42,-1.58l2.92,0q1.62,0 1.57,1.62q-0.06,1.75 0.73,1.73q12.82,-0.27 25.36,-0.17a1.77,1.76 0.3 0 0 1.78,-1.75l0.04,-8.04a1.55,1.55 0 0 0 -1.56,-1.56q-11.82,0.14 -23.74,-0.1c-9.45,-0.19 -8.48,-6.14 -8.43,-13.31c0.04,-5.87 2.24,-8.42 8.01,-8.55q11.78,-0.27 23.54,-0.05c4.44,0.09 8.17,3.2 7,7.96q-0.14,0.56 -0.7,0.7q-1.51,0.36 -3.02,0a0.87,0.85 -4.8 0 1 -0.59,-0.49l-1.06,-2.35q-0.23,-0.53 -0.82,-0.53l-25.56,-0.12a1.16,1.15 -89.8 0 0 -1.16,1.16l0.01,9.51z" fill="#000000"/>
  <path id="svg_109" d="m639.39,304.54q0.01,-0.6 -0.39,-0.14l-15.41,18.11q-0.79,0.92 -1.56,-0.01l-15.48,-18.65q-0.52,-0.63 -0.52,0.19l0.21,30.23q0.01,0.77 -0.76,0.75l-3.9,-0.1q-0.82,-0.02 -0.82,-0.84l0.03,-36.16q0,-0.56 0.54,-0.71q2.38,-0.64 4.73,-0.23q1.75,0.31 3.2,2.08q6.6,8.02 13.18,15.91q0.31,0.37 0.62,0q7.19,-8.58 14.37,-17.29q0.64,-0.78 1.85,-0.77c1.7,0.02 3.48,-0.07 5.16,0.15q0.56,0.08 0.56,0.65l-0.01,36.79a0.49,0.49 0 0 1 -0.49,0.49l-4.68,-0.02a0.53,0.52 0.6 0 1 -0.52,-0.52l0.09,-29.91z" fill="#000000"/>
  <path id="svg_110" d="m665.31,321.77l0.11,12.52q0.01,0.71 -0.71,0.71l-3.69,-0.01q-0.71,0 -0.71,-0.72l-0.02,-36.77a0.28,0.27 -1.1 0 1 0.27,-0.27q15.18,-0.14 30.44,-0.08c5.43,0.02 7.91,2.15 8.02,7.67q0.16,7.77 -0.04,10.68q-0.36,5.47 -6.23,5.48q-13.27,0.03 -26.68,0.02a0.76,0.76 0 0 0 -0.76,0.77zm28.09,-17.79a1.78,1.78 0 0 0 -1.78,-1.78l-24.48,0a1.78,1.78 0 0 0 -1.78,1.78l0,11.12a1.78,1.78 0 0 0 1.78,1.78l24.48,0a1.78,1.78 0 0 0 1.78,-1.78l0,-11.12z" fill="#000000"/>
  <path id="svg_111" d="m894.32,321.48l0.2,12.5q0.01,1.01 -1,1.01l-3.05,0q-1.01,0 -1.01,-1.02l0,-36.44a0.29,0.29 0 0 1 0.29,-0.29q15.54,-0.08 31.14,-0.12c5.12,-0.02 7.04,3.27 7.12,8.16c0.1,5.39 1.24,13.17 -3.35,15.13c-2.04,0.88 -5.3,0.59 -7.86,0.87a0.63,0.62 63.2 0 0 -0.35,1.08c3.96,3.64 7.03,7.59 10.57,11.41a0.69,0.69 0 0 1 -0.47,1.15l-3.86,0.2a3.71,3.7 -20.9 0 1 -3.05,-1.36l-9.73,-11.91q-0.71,-0.87 -1.82,-0.86l-13.32,0.02a0.46,0.46 0 0 0 -0.45,0.47zm28.03,-17.7144a1.61,1.61 0 0 0 -1.6128,-1.6071l-24.7,0.0431a1.61,1.61 0 0 0 -1.6072,1.6128l0.02,11.46a1.61,1.61 0 0 0 1.6128,1.6071l24.7,-0.0431a1.61,1.61 0 0 0 1.6072,-1.6128l-0.02,-11.46z" fill="#000000"/>
  <rect id="svg_112" rx="0.55" height="37.94" width="5.74" y="297.02" x="942.76" fill="#000000"/>
  <path id="svg_113" d="m969.83,303.74l0.22,30.5q0,0.79 -0.79,0.77l-3.84,-0.06q-0.89,-0.02 -0.89,-0.9l0,-36.43q0,-0.62 0.62,-0.62l5.68,-0.05a0.91,0.9 -19.4 0 1 0.7,0.33c8.37,10.21 17.22,19.98 25.36,30.36q1.11,1.41 1.11,-0.39l0.04,-29.79a0.5,0.49 0 0 1 0.5,-0.49l4.38,0.01q0.39,0 0.39,0.39l-0.02,37.28q0,0.39 -0.4,0.39l-6.27,-0.04q-0.47,-0.01 -0.77,-0.37l-25.72,-31a0.17,0.17 0 0 0 -0.3,0.11z" fill="#000000"/>
  <rect id="svg_114" rx="0.55" height="38.02" width="5.22" y="296.98" x="1157.02" fill="#000000"/>
  <path id="svg_119" d="m336.88,381.74c-0.19,1.21 0.07,1.99 1.31,2.44q3.03,1.08 6.26,1.94q13.87,4.07 28.06,6.81c20.11,3.88 60.09,7.48 73,-12.79q1.53,-2.39 0.7,0.32c-8.86,28.97 -54.02,25.61 -75.97,21.36c-45.28,-8.77 -88.78,-27.88 -128.13,-51.52q0.33,-1.16 -0.38,-3.18a0.72,0.71 58.2 0 1 0.17,-0.76l0.47,-0.47a0.44,0.44 0 0 0 -0.27,-0.75q-1.06,-0.1 -1.38,-1.34a0.74,0.74 0 0 1 0.78,-0.92q0.75,0.06 0.62,-0.64q-0.05,-0.31 -0.36,-0.32q-0.17,-0.01 -0.31,-0.1q-0.44,-0.27 0.04,-0.45q0.28,-0.11 0.49,-0.34q0.16,-0.18 0.14,-0.34q-0.03,-0.12 -0.27,0.05a0.16,0.16 0 0 1 -0.23,-0.2l0.42,-0.86q19.39,11.67 34.03,18.74q0.89,0.43 2.28,-0.28c23.91,-12.22 42.89,-23.63 59.52,-35.13a0.24,0.24 0 0 1 0.37,0.24l-1.41,10.2a2,1.99 77.7 0 1 -0.88,1.38q-23.49,15.5 -48.46,28.48a0.44,0.44 0 0 0 0.02,0.78q23.54,11.03 48.2,19.27q0.45,0.15 0.74,-0.23q0.37,-0.48 0.43,-1.39z" fill="#1781ba"/>
  <path id="svg_120" d="m1340.56,341.33l-0.1,-10.12a0.98,0.98 0 0 1 1.01,-0.99l4.05,0.1a0.98,0.98 0 0 1 0.95,1.08l-0.77,7.68a0.98,0.98 0 0 1 -0.39,0.7l-3.19,2.33a0.98,0.98 0 0 1 -1.56,-0.78z" fill="#000000"/>
  <path id="svg_121" d="m221.57,382q0.59,4.72 2.99,8.15q-0.22,0.1 -0.29,0.57q-0.03,0.26 0.07,0.58q2.55,7.64 5.36,14.94a0.22,0.22 0 0 1 -0.17,0.29l-7.76,1.38a0.4,0.39 74 0 1 -0.44,-0.25q-12.43,-31.57 -17.68,-65.12a0.04,0.04 0 0 1 0.06,-0.04l9.85,6.58q0.25,0.17 0.31,0.48q2.94,16.17 7.17,31.43q0.14,0.52 0.53,1.01z" fill="#1f64ac"/>
  <path id="svg_122" d="m604.97,400.67q10.02,0.16 20.03,0.21q3.21,0.02 6.3,-0.47a0.93,0.93 0 0 0 0.79,-0.91l0.06,-8.97a1.2,1.19 -89.8 0 0 -1.19,-1.21q-13.1,-0.05 -25.46,-0.07c-5.63,-0.01 -7,-3.99 -7.03,-9.06c-0.05,-7.62 -0.58,-12.89 9.28,-12.91q9.12,-0.03 18.25,0c5.31,0.02 12.51,0.35 11.03,8.11a0.91,0.91 0 0 1 -0.88,0.74l-2.8,0.01a0.76,0.75 -6.2 0 1 -0.74,-0.59q-0.29,-1.3 -1.01,-2.42a1.08,1.07 -15.7 0 0 -0.89,-0.5l-25.63,-0.17a0.97,0.96 -89.4 0 0 -0.97,0.96l-0.06,9.36a1.28,1.27 89.8 0 0 1.28,1.28q12.44,-0.05 24.66,0c3.99,0.02 6.8,1.88 7.1,6.11q0.48,6.8 0.12,9.86c-0.71,5.92 -4.62,5.37 -9.91,5.42q-11.39,0.11 -22.81,0.1c-3.73,-0.01 -6.25,-3.28 -6.22,-6.93q0,-0.63 0.61,-0.79q2.47,-0.66 4.84,0.19q0.56,0.2 0.62,0.79l0.15,1.42q0.05,0.43 0.48,0.44z" fill="#000000"/>
  <path id="svg_123" d="m658.1,384.03l27.8,0a0.58,0.58 0 0 0 0.58,-0.58l-0.04,-15.47a0.58,0.58 0 0 1 0.56,-0.58l4.14,-0.17a0.58,0.58 0 0 1 0.6,0.58l-0.01,36.95a0.58,0.58 0 0 1 -0.58,0.58l-4.13,-0.03a0.58,0.58 0 0 1 -0.58,-0.58l0.07,-14.89a0.58,0.58 0 0 0 -0.58,-0.58l-27.84,0.08a0.58,0.58 0 0 0 -0.58,0.58l0.05,14.89a0.58,0.58 0 0 1 -0.59,0.59l-4.14,-0.1a0.58,0.58 0 0 1 -0.57,-0.58l-0.01,-36.66a0.58,0.58 0 0 1 0.55,-0.58l4.11,-0.24a0.58,0.58 0 0 1 0.61,0.58l0,15.63a0.58,0.58 0 0 0 0.58,0.58z" fill="#000000"/>
  <path id="svg_124" d="m740.5,392.08l-27.07,0.02a0.45,0.45 0 0 0 -0.45,0.46l0.26,11.95q0.01,0.77 -0.75,0.77l-4.45,0.04q-0.7,0.01 -0.69,-0.7q0.2,-13.92 0.11,-28.12c-0.04,-5.81 1.66,-9.06 7.79,-9.14q11.13,-0.16 22.25,-0.23c3.92,-0.02 8.49,1.37 8.48,6.12q-0.03,15.89 0.07,31.52q0.01,0.55 -0.54,0.54l-4.04,-0.04q-0.53,-0.01 -0.52,-0.54l0.21,-11.98q0.01,-0.67 -0.66,-0.67zm0.611,-18.4455a1.08,1.08 0 0 0 -1.0781,-1.0819l-25.88,-0.0452a1.08,1.08 0 0 0 -1.0818,1.0781l-0.0221,12.64a1.08,1.08 0 0 0 1.0781,1.0819l25.88,0.0452a1.08,1.08 0 0 0 1.0818,-1.0781l0.0221,-12.64z" fill="#000000"/>
  <rect id="svg_125" rx="0.52" height="37.82" width="5.72" y="367.44" x="813.71" fill="#000000"/>
  <path id="svg_126" d="m841.08,374.3l0.24,30.66a0.33,0.32 -0.8 0 1 -0.33,0.33l-4.99,-0.08a0.24,0.24 0 0 1 -0.24,-0.24l0.05,-36.73a0.68,0.67 83.6 0 1 0.52,-0.66c3.6,-0.79 5.54,-0.83 8.09,2.17q12.29,14.46 24.33,28.67q0.54,0.64 0.54,-0.2l-0.01,-29.91q0,-0.9 0.9,-0.91l3.53,-0.03q0.85,0 0.85,0.84l-0.03,36.41a0.59,0.58 85.4 0 1 -0.49,0.58q-3.13,0.56 -6.27,0.03q-0.58,-0.11 -0.97,-0.57l-25.33,-30.5a0.22,0.22 0 0 0 -0.39,0.14z" fill="#000000"/>
  <path id="svg_127" d="m923.13,390.06l-7.53,0q-1.72,0 -1.62,-1.71l0.07,-1.17q0.1,-1.66 1.77,-1.67l12.57,-0.03q0.56,0 0.55,0.56q-0.11,6.93 -0.26,13.69q-0.12,5.67 -5.74,5.71q-11.28,0.1 -22.55,0.01c-6.04,-0.04 -10.18,0.27 -10.18,-6.81q0,-11.89 -0.01,-23.74c-0.01,-4.51 2.35,-7.31 6.81,-7.45q9.84,-0.33 22.49,-0.04c4.86,0.11 10.48,1.29 9.15,7.8q-0.1,0.5 -0.59,0.62q-3.79,0.92 -4.85,-2.56q-0.14,-0.46 -0.62,-0.47l-25.38,-0.4q-1.68,-0.03 -1.68,1.66l-0.01,25.48a1.19,1.19 0 0 0 1.19,1.19l25.62,0.02a1.34,1.33 0 0 0 1.34,-1.33l0.03,-8.79a0.57,0.57 0 0 0 -0.57,-0.57z" fill="#000000"/>
  <path id="svg_128" d="m974.2,373.2l0.07,10.2a0.63,0.63 0 0 0 0.62,0.63l23.08,0.18a0.63,0.63 0 0 1 0.63,0.63l0.03,3.63a0.63,0.63 0 0 1 -0.62,0.64l-23.2,0.26a0.63,0.63 0 0 0 -0.62,0.64l0.18,14.68a0.63,0.63 0 0 1 -0.63,0.64l-4.52,0.02a0.63,0.63 0 0 1 -0.63,-0.63l0.01,-36.81a0.63,0.63 0 0 1 0.63,-0.63l34.76,0.21a0.63,0.63 0 0 1 0.62,0.61l0.08,3.64a0.63,0.63 0 0 1 -0.63,0.64l-29.23,0.19a0.63,0.63 0 0 0 -0.63,0.63z" fill="#000000"/>
  <path id="svg_129" d="m1050.55,400.08l0.02,-31.7q0,-0.94 0.94,-0.98l3.23,-0.15q1,-0.04 1,0.95q0.08,15.62 -0.03,31.8c-0.04,5.55 -4.58,5.38 -9.27,5.43q-11.1,0.11 -22.2,0q-7.09,-0.07 -7.17,-6.69q-0.18,-15.45 -0.24,-30.61q-0.01,-0.65 0.65,-0.66l4.55,-0.01a0.58,0.57 0 0 1 0.58,0.57l-0.08,31.73a0.98,0.97 0.3 0 0 0.98,0.98l26.37,0a0.67,0.66 0 0 0 0.67,-0.66z" fill="#000000"/>
  <path id="svg_130" d="m1091.48,373.01l0.07,31.5q0,0.82 -0.82,0.81l-4.59,-0.09a0.55,0.54 -85.8 0 1 -0.53,-0.62q0.12,-0.84 0.12,-2.11q0.03,-14.69 0.4,-29.38q0.01,-0.61 -0.6,-0.61l-14.9,-0.02q-1.62,0 -1.62,-1.61l-0.01,-1.71q-0.01,-1.84 1.83,-1.84l36.12,0.02a1.07,1.07 0 0 1 1.07,1.1l-0.09,2.98q-0.03,1.07 -1.11,1.07l-14.83,0q-0.51,0 -0.51,0.51z" fill="#000000"/>
  <path id="svg_131" d="m1127.53,400.73l26.22,0.02a1.26,1.25 -89.8 0 0 1.25,-1.25l0.02,-31.33a0.8,0.79 0.4 0 1 0.81,-0.79l3.68,0.03q0.73,0.01 0.73,0.73q0.06,15.6 -0.06,31.76q-0.04,5.56 -6.24,5.58q-12.61,0.06 -25.2,-0.04q-7.57,-0.05 -7.55,-7.19q0.04,-15.22 0.11,-30.08q0,-0.72 0.73,-0.73l4,-0.03a0.87,0.87 0 0 1 0.87,0.87l-0.04,31.78a0.67,0.67 0 0 0 0.67,0.67z" fill="#000000"/>
  <path id="svg_132" d="m1235.05,400.74l28.65,0.02q1.15,0 1.22,1.15l0.12,2.1a1.05,1.04 -5.6 0 1 -0.91,1.1q-2.44,0.33 -4.38,0.34q-13.75,0.06 -29.4,0q-0.92,-0.01 -0.92,-0.94l0,-36.58a0.7,0.7 0 0 1 0.7,-0.7l33.56,0.23q1.23,0.01 1.23,1.23l0,2.61q0.01,1.21 -1.2,1.21l-28.68,0.01a0.44,0.44 0 0 0 -0.44,0.44l0.01,10.57a0.51,0.5 -90 0 0 0.5,0.51l22.56,0.16q1.21,0.01 1.21,1.22l0.02,2.57q0.01,1.15 -1.14,1.16l-22.5,0.19a0.65,0.65 0 0 0 -0.65,0.65l0,10.31q0,0.44 0.44,0.44z" fill="#000000"/>
  <path id="svg_133" d="m1285.96,400.75l25.17,-0.02a1.86,1.86 0 0 0 1.86,-1.86l-0.02,-8.13a1.42,1.42 0 0 0 -1.42,-1.42q-12.6,-0.07 -24.55,-0.05c-8.75,0.02 -7.21,-7.08 -7.29,-12.9q-0.07,-4.4 1,-6.17q1.83,-3.05 6.43,-2.99q5.06,0.07 20.87,0.08c5.21,0.01 9.81,0.63 10.51,7.1a1.46,1.46 0 0 1 -1.39,1.62l-2.21,0.11a1.53,1.53 0 0 1 -1.55,-1.11q-0.33,-1.18 -1.19,-2.01q-0.35,-0.34 -0.85,-0.35l-25.45,-0.19a0.94,0.93 0.3 0 0 -0.94,0.92l-0.12,9.1a1.58,1.58 0 0 0 1.6,1.61q12.68,-0.11 25.32,0.02c5.13,0.06 6.55,3.78 6.54,8.47c-0.02,6.86 1.59,12.99 -8.03,12.96q-11.75,-0.03 -23.5,-0.09q-7.55,-0.03 -7.01,-7.07q0.08,-0.96 1.03,-0.89l3.44,0.26q0.89,0.06 0.99,0.95l0.15,1.51q0.06,0.54 0.61,0.54z" fill="#000000"/>
  <path id="svg_134" d="m767.01,392.89l0.23,11.42q0.02,1.02 -0.99,1.01l-4,-0.04q-1.09,-0.01 -0.8,-1.07q0.28,-1.03 0.28,-2.71q0,-16.83 0.02,-33.03a0.92,0.92 0 0 1 0.92,-0.92q15.45,0.01 29.58,0.02c3.98,0 7.82,0.74 7.94,5.67q0.24,10.12 0.09,12.8c-0.3,5.42 -3.92,5.21 -8.21,5.25q-10.75,0.1 -23.59,0.11q-1.5,0 -1.47,1.49zm28.16,-18.36a2.02,2.02 0 0 0 -2.02,-2.02l-24.04,0a2.02,2.02 0 0 0 -2.02,2.02l0,10.74a2.02,2.02 0 0 0 2.02,2.02l24.04,0a2.02,2.02 0 0 0 2.02,-2.02l0,-10.74z" fill="#000000"/>
  <path id="svg_135" d="m1202.32,392.34l10.91,11.85q0.89,0.96 -0.42,1.02l-4.87,0.24q-1.24,0.06 -2.03,-0.91q-4.9,-5.96 -9.84,-12.11q-1.05,-1.31 -3.57,-1.27q-5.93,0.08 -11.76,0.4a0.48,0.48 0 0 0 -0.46,0.49l0.15,12.74q0.01,0.48 -0.47,0.48l-4.29,0.04a0.39,0.39 0 0 1 -0.39,-0.39l0.02,-36.91a0.47,0.46 0 0 1 0.47,-0.46q15.94,-0.04 31.98,0.03q3.28,0.02 5.06,2.64c2.09,3.07 1.32,12.72 1.18,15.52c-0.31,6.45 -6.99,5.65 -11.43,5.99a0.36,0.36 0 0 0 -0.24,0.61zm6.0296,-17.9255a1.85,1.85 0 0 0 -1.8468,-1.8533l-24.3199,-0.0424a1.85,1.85 0 0 0 -1.8533,1.8468l-0.0192,11.0199a1.85,1.85 0 0 0 1.8468,1.8533l24.3199,0.0424a1.85,1.85 0 0 0 1.8533,-1.8468l0.0192,-11.0199z" fill="#000000"/>
  <path id="svg_136" d="m224.56,390.15q-2.4,-3.43 -2.99,-8.15l28.29,-10.58a0.56,0.55 -40.4 0 1 0.46,0.03l9.66,5.07a0.12,0.12 0 0 1 -0.01,0.22q-17.17,7.76 -35.41,13.41z" fill="#1781ba"/>
  <path id="svg_140" d="m198.78,388.51a0.31,0.31 0 0 1 0.38,0.21l2.25,7.28q0.08,0.24 -0.17,0.31c-10.09,2.52 -21.27,4.08 -31.04,4.73c-16.58,1.11 -34.86,-0.76 -47.83,-12.32q-0.07,-0.07 -0.04,-0.17q0.16,-0.55 0.17,-0.03q0,0.1 0.09,0.14q11.41,5.54 24.17,6.05q26.27,1.06 52.02,-6.2z" fill="#1f64ac"/>
  <path id="svg_141" d="m337.61,408.82c-9.29,27.29 -29.26,70.31 -63.66,69.51q-0.32,0 -0.33,-0.33l-0.01,-0.25q-0.01,-0.08 0.08,-0.09c18.33,-1.7 33.76,-23.04 41.56,-37.5q8.82,-16.35 14.57,-33.85q0.09,-0.26 0.35,-0.18l7.29,2.39q0.23,0.07 0.15,0.3z" fill="#0fa2ca"/>
  <circle id="svg_142" r="17.11" cy="431.09" cx="229.76" fill="#1781ba"/>
  <path id="svg_143" d="m251.23,443.08c5.2,6.24 14.15,13.27 22.58,14.34q3.45,0.44 -0.01,0.8q-14.49,1.52 -26.21,-9.7a0.38,0.37 40.1 0 1 -0.05,-0.49l3.42,-4.94q0.12,-0.18 0.27,-0.01z" fill="#1781ba"/>
 </g>

</svg>