<?xml version="1.0" encoding="UTF-8" standalone="no"?>
<!DOCTYPE svg PUBLIC "-//W3C//DTD SVG 1.1//EN" "http://www.w3.org/Graphics/SVG/1.1/DTD/svg11.dtd">
<svg xmlns="http://www.w3.org/2000/svg" version="1.1" viewBox="0.00 0.00 679.00 679.00">
<g stroke-width="2.00" fill="none" stroke-linecap="butt">
<path stroke="#0e6077" vector-effect="non-scaling-stroke" d="
  M 407.71 135.53
  C 426.68 183.85 435.50 234.60 439.69 286.12"
/>
<path stroke="#105873" vector-effect="non-scaling-stroke" d="
  M 439.69 286.12
  Q 439.48 286.27 439.23 286.28
  Q 439.04 286.29 438.81 286.13
  Q 420.88 274.00 402.27 262.99"
/>
<path stroke="#134e6e" vector-effect="non-scaling-stroke" d="
  M 402.27 262.99
  Q 393.44 257.83 384.57 252.79
  C 383.68 252.28 382.66 252.00 381.70 251.35
  Q 380.09 250.27 379.71 250.07
  Q 365.48 242.61 351.41 235.54
  Q 350.82 235.24 351.42 234.96
  C 372.51 224.88 393.57 215.72 415.61 207.70
  Q 416.16 207.50 416.02 206.93
  L 413.54 196.75
  Q 413.35 195.95 412.57 196.23
  Q 399.00 201.11 385.49 206.07
  C 383.45 206.82 381.34 208.05 379.10 208.81
  C 373.45 210.73 367.80 213.70 362.90 215.81
  C 359.13 217.43 355.39 218.88 351.66 220.89
  Q 349.41 222.10 347.09 223.17
  Q 342.05 225.47 336.99 228.01
  A 1.86 1.86 0.0 0 1 335.41 228.05
  L 319.40 220.94"
/>
<path stroke="#16446a" vector-effect="non-scaling-stroke" d="
  M 319.40 220.94
  Q 292.89 209.69 264.70 201.03"
/>
<path stroke="#193763" vector-effect="non-scaling-stroke" d="
  M 264.70 201.03
  Q 269.18 180.98 275.76 161.66"
/>
<path stroke="#183c66" vector-effect="non-scaling-stroke" d="
  M 275.76 161.66
  Q 283.47 137.89 296.14 116.78
  Q 297.67 114.22 299.71 111.54
  Q 301.62 109.01 303.54 106.50
  C 312.04 95.34 323.08 85.04 338.35 81.62
  Q 338.37 81.61 338.37 81.63
  Q 338.37 81.64 338.36 81.66
  Q 338.35 81.69 338.31 81.69
  Q 326.84 80.52 318.29 84.08
  Q 305.59 89.35 295.53 101.77
  Q 282.10 118.35 273.48 138.01"
/>
<path stroke="#193763" vector-effect="non-scaling-stroke" d="
  M 273.48 138.01
  Q 266.40 153.48 261.48 169.77
  Q 257.25 183.75 253.43 197.71"
/>
<path stroke="#183c66" vector-effect="non-scaling-stroke" d="
  M 253.43 197.71
  C 236.19 192.51 216.09 188.94 199.16 186.64
  Q 198.70 186.58 198.91 186.99
  C 200.53 190.21 200.46 195.38 200.44 198.55
  Q 200.43 199.08 200.96 199.15
  C 226.14 202.61 248.84 208.82 273.28 216.73"
/>
<path stroke="#16446a" vector-effect="non-scaling-stroke" d="
  M 273.28 216.73
  Q 279.87 219.08 286.49 221.36
  C 296.08 224.67 305.38 228.59 314.82 232.24
  C 317.97 233.47 321.75 235.43 325.41 236.74"
/>
<path stroke="#134e6e" vector-effect="non-scaling-stroke" d="
  M 325.41 236.74
  Q 334.28 240.82 343.48 244.81
  C 346.28 246.02 349.15 247.74 352.23 249.27
  Q 379.72 262.88 407.79 280.00"
/>
<path stroke="#105873" vector-effect="non-scaling-stroke" d="
  M 407.79 280.00
  Q 440.81 300.51 466.59 320.41
  Q 496.50 343.48 526.92 373.74"
/>
<path stroke="#0e6077" vector-effect="non-scaling-stroke" d="
  M 526.92 373.74
  C 551.75 399.49 572.78 425.73 586.23 457.30
  C 592.50 472.04 596.08 489.78 591.87 505.57
  Q 591.74 506.05 591.99 505.62
  C 619.89 457.18 554.20 383.25 521.86 352.84
  Q 521.49 352.49 521.83 352.12
  L 540.19 332.36"
/>
<path stroke="#193763" vector-effect="non-scaling-stroke" d="
  M 540.19 332.36
  Q 543.38 330.01 545.10 326.79"
/>
<path stroke="#0e6077" vector-effect="non-scaling-stroke" d="
  M 545.10 326.79
  L 547.74 323.98
  Q 548.02 323.69 547.66 323.52
  Q 542.82 321.26 538.95 317.74"
/>
<path stroke="#193763" vector-effect="non-scaling-stroke" d="
  M 538.95 317.74
  Q 538.39 316.41 537.18 315.85
  Q 536.68 315.61 536.31 316.03
  L 534.79 317.77"
/>
<path stroke="#0e6077" vector-effect="non-scaling-stroke" d="
  M 534.79 317.77
  Q 525.59 329.76 515.36 340.64"
/>
<path stroke="#105873" vector-effect="non-scaling-stroke" d="
  M 515.36 340.64
  Q 514.01 341.66 513.33 342.77
  A 1.10 1.10 0.0 0 1 511.65 343.02
  C 493.12 326.28 473.47 310.83 453.26 296.09
  C 452.80 295.75 452.59 295.21 452.23 294.77"
/>
<path stroke="#0e6077" vector-effect="non-scaling-stroke" d="
  M 452.23 294.77
  C 449.67 261.86 446.13 232.08 438.94 199.96"
/>
<path stroke="#105873" vector-effect="non-scaling-stroke" d="
  M 438.94 199.96
  Q 474.91 188.67 506.25 185.56
  C 531.13 183.09 559.08 183.71 579.65 195.79
  Q 580.89 196.52 579.84 195.53
  C 558.12 174.95 522.20 174.12 494.49 177.15
  Q 464.98 180.38 436.45 188.80"
/>
<path stroke="#0e6077" vector-effect="non-scaling-stroke" d="
  M 436.45 188.80
  C 430.07 162.97 421.87 137.57 409.94 113.98"
/>
<path stroke="#105873" vector-effect="non-scaling-stroke" d="
  M 409.94 113.98
  C 396.17 86.38 371.70 49.05 335.22 52.86
  Q 335.11 52.88 335.03 52.94
  Q 334.91 53.03 334.88 53.15
  Q 334.82 53.36 335.03 53.38
  C 343.01 54.26 348.95 57.27 355.71 61.25
  Q 359.09 63.24 361.75 65.39
  C 383.63 83.12 396.77 109.34 407.71 135.53"
/>
<path stroke="#0ea5cc" vector-effect="non-scaling-stroke" d="
  M 409.94 113.98
  Q 409.38 114.17 409.33 114.67
  Q 409.30 115.05 409.67 115.15
  L 410.00 115.23
  Q 410.41 115.34 409.59 115.95
  Q 409.40 116.10 409.27 116.32
  Q 409.15 116.53 409.24 116.75
  Q 409.56 117.60 409.21 118.39
  Q 409.07 118.71 409.14 119.05
  Q 409.26 119.61 408.80 119.85
  A 0.59 0.59 0.0 0 0 408.59 120.71
  Q 409.13 121.48 408.48 122.23
  Q 408.24 122.49 408.50 122.75
  L 408.77 123.02
  Q 409.13 123.38 408.94 123.85
  Q 408.66 124.53 409.08 125.31
  Q 409.30 125.70 408.98 126.02
  L 408.55 126.45
  A 0.37 0.37 0.0 0 0 408.55 126.97
  L 408.75 127.17
  Q 409.12 127.54 408.83 127.97
  Q 408.43 128.56 408.93 129.18
  Q 409.25 129.57 409.10 130.05
  Q 408.83 130.94 408.91 131.87
  Q 408.98 132.81 408.24 133.14
  Q 407.81 133.33 407.84 133.80
  Q 407.86 134.03 408.02 134.20
  Q 408.30 134.52 408.08 134.89
  L 407.71 135.53"
/>
<path stroke="#0ea5cc" vector-effect="non-scaling-stroke" d="
  M 436.45 188.80
  L 438.94 199.96"
/>
<path stroke="#0ea5cc" vector-effect="non-scaling-stroke" d="
  M 452.23 294.77
  Q 452.01 294.93 451.56 294.88
  Q 451.46 294.87 451.40 294.78
  L 451.18 294.44
  Q 451.03 294.21 450.81 294.06
  L 439.69 286.12"
/>
<path stroke="#0ea5cc" vector-effect="non-scaling-stroke" d="
  M 515.36 340.64
  Q 515.19 342.27 513.12 343.45
  Q 512.57 343.77 512.95 344.28
  Q 513.35 344.83 513.72 345.39
  Q 513.79 345.49 514.55 347.02
  Q 514.95 347.82 515.88 348.28
  A 0.87 0.85 14.5 0 1 516.36 349.08
  Q 516.33 349.83 517.08 350.22
  Q 517.60 350.49 517.77 351.06
  Q 518.06 352.09 518.56 353.09
  Q 518.82 353.62 518.96 354.19
  Q 519.39 355.89 518.68 355.87
  A 0.47 0.46 61.3 0 0 518.43 356.73
  Q 519.49 357.39 518.94 358.38
  Q 518.72 358.77 519.05 359.06
  Q 519.78 359.70 519.91 360.63
  Q 519.98 361.11 520.27 361.50
  Q 520.40 361.67 520.52 361.86
  Q 520.83 362.36 520.24 362.37
  L 519.78 362.37
  Q 518.80 362.37 519.71 362.76
  L 520.93 363.28
  A 0.42 0.30 -18.4 0 1 520.50 363.87
  Q 520.28 363.82 520.21 364.10
  Q 520.10 364.49 520.41 364.77
  Q 521.54 365.78 521.83 367.26
  Q 521.93 367.77 522.33 368.11
  Q 525.40 370.68 526.92 373.74"
/>
<path stroke="#1784bc" vector-effect="non-scaling-stroke" d="
  M 545.10 326.79
  Q 542.00 329.11 540.19 332.36"
/>
<path stroke="#1393c3" vector-effect="non-scaling-stroke" d="
  M 402.27 262.99
  Q 401.04 263.08 399.73 262.25
  Q 399.28 261.96 399.38 262.49
  Q 399.45 262.90 399.28 263.19
  A 0.46 0.46 0.0 0 0 399.67 263.88
  L 400.19 263.88
  A 0.87 0.87 0.0 0 1 400.91 264.26
  Q 402.22 266.12 402.13 268.31
  Q 402.11 268.76 402.55 268.88
  Q 403.00 269.00 403.32 268.62
  Q 403.59 268.31 403.67 268.71
  Q 403.73 268.99 403.62 269.31
  Q 403.42 269.86 402.84 269.85
  Q 402.55 269.84 402.49 270.24
  Q 402.42 270.69 402.84 270.87
  Q 403.98 271.37 404.14 272.58
  Q 404.22 273.13 404.77 273.13
  L 405.27 273.13
  Q 406.15 273.13 405.67 273.87
  Q 405.45 274.19 405.47 274.61
  Q 405.48 274.94 405.68 275.20
  Q 405.89 275.48 406.01 275.84
  Q 406.06 275.98 405.92 276.00
  Q 405.76 276.03 405.68 276.12
  Q 405.39 276.44 405.75 276.25
  Q 405.89 276.18 406.02 276.12
  A 0.17 0.17 0.0 0 1 406.27 276.27
  Q 406.26 277.70 407.64 278.23
  A 0.43 0.43 0.0 0 1 407.87 278.82
  Q 407.63 279.31 407.79 280.00"
/>
<path stroke="#187fba" vector-effect="non-scaling-stroke" d="
  M 325.41 236.74
  L 320.51 232.63
  A 1.02 1.02 0.0 0 1 320.14 231.91
  Q 320.02 230.40 318.48 230.14
  Q 318.12 230.08 318.12 229.71
  L 318.12 228.68
  Q 318.12 228.22 318.56 228.06
  L 319.22 227.82
  Q 319.68 227.66 319.53 227.19
  Q 319.42 226.88 318.99 226.88
  Q 317.66 226.87 316.33 226.85
  A 0.16 0.16 0.0 0 1 316.18 226.67
  L 316.21 226.42
  Q 316.26 226.10 316.58 226.13
  Q 318.21 226.32 318.15 224.97
  Q 318.10 223.87 316.93 223.19
  Q 316.46 222.91 316.52 222.36
  Q 316.68 220.84 319.40 220.94"
/>
<path stroke="#1784bc" vector-effect="non-scaling-stroke" d="
  M 538.95 317.74
  L 537.06 316.58
  Q 536.60 316.29 536.18 316.64
  L 534.79 317.77"
/>
<path stroke="#1d6eb1" vector-effect="non-scaling-stroke" d="
  M 256.00 198.66
  Q 255.91 198.83 255.76 198.92
  Q 255.13 199.32 255.51 199.50
  Q 255.62 199.55 255.75 199.62
  Q 255.84 199.66 255.81 199.75
  Q 255.39 200.85 256.33 201.23
  Q 256.67 201.37 256.39 201.60
  Q 255.87 202.01 255.90 202.60
  A 0.54 0.53 82.9 0 0 256.55 203.11
  Q 257.09 202.99 257.39 203.38
  A 0.16 0.16 0.0 0 1 257.27 203.64
  L 256.82 203.65
  Q 256.30 203.66 256.09 204.14
  Q 256.01 204.33 255.89 204.49
  A 0.28 0.28 0.0 0 0 256.07 204.94
  L 257.49 205.20
  A 0.25 0.25 0.0 0 1 257.53 205.68
  L 256.65 205.98
  Q 255.67 206.31 256.54 206.87
  Q 257.06 207.20 257.69 207.11
  A 0.62 0.61 86.0 0 1 258.39 207.72
  L 258.39 210.50
  A 0.72 0.70 -86.4 0 0 259.00 211.21
  Q 260.46 211.41 261.60 212.33
  Q 261.96 212.62 262.43 212.62
  Q 263.62 212.61 264.68 213.08
  Q 266.02 213.67 266.72 213.81
  Q 270.80 214.61 273.28 216.73"
/>
<path stroke="#1f68af" vector-effect="non-scaling-stroke" d="
  M 264.70 201.03
  L 256.00 198.66"
/>
<path stroke="#2161ab" vector-effect="non-scaling-stroke" d="
  M 256.00 198.66
  L 253.43 197.71"
/>
<path stroke="#2161ab" vector-effect="non-scaling-stroke" d="
  M 275.76 161.66
  Q 274.75 161.57 274.43 158.68
  Q 274.39 158.28 274.62 157.95
  Q 275.07 157.32 274.43 156.93
  A 0.58 0.57 36.6 0 1 274.30 156.06
  Q 274.99 155.26 274.18 154.71
  A 0.23 0.23 0.0 0 1 274.15 154.35
  L 274.51 153.99
  A 0.17 0.17 0.0 0 0 274.40 153.70
  Q 274.02 153.68 273.74 153.60
  A 0.12 0.12 0.0 0 1 273.79 153.37
  Q 274.21 153.43 274.54 153.22
  A 0.10 0.09 -39.8 0 0 274.56 153.07
  Q 274.43 152.94 274.29 152.80
  Q 273.78 152.27 274.43 151.91
  L 274.74 151.74
  Q 275.71 151.20 274.76 151.13
  Q 274.44 151.10 274.33 150.78
  Q 274.19 150.35 274.50 150.02
  Q 275.18 149.32 274.34 148.88
  A 0.46 0.46 0.0 0 1 274.38 148.05
  L 274.94 147.82
  Q 275.55 147.57 275.01 147.19
  L 274.66 146.93
  Q 274.29 146.66 274.43 146.22
  L 275.32 143.53
  A 0.50 0.49 -78.5 0 0 274.89 142.88
  Q 274.27 142.84 273.90 142.36
  Q 273.61 141.99 274.06 141.88
  L 274.43 141.78
  Q 274.90 141.66 274.56 141.31
  L 274.26 141.02
  Q 274.07 140.82 274.12 140.56
  Q 274.42 139.07 273.48 138.01"
/>
<path stroke="#193763" vector-effect="non-scaling-stroke" d="
  M 158.94 175.00
  Q 152.69 177.45 149.05 183.26
  C 141.00 196.09 146.67 212.47 161.01 217.40"
/>
<path stroke="#16446a" vector-effect="non-scaling-stroke" d="
  M 161.01 217.40
  Q 167.78 219.53 174.20 217.64"
/>
<path stroke="#105873" vector-effect="non-scaling-stroke" d="
  M 174.20 217.64
  Q 180.60 215.98 182.84 212.54"
/>
<path stroke="#0e6077" vector-effect="non-scaling-stroke" d="
  M 182.84 212.54
  C 193.46 204.00 193.07 189.01 184.09 179.73"
/>
<path stroke="#105873" vector-effect="non-scaling-stroke" d="
  M 184.09 179.73
  Q 183.55 178.98 182.75 178.49"
/>
<path stroke="#193763" vector-effect="non-scaling-stroke" d="
  M 182.75 178.49
  Q 180.41 175.66 177.24 175.12"
/>
<path stroke="#105873" vector-effect="non-scaling-stroke" d="
  M 177.24 175.12
  L 172.73 173.68"
/>
<path stroke="#16446a" vector-effect="non-scaling-stroke" d="
  M 172.73 173.68
  Q 166.53 172.15 158.94 175.00"
/>
<path stroke="#1689bf" vector-effect="non-scaling-stroke" d="
  M 172.73 173.68
  Q 171.74 182.86 172.20 192.10
  Q 172.20 192.22 172.27 192.22
  Q 172.37 192.23 172.47 192.23
  Q 172.57 192.23 172.58 192.27
  Q 172.92 193.34 172.41 194.15
  Q 172.16 194.54 172.16 195.00
  Q 172.15 205.37 172.16 215.75
  Q 172.16 217.26 174.20 217.64"
/>
<path stroke="#1f68af" vector-effect="non-scaling-stroke" d="
  M 161.01 217.40
  Q 160.35 216.39 159.32 215.66
  Q 158.94 215.39 158.94 214.93
  L 158.94 175.00"
/>
<path stroke="#197cb8" vector-effect="non-scaling-stroke" d="
  M 177.24 175.12
  L 182.75 178.49"
/>
<path stroke="#0ea5cc" vector-effect="non-scaling-stroke" d="
  M 184.09 179.73
  Q 182.44 179.63 182.39 181.12
  Q 181.93 194.49 182.84 212.54"
/>
<path stroke="#193763" vector-effect="non-scaling-stroke" d="
  M 135.95 190.30
  Q 127.77 193.32 124.49 194.62
  C 119.46 196.60 113.15 201.63 109.02 206.04
  Q 104.42 210.95 103.37 213.37
  Q 100.99 218.84 98.65 224.32
  Q 98.56 224.53 98.77 224.62
  L 98.78 224.63
  Q 98.99 224.72 99.08 224.50
  Q 99.68 223.05 101.16 221.16
  C 109.82 210.06 122.40 203.73 135.62 200.69
  Q 135.84 200.64 135.85 200.42
  L 136.21 190.48
  A 0.19 0.19 0.0 0 0 135.95 190.30"
/>
<path stroke="#0e6077" vector-effect="non-scaling-stroke" d="
  M 558.73 215.65
  C 568.82 224.99 571.14 240.61 568.34 253.41
  C 567.91 255.37 567.55 258.61 566.42 261.08
  A 0.73 0.72 -72.8 0 0 566.95 262.10
  Q 572.84 263.15 577.74 266.51
  A 0.59 0.58 24.6 0 0 578.64 266.18
  C 584.16 244.95 578.35 226.33 558.85 215.47
  Q 558.06 215.03 558.73 215.65"
/>
<path stroke="#183c66" vector-effect="non-scaling-stroke" d="
  M 242.35 399.08
  Q 211.66 376.45 185.11 349.49
  A 0.45 0.45 0.0 0 1 185.12 348.85
  C 192.55 341.77 200.26 335.01 207.84 328.10
  Q 211.85 324.45 216.29 321.41"
/>
<path stroke="#193763" vector-effect="non-scaling-stroke" d="
  M 216.29 321.41
  C 219.43 319.64 221.10 318.39 221.10 315.25
  Q 221.11 308.72 221.15 300.57"
/>
<path stroke="#183c66" vector-effect="non-scaling-stroke" d="
  M 221.15 300.57
  Q 219.10 300.98 217.59 302.85
  Q 217.30 303.20 216.89 303.40
  Q 216.26 303.71 215.25 304.51
  Q 192.55 322.49 175.07 339.14"
/>
<path stroke="#193763" vector-effect="non-scaling-stroke" d="
  M 175.07 339.14
  C 161.05 323.68 148.53 307.73 138.46 289.79
  C 129.12 273.13 122.69 255.96 125.46 236.65
  Q 125.52 236.20 125.88 235.91
  Q 126.20 235.64 126.13 235.22
  Q 126.04 234.72 125.79 235.16
  C 116.69 251.16 118.78 268.97 125.86 285.60
  C 133.14 302.70 142.29 316.69 154.18 331.38
  C 163.90 343.40 171.92 353.26 184.67 365.62"
/>
<path stroke="#183c66" vector-effect="non-scaling-stroke" d="
  M 184.67 365.62
  C 203.04 383.60 223.14 399.89 243.75 415.22"
/>
<path stroke="#16446a" vector-effect="non-scaling-stroke" d="
  M 243.75 415.22
  C 259.64 427.17 276.45 437.92 293.31 448.41
  Q 323.90 467.46 364.01 485.90
  Q 374.04 490.51 387.56 495.60"
/>
<path stroke="#134e6e" vector-effect="non-scaling-stroke" d="
  M 387.56 495.60
  Q 405.98 503.18 425.32 508.95"
/>
<path stroke="#105873" vector-effect="non-scaling-stroke" d="
  M 425.32 508.95
  Q 458.14 519.41 486.00 522.29
  C 511.99 524.98 549.12 525.73 565.76 501.03
  C 566.92 499.31 567.52 497.21 568.32 495.61
  Q 569.50 493.22 569.98 491.06
  Q 570.23 489.95 569.57 490.88
  C 550.33 518.24 499.50 513.41 471.50 508.07
  Q 453.01 504.55 435.08 498.78"
/>
<path stroke="#0e6077" vector-effect="non-scaling-stroke" d="
  M 435.08 498.78
  Q 435.93 496.32 436.26 495.00
  Q 446.29 455.07 450.01 414.06
  Q 450.13 412.76 450.93 412.21"
/>
<path stroke="#105873" vector-effect="non-scaling-stroke" d="
  M 450.93 412.21
  Q 478.25 392.58 502.31 370.82
  Q 502.72 370.44 503.74 369.81
  Q 504.13 369.57 503.80 369.26
  L 495.19 361.25
  Q 494.79 360.88 494.39 361.25
  Q 474.04 379.92 451.67 396.91"
/>
<path stroke="#0e6077" vector-effect="non-scaling-stroke" d="
  M 451.67 396.91
  Q 454.49 360.66 453.63 325.51
  A 0.74 0.73 -73.5 0 0 453.32 324.93
  L 441.98 316.76
  Q 441.58 316.47 441.60 316.96
  Q 443.06 357.57 440.03 398.06
  C 439.43 406.04 438.26 415.17 437.43 423.74
  Q 436.11 437.28 431.43 463.75
  Q 428.75 478.93 424.78 494.52"
/>
<path stroke="#105873" vector-effect="non-scaling-stroke" d="
  M 424.78 494.52
  Q 424.64 495.06 424.19 495.31
  Q 423.85 495.49 423.31 495.31
  Q 417.92 493.51 412.58 491.82"
/>
<path stroke="#134e6e" vector-effect="non-scaling-stroke" d="
  M 412.58 491.82
  Q 385.34 481.78 359.02 469.63
  Q 358.46 469.37 358.98 469.05
  Q 361.68 467.35 365.79 465.54
  Q 372.68 462.51 380.99 457.57
  Q 390.98 451.64 400.89 445.58
  Q 412.83 438.28 424.60 430.67
  Q 424.98 430.42 425.02 429.97
  L 426.54 415.67
  A 0.10 0.10 0.0 0 0 426.39 415.57
  L 385.26 441.19
  Q 385.03 441.34 384.90 441.57
  Q 384.73 441.89 384.31 441.87
  Q 383.89 441.85 383.53 442.06
  Q 373.02 448.19 362.30 453.94
  Q 362.23 453.97 362.21 454.05
  Q 362.20 454.09 362.19 454.13
  Q 362.15 454.28 362.01 454.35
  L 348.20 461.71"
/>
<path stroke="#16446a" vector-effect="non-scaling-stroke" d="
  M 348.20 461.71
  C 346.60 462.68 345.52 463.11 343.69 462.18
  Q 330.19 455.25 326.02 452.99
  Q 293.14 435.20 255.53 408.77"
/>
<path stroke="#193763" vector-effect="non-scaling-stroke" d="
  M 255.53 408.77
  Q 255.10 407.44 254.96 406.12
  Q 249.86 357.80 251.40 309.25
  Q 251.62 302.24 252.18 295.25
  Q 252.29 293.86 252.86 293.47"
/>
<path stroke="#16446a" vector-effect="non-scaling-stroke" d="
  M 252.86 293.47
  L 273.15 279.79
  Q 273.55 279.51 273.98 279.29
  Q 274.48 279.02 275.23 278.53
  Q 293.46 266.48 317.62 253.06
  C 319.33 252.10 321.51 250.31 323.78 249.46
  Q 324.77 249.10 323.80 248.67
  L 310.23 242.79
  A 2.01 2.00 -47.2 0 0 308.48 242.86
  Q 295.05 250.09 282.18 258.32
  Q 280.31 259.51 278.40 260.63
  C 276.53 261.74 274.10 263.69 271.74 264.89
  Q 269.62 265.96 268.69 266.56
  Q 261.09 271.45 253.39 276.87"
/>
<path stroke="#193763" vector-effect="non-scaling-stroke" d="
  M 253.39 276.87
  Q 255.47 250.72 259.81 225.74
  A 0.88 0.88 0.0 0 0 259.17 224.74
  L 249.04 222.00
  A 0.62 0.62 0.0 0 0 248.27 222.52
  C 246.53 235.44 244.37 248.54 243.11 261.07
  Q 241.90 273.12 240.74 285.17
  C 240.40 288.72 240.46 292.72 240.16 296.51
  Q 239.72 302.21 239.67 305.00
  C 239.12 340.13 239.28 365.77 242.35 399.08"
/>
<path stroke="#1f68af" vector-effect="non-scaling-stroke" d="
  M 253.39 276.87
  Q 252.08 284.65 252.86 293.47"
/>
<path stroke="#1f68af" vector-effect="non-scaling-stroke" d="
  M 255.53 408.77
  L 243.31 400.08"
/>
<path stroke="#2161ab" vector-effect="non-scaling-stroke" d="
  M 243.31 400.08
  Q 242.73 399.87 242.35 399.08"
/>
<path stroke="#2161ab" vector-effect="non-scaling-stroke" d="
  M 221.15 300.57
  L 219.88 317.43
  A 1.02 1.01 -15.3 0 1 219.43 318.21
  Q 217.53 319.51 216.29 321.41"
/>
<path stroke="#1d6eb1" vector-effect="non-scaling-stroke" d="
  M 243.31 400.08
  L 242.98 400.45
  Q 242.69 400.77 242.48 401.16
  Q 241.65 402.68 242.74 403.08
  A 0.41 0.41 0.0 0 1 242.77 403.84
  Q 242.40 404.02 242.14 404.36
  A 0.34 0.34 0.0 0 0 242.49 404.90
  Q 243.16 404.74 243.63 405.12
  Q 244.23 405.63 243.48 405.86
  Q 242.13 406.27 240.72 406.10
  A 0.31 0.31 0.0 0 0 240.37 406.41
  L 240.37 406.68
  Q 240.37 406.85 240.54 406.85
  L 243.38 406.90
  A 0.40 0.40 0.0 0 1 243.78 407.26
  L 243.81 407.51
  Q 243.83 407.72 243.63 407.78
  L 242.24 408.21
  Q 242.12 408.25 242.12 408.37
  L 242.12 408.69
  A 0.24 0.23 83.3 0 0 242.41 408.92
  Q 243.20 408.71 243.85 409.10
  Q 244.43 409.44 243.90 409.86
  Q 243.38 410.27 242.72 410.10
  A 0.34 0.33 73.8 0 0 242.41 410.67
  Q 242.82 411.06 243.42 411.15
  Q 243.93 411.23 243.61 411.62
  Q 243.48 411.78 243.32 411.90
  Q 242.98 412.16 242.90 412.57
  Q 242.66 413.79 243.67 413.88
  Q 244.13 413.92 244.00 414.37
  L 243.75 415.22"
/>
<path stroke="#187fba" vector-effect="non-scaling-stroke" d="
  M 348.20 461.71
  Q 346.52 465.09 350.04 466.58
  Q 350.13 466.62 350.05 466.68
  Q 349.94 466.78 350.00 466.97
  Q 350.05 467.10 350.18 467.15
  Q 351.61 467.63 352.05 469.13
  Q 352.17 469.54 352.12 469.97
  Q 352.08 470.35 352.16 470.71
  Q 352.22 470.95 352.45 471.04
  L 353.23 471.32
  Q 353.50 471.42 353.27 471.60
  L 352.44 472.22
  Q 351.88 472.64 352.50 472.95
  Q 352.87 473.14 353.28 473.21
  A 0.23 0.23 0.0 0 1 353.24 473.66
  Q 352.94 473.66 352.55 473.96
  Q 351.80 474.53 352.69 474.84
  Q 353.20 475.02 353.49 475.62
  Q 353.62 475.91 353.38 476.13
  Q 353.27 476.22 353.15 476.29
  Q 352.29 476.84 353.02 477.00
  Q 353.16 477.04 353.30 477.11
  Q 353.53 477.23 353.52 477.49
  Q 353.50 478.01 353.21 478.31
  Q 352.85 478.67 353.19 479.06
  C 354.46 480.55 356.17 480.94 357.49 481.65
  Q 362.62 484.39 368.00 486.64
  Q 368.40 486.81 369.21 487.60
  Q 369.55 487.93 370.03 487.89
  Q 371.54 487.76 372.74 488.33
  Q 377.60 490.61 387.56 495.60"
/>
<path stroke="#2161ab" vector-effect="non-scaling-stroke" d="
  M 175.07 339.14
  Q 175.07 339.35 176.49 340.06
  Q 176.99 340.32 176.91 340.88
  Q 176.74 342.03 177.12 342.51
  Q 178.55 344.26 179.61 346.28
  A 1.33 1.32 34.5 0 1 179.75 347.02
  Q 179.64 348.22 180.50 349.21
  Q 180.88 349.64 180.44 350.02
  Q 180.19 350.24 180.64 350.84
  A 0.99 0.94 81.1 0 0 181.07 351.17
  Q 181.81 351.45 181.21 352.07
  Q 180.81 352.48 181.22 352.89
  L 181.55 353.23
  Q 181.86 353.53 181.51 353.79
  Q 181.18 354.03 180.73 354.16
  Q 179.31 354.55 180.76 354.83
  L 182.50 355.17
  A 0.35 0.35 0.0 0 1 182.46 355.86
  Q 181.91 355.90 181.47 356.27
  Q 181.15 356.54 181.51 356.78
  Q 182.15 357.19 182.13 357.93
  Q 182.12 358.25 181.80 358.27
  Q 181.63 358.29 181.50 358.32
  A 0.16 0.16 0.0 0 0 181.54 358.63
  Q 182.51 358.62 183.22 359.29
  Q 183.53 359.59 183.19 359.85
  Q 182.91 360.07 182.88 360.37
  Q 182.79 361.15 183.69 361.19
  Q 184.07 361.20 183.86 361.52
  L 183.64 361.87
  A 0.46 0.45 34.6 0 0 183.76 362.50
  Q 185.42 363.69 184.67 365.62"
/>
<path stroke="#1393c3" vector-effect="non-scaling-stroke" d="
  M 412.58 491.82
  Q 411.97 493.10 412.00 494.50
  Q 412.01 495.08 412.47 495.42
  Q 413.21 495.96 413.53 496.85
  Q 413.70 497.32 413.42 497.75
  Q 413.08 498.26 412.45 498.10
  A 0.28 0.28 0.0 0 0 412.12 498.46
  L 412.22 498.78
  Q 412.26 498.90 412.39 498.89
  Q 413.76 498.74 415.01 499.27
  A 0.30 0.30 0.0 0 1 414.87 499.85
  Q 414.51 499.83 414.50 500.29
  Q 414.49 500.64 414.82 500.77
  Q 417.01 501.65 417.16 504.09
  Q 417.20 504.61 417.72 504.61
  Q 418.75 504.59 419.04 505.59
  Q 419.19 506.08 419.69 506.13
  Q 420.91 506.26 421.62 507.13
  A 1.13 1.11 70.9 0 0 422.47 507.55
  Q 424.46 507.60 425.32 508.95"
/>
<path stroke="#0ea5cc" vector-effect="non-scaling-stroke" d="
  M 451.67 396.91
  Q 450.47 404.02 450.93 412.21"
/>
<path stroke="#0ea5cc" vector-effect="non-scaling-stroke" d="
  M 435.08 498.78
  Q 428.40 497.74 424.78 494.52"
/>
<path stroke="#134e6e" vector-effect="non-scaling-stroke" d="
  M 564.20 316.36
  L 568.22 315.33"
/>
<path stroke="#105873" vector-effect="non-scaling-stroke" d="
  M 568.22 315.33
  Q 576.75 312.28 580.81 304.28
  C 587.58 290.93 580.73 276.54 566.64 272.01"
/>
<path stroke="#134e6e" vector-effect="non-scaling-stroke" d="
  M 566.64 272.01
  L 563.21 271.39"
/>
<path stroke="#183c66" vector-effect="non-scaling-stroke" d="
  M 563.21 271.39
  C 550.06 270.12 538.63 279.66 538.12 292.99
  C 537.56 307.63 549.90 318.14 564.20 316.36"
/>
<path stroke="#1a78b6" vector-effect="non-scaling-stroke" d="
  M 563.21 271.39
  L 561.25 271.43
  Q 560.73 271.44 560.70 271.96
  Q 560.46 276.00 560.91 280.00
  Q 560.96 280.40 560.80 280.74
  Q 560.63 281.09 560.63 281.47
  Q 560.80 295.37 560.64 309.27
  C 560.63 310.43 561.16 311.86 560.58 313.32
  A 2.26 2.25 10.2 0 0 562.74 316.41
  L 564.20 316.36"
/>
<path stroke="#1393c3" vector-effect="non-scaling-stroke" d="
  M 566.64 272.01
  L 566.44 313.16
  Q 566.44 313.62 566.72 313.97
  Q 567.47 314.92 568.22 315.33"
/>
<path stroke="#16446a" vector-effect="non-scaling-stroke" d="
  M 333.02 312.69
  L 324.62 314.47"
/>
<path stroke="#183c66" vector-effect="non-scaling-stroke" d="
  M 324.62 314.47
  Q 318.83 316.27 313.66 319.92"
/>
<path stroke="#193763" vector-effect="non-scaling-stroke" d="
  M 313.66 319.92
  C 292.31 335.45 290.97 367.51 312.20 384.04"
/>
<path stroke="#183c66" vector-effect="non-scaling-stroke" d="
  M 312.20 384.04
  Q 317.38 388.06 323.09 390.11"
/>
<path stroke="#16446a" vector-effect="non-scaling-stroke" d="
  M 323.09 390.11
  Q 328.50 392.11 333.70 392.44"
/>
<path stroke="#134e6e" vector-effect="non-scaling-stroke" d="
  M 333.70 392.44
  Q 343.72 393.23 352.70 389.33"
/>
<path stroke="#105873" vector-effect="non-scaling-stroke" d="
  M 352.70 389.33
  Q 358.25 386.97 361.49 384.05"
/>
<path stroke="#0e6077" vector-effect="non-scaling-stroke" d="
  M 361.49 384.05
  Q 364.19 382.15 365.50 380.76
  C 380.91 364.24 381.06 339.03 364.15 323.21"
/>
<path stroke="#105873" vector-effect="non-scaling-stroke" d="
  M 364.15 323.21
  Q 359.54 318.85 353.37 316.10"
/>
<path stroke="#134e6e" vector-effect="non-scaling-stroke" d="
  M 353.37 316.10
  Q 344.21 311.81 333.02 312.69"
/>
<path stroke="#1393c3" vector-effect="non-scaling-stroke" d="
  M 353.37 316.10
  Q 352.32 317.19 352.31 320.26
  Q 352.31 329.74 352.35 339.21
  Q 352.36 339.67 352.12 340.08
  Q 351.27 341.60 351.63 343.20
  Q 351.75 343.70 351.50 344.14
  Q 351.23 344.62 351.62 345.12
  Q 351.92 345.49 351.63 345.86
  Q 351.15 346.50 351.63 347.12
  Q 351.92 347.50 351.63 347.88
  Q 351.15 348.50 351.63 349.13
  Q 351.91 349.50 351.63 349.87
  Q 351.15 350.50 351.64 351.12
  Q 351.93 351.50 351.64 351.87
  Q 351.15 352.49 351.63 353.11
  Q 351.92 353.49 351.63 353.86
  Q 351.14 354.50 351.64 355.13
  Q 351.94 355.51 351.63 355.88
  Q 351.23 356.36 351.49 356.84
  Q 351.73 357.29 351.63 357.79
  Q 351.10 360.64 351.71 363.45
  Q 351.76 363.68 351.65 363.89
  Q 351.57 364.02 351.51 364.15
  Q 351.42 364.35 351.44 364.60
  Q 351.64 367.54 351.43 370.47
  Q 351.42 370.64 351.49 370.79
  Q 351.56 370.96 351.65 371.13
  Q 351.87 371.55 351.60 371.93
  Q 351.16 372.54 351.65 373.14
  Q 351.87 373.42 351.71 373.74
  L 351.56 374.04
  Q 351.36 374.44 351.52 374.87
  Q 351.76 375.50 351.52 376.19
  Q 351.35 376.69 351.65 377.13
  Q 351.97 377.58 351.59 378.00
  A 0.75 0.75 0.0 0 0 351.59 379.01
  Q 352.03 379.49 351.60 379.98
  A 0.79 0.79 0.0 0 0 351.59 381.01
  Q 352.02 381.53 351.54 382.05
  A 0.57 0.57 0.0 0 0 351.67 382.93
  Q 352.29 383.31 351.87 383.89
  A 0.62 0.62 0.0 0 0 352.05 384.78
  Q 353.11 385.43 352.19 386.15
  Q 351.76 386.49 352.15 386.88
  L 352.52 387.25
  Q 352.85 387.58 352.55 387.92
  Q 351.97 388.59 352.70 389.33"
/>
<path stroke="#187fba" vector-effect="non-scaling-stroke" d="
  M 333.70 392.44
  L 333.43 388.13
  Q 333.42 387.99 333.33 387.92
  Q 333.28 387.89 333.23 387.88
  Q 333.02 387.81 333.02 387.66
  Q 332.77 379.83 332.91 372.00
  Q 332.91 371.81 333.03 371.65
  Q 333.18 371.44 333.16 371.18
  Q 332.65 366.50 333.15 361.83
  Q 333.18 361.58 333.04 361.37
  Q 332.94 361.22 332.95 361.00
  Q 333.13 353.09 332.94 340.25
  Q 332.93 339.87 333.08 339.51
  Q 333.29 339.01 333.16 338.47
  Q 332.68 336.48 333.18 334.48
  A 1.57 1.54 39.4 0 0 333.07 333.47
  C 332.61 332.50 333.08 331.50 333.05 330.73
  Q 332.64 321.84 333.02 312.69"
/>
<path stroke="#1d6eb1" vector-effect="non-scaling-stroke" d="
  M 323.09 390.11
  Q 324.40 384.86 323.88 380.50
  Q 323.66 378.73 324.08 377.71
  Q 324.12 377.59 324.12 377.51
  Q 324.10 377.33 324.00 377.16
  Q 323.88 376.96 323.88 376.72
  L 323.88 324.74
  Q 323.88 324.37 324.14 324.12
  L 324.38 323.87
  A 0.95 0.91 68.8 0 0 324.66 323.20
  L 324.62 314.47"
/>
<path stroke="#0ea5cc" vector-effect="non-scaling-stroke" d="
  M 364.15 323.21
  L 361.62 323.38
  Q 361.26 323.40 361.25 323.76
  L 361.07 355.87
  Q 361.07 356.17 361.17 356.45
  Q 361.25 356.70 361.24 357.00
  Q 361.02 370.17 361.49 384.05"
/>
<path stroke="#2161ab" vector-effect="non-scaling-stroke" d="
  M 312.20 384.04
  Q 312.91 383.83 312.90 383.40
  C 312.90 383.01 313.07 382.48 313.23 382.12
  Q 313.40 381.75 313.31 381.36
  L 312.59 378.33
  Q 312.48 377.88 312.94 377.88
  L 313.35 377.88
  A 0.24 0.24 0.0 0 0 313.58 377.57
  Q 313.04 375.76 313.27 373.87
  Q 313.33 373.37 313.20 372.89
  Q 312.79 371.39 313.34 369.83
  Q 313.54 369.26 313.09 368.85
  Q 312.71 368.52 313.06 368.16
  Q 313.43 367.78 313.38 367.26
  L 313.04 363.03
  Q 312.99 362.41 313.50 362.06
  Q 314.17 361.61 313.58 361.05
  Q 313.19 360.69 313.40 360.21
  Q 313.81 359.26 313.82 358.31
  Q 313.82 357.78 313.22 356.63
  Q 312.53 355.32 312.81 353.74
  Q 312.89 353.28 312.46 353.10
  Q 312.22 353.00 312.03 352.79
  A 0.48 0.47 59.1 0 1 312.22 352.03
  Q 313.09 351.70 312.68 351.05
  A 0.87 0.84 -45.2 0 1 312.69 350.14
  Q 313.26 349.24 312.29 349.01
  A 0.45 0.45 0.0 0 1 312.04 348.30
  Q 312.87 347.21 312.80 345.73
  Q 312.78 345.27 312.37 345.07
  Q 312.23 345.00 312.13 344.87
  Q 311.85 344.51 312.13 344.14
  Q 312.26 343.96 312.47 343.90
  Q 313.00 343.74 312.76 343.25
  Q 312.35 342.41 313.02 341.62
  A 0.32 0.32 0.0 0 0 312.69 341.11
  Q 312.41 341.18 312.23 340.95
  Q 311.97 340.62 312.16 340.25
  Q 312.82 339.00 312.84 337.51
  Q 312.85 337.20 312.54 337.13
  Q 312.29 337.07 312.13 336.87
  Q 311.85 336.51 312.13 336.13
  Q 312.26 335.95 312.47 335.89
  Q 313.00 335.75 312.76 335.25
  Q 312.47 334.65 312.73 334.07
  Q 313.04 333.38 312.36 333.06
  Q 312.07 332.93 311.98 332.52
  Q 311.94 332.32 312.08 332.18
  Q 312.21 332.04 312.36 331.91
  Q 312.69 331.59 312.70 331.14
  L 312.75 326.75
  A 5.15 1.22 80.7 0 1 312.82 325.77
  Q 312.91 325.08 311.96 324.68
  Q 311.45 324.46 311.95 324.21
  Q 312.71 323.83 311.99 323.59
  A 0.17 0.17 0.0 0 1 311.97 323.27
  Q 312.11 323.20 312.26 323.12
  Q 312.56 322.96 312.57 322.63
  Q 312.57 322.19 312.93 321.94
  Q 313.32 321.66 313.41 321.19
  L 313.66 319.92"
/>
<path stroke="#193763" vector-effect="non-scaling-stroke" d="
  M 103.11 431.66
  C 89.65 460.64 85.18 495.63 116.56 514.81
  Q 116.78 514.95 116.61 514.75
  C 79.30 472.44 133.19 404.44 160.87 373.37
  Q 161.60 372.55 162.53 371.87
  Q 162.91 371.59 162.58 371.25
  L 153.15 361.75
  Q 152.78 361.38 152.44 361.78
  Q 148.13 366.79 143.74 371.73
  C 127.78 389.70 113.26 409.80 103.11 431.66"
/>
<path stroke="#16446a" vector-effect="non-scaling-stroke" d="
  M 275.47 504.63
  Q 284.98 501.53 293.76 498.49
  C 303.23 495.20 313.30 490.51 323.16 486.56
  Q 323.34 486.49 323.17 486.40
  L 310.27 479.73
  A 1.34 1.32 47.8 0 0 309.19 479.67
  C 296.75 484.49 284.52 489.80 271.61 493.61"
/>
<path stroke="#193763" vector-effect="non-scaling-stroke" d="
  M 271.61 493.61
  Q 265.74 472.17 261.59 450.69
  A 1.64 1.63 11.5 0 0 260.89 449.64
  L 248.76 441.62
  Q 247.81 440.99 247.94 442.12
  Q 247.98 442.54 248.20 443.61
  C 251.92 462.14 255.21 477.13 261.36 498.59
  C 264.23 508.59 267.95 518.13 271.69 527.80
  Q 271.88 528.29 272.37 528.11
  Q 277.26 526.33 282.47 526.38
  Q 283.06 526.39 282.85 525.84
  Q 278.99 515.99 275.45 506.08
  Q 275.32 505.69 275.30 505.35
  Q 275.26 504.54 275.47 504.63"
/>
<path stroke="#1f68af" vector-effect="non-scaling-stroke" d="
  M 271.61 493.61
  L 275.47 504.63"
/>
<path stroke="#183c66" vector-effect="non-scaling-stroke" d="
  M 150.30 510.26
  C 150.81 510.57 151.31 511.30 152.01 511.51
  C 153.71 512.02 155.11 512.79 156.77 513.37
  C 179.00 521.21 204.63 520.14 227.98 515.91
  Q 236.43 514.38 244.93 512.86
  A 0.38 0.37 -14.7 0 0 245.22 512.37
  L 242.22 502.94
  Q 242.06 502.43 241.54 502.55
  Q 234.14 504.16 226.75 505.75
  Q 204.01 510.64 180.75 510.56
  C 165.56 510.50 152.42 508.35 139.47 502.05
  A 0.04 0.04 0.0 0 0 139.43 502.11
  Q 144.47 506.70 150.30 510.26"
/>
<path stroke="#193763" vector-effect="non-scaling-stroke" d="
  M 342.18 620.82
  L 340.80 621.15
  Q 339.70 621.42 340.84 621.42
  L 343.35 621.42"
/>
<path stroke="#105873" vector-effect="non-scaling-stroke" d="
  M 343.35 621.42
  C 354.00 621.38 364.64 618.36 373.28 612.03
  C 376.27 609.85 379.11 607.99 381.79 605.23
  C 385.78 601.11 389.53 597.72 394.50 591.03
  Q 409.35 571.04 418.66 547.94
  Q 422.36 538.76 426.00 529.44
  Q 426.18 528.98 425.70 528.83
  L 416.22 525.87
  A 0.79 0.78 -72.4 0 0 415.24 526.38
  Q 407.94 548.43 397.20 568.91
  C 390.37 581.96 382.88 592.59 372.94 602.70
  C 364.61 611.17 353.87 618.66 342.18 620.82"
/>
<path stroke="#197cb8" vector-effect="non-scaling-stroke" d="
  M 343.35 621.42
  Q 342.33 621.15 342.18 620.82"
/>
<path stroke="#193763" vector-effect="non-scaling-stroke" d="
  M 271.41 539.01
  Q 260.34 545.55 260.11 557.75
  Q 259.81 573.10 273.61 579.65"
/>
<path stroke="#16446a" vector-effect="non-scaling-stroke" d="
  M 273.61 579.65
  Q 283.07 583.24 291.84 579.61"
/>
<path stroke="#193763" vector-effect="non-scaling-stroke" d="
  M 291.84 579.61
  Q 298.97 577.09 302.06 570.60"
/>
<path stroke="#105873" vector-effect="non-scaling-stroke" d="
  M 302.06 570.60
  C 309.81 558.24 304.04 543.26 291.02 537.57"
/>
<path stroke="#16446a" vector-effect="non-scaling-stroke" d="
  M 291.02 537.57
  Q 280.79 533.99 271.41 539.01"
/>
<path stroke="#1689bf" vector-effect="non-scaling-stroke" d="
  M 291.02 537.57
  L 290.88 539.77
  Q 290.85 540.23 290.60 540.62
  Q 290.25 541.17 290.41 541.76
  C 290.68 542.72 290.77 543.19 290.46 543.98
  Q 290.29 544.42 290.37 544.90
  Q 290.64 546.47 290.44 548.05
  Q 290.38 548.55 290.54 549.03
  Q 291.16 550.81 290.22 552.41
  Q 290.06 552.67 290.27 552.89
  Q 290.97 553.60 290.39 554.12
  Q 290.00 554.47 290.34 554.87
  Q 290.86 555.48 290.46 556.06
  Q 290.22 556.40 290.36 556.79
  Q 290.99 558.52 290.39 560.28
  Q 290.23 560.72 290.49 561.12
  Q 290.85 561.69 290.39 562.13
  Q 290.01 562.48 290.35 562.88
  Q 290.86 563.48 290.46 564.06
  Q 290.22 564.40 290.36 564.78
  Q 291.00 566.54 290.40 568.34
  Q 290.25 568.78 290.50 569.17
  Q 290.84 569.71 290.39 570.13
  Q 290.01 570.48 290.35 570.88
  Q 290.91 571.53 290.38 572.16
  Q 290.06 572.53 290.37 572.91
  Q 290.89 573.54 290.39 574.15
  Q 290.08 574.52 290.40 574.88
  Q 290.91 575.44 290.49 576.01
  Q 290.24 576.35 290.39 576.75
  L 291.44 579.50"
/>
<path stroke="#1f68af" vector-effect="non-scaling-stroke" d="
  M 291.44 579.50
  Q 291.64 579.55 291.84 579.61"
/>
<path stroke="#1f68af" vector-effect="non-scaling-stroke" d="
  M 273.61 579.65
  Q 273.40 578.63 272.33 578.49
  A 1.05 1.05 0.0 0 1 271.43 577.33
  C 271.67 575.16 272.23 573.11 272.04 570.91
  C 271.53 564.98 272.01 559.29 271.81 553.40
  C 271.70 550.19 271.95 547.01 271.69 543.84
  Q 271.50 541.50 271.41 539.01"
/>
<path stroke="#197cb8" vector-effect="non-scaling-stroke" d="
  M 302.06 570.60
  Q 297.93 576.02 291.44 579.50"
/>
<path stroke="#16446a" vector-effect="non-scaling-stroke" d="
  M 323.15 586.09
  L 311.25 574.71
  Q 311.07 574.53 310.92 574.74
  L 306.03 581.31
  Q 305.87 581.53 306.07 581.72
  Q 314.01 589.29 324.26 593.01
  C 330.91 595.42 337.97 595.49 344.94 594.56
  Q 345.90 594.43 344.94 594.28
  C 343.03 593.99 340.98 594.08 339.13 593.57
  Q 330.97 591.35 324.04 586.44
  Q 323.95 586.38 323.75 586.36
  Q 323.40 586.34 323.15 586.09"
/>
</g>
<path fill="#10121e" d="
  M 0.00 0.00
  L 679.00 0.00
  L 679.00 679.00
  L 0.00 679.00
  L 0.00 0.00
  Z
  M 407.71 135.53
  C 426.68 183.85 435.50 234.60 439.69 286.12
  Q 439.48 286.27 439.23 286.28
  Q 439.04 286.29 438.81 286.13
  Q 420.88 274.00 402.27 262.99
  Q 393.44 257.83 384.57 252.79
  C 383.68 252.28 382.66 252.00 381.70 251.35
  Q 380.09 250.27 379.71 250.07
  Q 365.48 242.61 351.41 235.54
  Q 350.82 235.24 351.42 234.96
  C 372.51 224.88 393.57 215.72 415.61 207.70
  Q 416.16 207.50 416.02 206.93
  L 413.54 196.75
  Q 413.35 195.95 412.57 196.23
  Q 399.00 201.11 385.49 206.07
  C 383.45 206.82 381.34 208.05 379.10 208.81
  C 373.45 210.73 367.80 213.70 362.90 215.81
  C 359.13 217.43 355.39 218.88 351.66 220.89
  Q 349.41 222.10 347.09 223.17
  Q 342.05 225.47 336.99 228.01
  A 1.86 1.86 0.0 0 1 335.41 228.05
  L 319.40 220.94
  Q 292.89 209.69 264.70 201.03
  Q 269.18 180.98 275.76 161.66
  Q 283.47 137.89 296.14 116.78
  Q 297.67 114.22 299.71 111.54
  Q 301.62 109.01 303.54 106.50
  C 312.04 95.34 323.08 85.04 338.35 81.62
  Q 338.37 81.61 338.37 81.63
  Q 338.37 81.64 338.36 81.66
  Q 338.35 81.69 338.31 81.69
  Q 326.84 80.52 318.29 84.08
  Q 305.59 89.35 295.53 101.77
  Q 282.10 118.35 273.48 138.01
  Q 266.40 153.48 261.48 169.77
  Q 257.25 183.75 253.43 197.71
  C 236.19 192.51 216.09 188.94 199.16 186.64
  Q 198.70 186.58 198.91 186.99
  C 200.53 190.21 200.46 195.38 200.44 198.55
  Q 200.43 199.08 200.96 199.15
  C 226.14 202.61 248.84 208.82 273.28 216.73
  Q 279.87 219.08 286.49 221.36
  C 296.08 224.67 305.38 228.59 314.82 232.24
  C 317.97 233.47 321.75 235.43 325.41 236.74
  Q 334.28 240.82 343.48 244.81
  C 346.28 246.02 349.15 247.74 352.23 249.27
  Q 379.72 262.88 407.79 280.00
  Q 440.81 300.51 466.59 320.41
  Q 496.50 343.48 526.92 373.74
  C 551.75 399.49 572.78 425.73 586.23 457.30
  C 592.50 472.04 596.08 489.78 591.87 505.57
  Q 591.74 506.05 591.99 505.62
  C 619.89 457.18 554.20 383.25 521.86 352.84
  Q 521.49 352.49 521.83 352.12
  L 540.19 332.36
  Q 543.38 330.01 545.10 326.79
  L 547.74 323.98
  Q 548.02 323.69 547.66 323.52
  Q 542.82 321.26 538.95 317.74
  Q 538.39 316.41 537.18 315.85
  Q 536.68 315.61 536.31 316.03
  L 534.79 317.77
  Q 525.59 329.76 515.36 340.64
  Q 514.01 341.66 513.33 342.77
  A 1.10 1.10 0.0 0 1 511.65 343.02
  C 493.12 326.28 473.47 310.83 453.26 296.09
  C 452.80 295.75 452.59 295.21 452.23 294.77
  C 449.67 261.86 446.13 232.08 438.94 199.96
  Q 474.91 188.67 506.25 185.56
  C 531.13 183.09 559.08 183.71 579.65 195.79
  Q 580.89 196.52 579.84 195.53
  C 558.12 174.95 522.20 174.12 494.49 177.15
  Q 464.98 180.38 436.45 188.80
  C 430.07 162.97 421.87 137.57 409.94 113.98
  C 396.17 86.38 371.70 49.05 335.22 52.86
  Q 335.11 52.88 335.03 52.94
  Q 334.91 53.03 334.88 53.15
  Q 334.82 53.36 335.03 53.38
  C 343.01 54.26 348.95 57.27 355.71 61.25
  Q 359.09 63.24 361.75 65.39
  C 383.63 83.12 396.77 109.34 407.71 135.53
  Z
  M 158.94 175.00
  Q 152.69 177.45 149.05 183.26
  C 141.00 196.09 146.67 212.47 161.01 217.40
  Q 167.78 219.53 174.20 217.64
  Q 180.60 215.98 182.84 212.54
  C 193.46 204.00 193.07 189.01 184.09 179.73
  Q 183.55 178.98 182.75 178.49
  Q 180.41 175.66 177.24 175.12
  L 172.73 173.68
  Q 166.53 172.15 158.94 175.00
  Z
  M 135.95 190.30
  Q 127.77 193.32 124.49 194.62
  C 119.46 196.60 113.15 201.63 109.02 206.04
  Q 104.42 210.95 103.37 213.37
  Q 100.99 218.84 98.65 224.32
  Q 98.56 224.53 98.77 224.62
  L 98.78 224.63
  Q 98.99 224.72 99.08 224.50
  Q 99.68 223.05 101.16 221.16
  C 109.82 210.06 122.40 203.73 135.62 200.69
  Q 135.84 200.64 135.85 200.42
  L 136.21 190.48
  A 0.19 0.19 0.0 0 0 135.95 190.30
  Z
  M 558.73 215.65
  C 568.82 224.99 571.14 240.61 568.34 253.41
  C 567.91 255.37 567.55 258.61 566.42 261.08
  A 0.73 0.72 -72.8 0 0 566.95 262.10
  Q 572.84 263.15 577.74 266.51
  A 0.59 0.58 24.6 0 0 578.64 266.18
  C 584.16 244.95 578.35 226.33 558.85 215.47
  Q 558.06 215.03 558.73 215.65
  Z
  M 242.35 399.08
  Q 211.66 376.45 185.11 349.49
  A 0.45 0.45 0.0 0 1 185.12 348.85
  C 192.55 341.77 200.26 335.01 207.84 328.10
  Q 211.85 324.45 216.29 321.41
  C 219.43 319.64 221.10 318.39 221.10 315.25
  Q 221.11 308.72 221.15 300.57
  Q 219.10 300.98 217.59 302.85
  Q 217.30 303.20 216.89 303.40
  Q 216.26 303.71 215.25 304.51
  Q 192.55 322.49 175.07 339.14
  C 161.05 323.68 148.53 307.73 138.46 289.79
  C 129.12 273.13 122.69 255.96 125.46 236.65
  Q 125.52 236.20 125.88 235.91
  Q 126.20 235.64 126.13 235.22
  Q 126.04 234.72 125.79 235.16
  C 116.69 251.16 118.78 268.97 125.86 285.60
  C 133.14 302.70 142.29 316.69 154.18 331.38
  C 163.90 343.40 171.92 353.26 184.67 365.62
  C 203.04 383.60 223.14 399.89 243.75 415.22
  C 259.64 427.17 276.45 437.92 293.31 448.41
  Q 323.90 467.46 364.01 485.90
  Q 374.04 490.51 387.56 495.60
  Q 405.98 503.18 425.32 508.95
  Q 458.14 519.41 486.00 522.29
  C 511.99 524.98 549.12 525.73 565.76 501.03
  C 566.92 499.31 567.52 497.21 568.32 495.61
  Q 569.50 493.22 569.98 491.06
  Q 570.23 489.95 569.57 490.88
  C 550.33 518.24 499.50 513.41 471.50 508.07
  Q 453.01 504.55 435.08 498.78
  Q 435.93 496.32 436.26 495.00
  Q 446.29 455.07 450.01 414.06
  Q 450.13 412.76 450.93 412.21
  Q 478.25 392.58 502.31 370.82
  Q 502.72 370.44 503.74 369.81
  Q 504.13 369.57 503.80 369.26
  L 495.19 361.25
  Q 494.79 360.88 494.39 361.25
  Q 474.04 379.92 451.67 396.91
  Q 454.49 360.66 453.63 325.51
  A 0.74 0.73 -73.5 0 0 453.32 324.93
  L 441.98 316.76
  Q 441.58 316.47 441.60 316.96
  Q 443.06 357.57 440.03 398.06
  C 439.43 406.04 438.26 415.17 437.43 423.74
  Q 436.11 437.28 431.43 463.75
  Q 428.75 478.93 424.78 494.52
  Q 424.64 495.06 424.19 495.31
  Q 423.85 495.49 423.31 495.31
  Q 417.92 493.51 412.58 491.82
  Q 385.34 481.78 359.02 469.63
  Q 358.46 469.37 358.98 469.05
  Q 361.68 467.35 365.79 465.54
  Q 372.68 462.51 380.99 457.57
  Q 390.98 451.64 400.89 445.58
  Q 412.83 438.28 424.60 430.67
  Q 424.98 430.42 425.02 429.97
  L 426.54 415.67
  A 0.10 0.10 0.0 0 0 426.39 415.57
  L 385.26 441.19
  Q 385.03 441.34 384.90 441.57
  Q 384.73 441.89 384.31 441.87
  Q 383.89 441.85 383.53 442.06
  Q 373.02 448.19 362.30 453.94
  Q 362.23 453.97 362.21 454.05
  Q 362.20 454.09 362.19 454.13
  Q 362.15 454.28 362.01 454.35
  L 348.20 461.71
  C 346.60 462.68 345.52 463.11 343.69 462.18
  Q 330.19 455.25 326.02 452.99
  Q 293.14 435.20 255.53 408.77
  Q 255.10 407.44 254.96 406.12
  Q 249.86 357.80 251.40 309.25
  Q 251.62 302.24 252.18 295.25
  Q 252.29 293.86 252.86 293.47
  L 273.15 279.79
  Q 273.55 279.51 273.98 279.29
  Q 274.48 279.02 275.23 278.53
  Q 293.46 266.48 317.62 253.06
  C 319.33 252.10 321.51 250.31 323.78 249.46
  Q 324.77 249.10 323.80 248.67
  L 310.23 242.79
  A 2.01 2.00 -47.2 0 0 308.48 242.86
  Q 295.05 250.09 282.18 258.32
  Q 280.31 259.51 278.40 260.63
  C 276.53 261.74 274.10 263.69 271.74 264.89
  Q 269.62 265.96 268.69 266.56
  Q 261.09 271.45 253.39 276.87
  Q 255.47 250.72 259.81 225.74
  A 0.88 0.88 0.0 0 0 259.17 224.74
  L 249.04 222.00
  A 0.62 0.62 0.0 0 0 248.27 222.52
  C 246.53 235.44 244.37 248.54 243.11 261.07
  Q 241.90 273.12 240.74 285.17
  C 240.40 288.72 240.46 292.72 240.16 296.51
  Q 239.72 302.21 239.67 305.00
  C 239.12 340.13 239.28 365.77 242.35 399.08
  Z
  M 564.20 316.36
  L 568.22 315.33
  Q 576.75 312.28 580.81 304.28
  C 587.58 290.93 580.73 276.54 566.64 272.01
  L 563.21 271.39
  C 550.06 270.12 538.63 279.66 538.12 292.99
  C 537.56 307.63 549.90 318.14 564.20 316.36
  Z
  M 333.02 312.69
  L 324.62 314.47
  Q 318.83 316.27 313.66 319.92
  C 292.31 335.45 290.97 367.51 312.20 384.04
  Q 317.38 388.06 323.09 390.11
  Q 328.50 392.11 333.70 392.44
  Q 343.72 393.23 352.70 389.33
  Q 358.25 386.97 361.49 384.05
  Q 364.19 382.15 365.50 380.76
  C 380.91 364.24 381.06 339.03 364.15 323.21
  Q 359.54 318.85 353.37 316.10
  Q 344.21 311.81 333.02 312.69
  Z
  M 103.11 431.66
  C 89.65 460.64 85.18 495.63 116.56 514.81
  Q 116.78 514.95 116.61 514.75
  C 79.30 472.44 133.19 404.44 160.87 373.37
  Q 161.60 372.55 162.53 371.87
  Q 162.91 371.59 162.58 371.25
  L 153.15 361.75
  Q 152.78 361.38 152.44 361.78
  Q 148.13 366.79 143.74 371.73
  C 127.78 389.70 113.26 409.80 103.11 431.66
  Z
  M 275.47 504.63
  Q 284.98 501.53 293.76 498.49
  C 303.23 495.20 313.30 490.51 323.16 486.56
  Q 323.34 486.49 323.17 486.40
  L 310.27 479.73
  A 1.34 1.32 47.8 0 0 309.19 479.67
  C 296.75 484.49 284.52 489.80 271.61 493.61
  Q 265.74 472.17 261.59 450.69
  A 1.64 1.63 11.5 0 0 260.89 449.64
  L 248.76 441.62
  Q 247.81 440.99 247.94 442.12
  Q 247.98 442.54 248.20 443.61
  C 251.92 462.14 255.21 477.13 261.36 498.59
  C 264.23 508.59 267.95 518.13 271.69 527.80
  Q 271.88 528.29 272.37 528.11
  Q 277.26 526.33 282.47 526.38
  Q 283.06 526.39 282.85 525.84
  Q 278.99 515.99 275.45 506.08
  Q 275.32 505.69 275.30 505.35
  Q 275.26 504.54 275.47 504.63
  Z
  M 150.30 510.26
  C 150.81 510.57 151.31 511.30 152.01 511.51
  C 153.71 512.02 155.11 512.79 156.77 513.37
  C 179.00 521.21 204.63 520.14 227.98 515.91
  Q 236.43 514.38 244.93 512.86
  A 0.38 0.37 -14.7 0 0 245.22 512.37
  L 242.22 502.94
  Q 242.06 502.43 241.54 502.55
  Q 234.14 504.16 226.75 505.75
  Q 204.01 510.64 180.75 510.56
  C 165.56 510.50 152.42 508.35 139.47 502.05
  A 0.04 0.04 0.0 0 0 139.43 502.11
  Q 144.47 506.70 150.30 510.26
  Z
  M 342.18 620.82
  L 340.80 621.15
  Q 339.70 621.42 340.84 621.42
  L 343.35 621.42
  C 354.00 621.38 364.64 618.36 373.28 612.03
  C 376.27 609.85 379.11 607.99 381.79 605.23
  C 385.78 601.11 389.53 597.72 394.50 591.03
  Q 409.35 571.04 418.66 547.94
  Q 422.36 538.76 426.00 529.44
  Q 426.18 528.98 425.70 528.83
  L 416.22 525.87
  A 0.79 0.78 -72.4 0 0 415.24 526.38
  Q 407.94 548.43 397.20 568.91
  C 390.37 581.96 382.88 592.59 372.94 602.70
  C 364.61 611.17 353.87 618.66 342.18 620.82
  Z
  M 271.41 539.01
  Q 260.34 545.55 260.11 557.75
  Q 259.81 573.10 273.61 579.65
  Q 283.07 583.24 291.84 579.61
  Q 298.97 577.09 302.06 570.60
  C 309.81 558.24 304.04 543.26 291.02 537.57
  Q 280.79 533.99 271.41 539.01
  Z
  M 323.15 586.09
  L 311.25 574.71
  Q 311.07 574.53 310.92 574.74
  L 306.03 581.31
  Q 305.87 581.53 306.07 581.72
  Q 314.01 589.29 324.26 593.01
  C 330.91 595.42 337.97 595.49 344.94 594.56
  Q 345.90 594.43 344.94 594.28
  C 343.03 593.99 340.98 594.08 339.13 593.57
  Q 330.97 591.35 324.04 586.44
  Q 323.95 586.38 323.75 586.36
  Q 323.40 586.34 323.15 586.09
  Z"
/>
<path fill="#109dc8" d="
  M 409.94 113.98
  Q 409.38 114.17 409.33 114.67
  Q 409.30 115.05 409.67 115.15
  L 410.00 115.23
  Q 410.41 115.34 409.59 115.95
  Q 409.40 116.10 409.27 116.32
  Q 409.15 116.53 409.24 116.75
  Q 409.56 117.60 409.21 118.39
  Q 409.07 118.71 409.14 119.05
  Q 409.26 119.61 408.80 119.85
  A 0.59 0.59 0.0 0 0 408.59 120.71
  Q 409.13 121.48 408.48 122.23
  Q 408.24 122.49 408.50 122.75
  L 408.77 123.02
  Q 409.13 123.38 408.94 123.85
  Q 408.66 124.53 409.08 125.31
  Q 409.30 125.70 408.98 126.02
  L 408.55 126.45
  A 0.37 0.37 0.0 0 0 408.55 126.97
  L 408.75 127.17
  Q 409.12 127.54 408.83 127.97
  Q 408.43 128.56 408.93 129.18
  Q 409.25 129.57 409.10 130.05
  Q 408.83 130.94 408.91 131.87
  Q 408.98 132.81 408.24 133.14
  Q 407.81 133.33 407.84 133.80
  Q 407.86 134.03 408.02 134.20
  Q 408.30 134.52 408.08 134.89
  L 407.71 135.53
  C 396.77 109.34 383.63 83.12 361.75 65.39
  Q 359.09 63.24 355.71 61.25
  C 348.95 57.27 343.01 54.26 335.03 53.38
  Q 334.82 53.36 334.88 53.15
  Q 334.91 53.03 335.03 52.94
  Q 335.11 52.88 335.22 52.86
  C 371.70 49.05 396.17 86.38 409.94 113.98
  Z"
/>
<path fill="#1f66ad" d="
  M 275.76 161.66
  Q 274.75 161.57 274.43 158.68
  Q 274.39 158.28 274.62 157.95
  Q 275.07 157.32 274.43 156.93
  A 0.58 0.57 36.6 0 1 274.30 156.06
  Q 274.99 155.26 274.18 154.71
  A 0.23 0.23 0.0 0 1 274.15 154.35
  L 274.51 153.99
  A 0.17 0.17 0.0 0 0 274.40 153.70
  Q 274.02 153.68 273.74 153.60
  A 0.12 0.12 0.0 0 1 273.79 153.37
  Q 274.21 153.43 274.54 153.22
  A 0.10 0.09 -39.8 0 0 274.56 153.07
  Q 274.43 152.94 274.29 152.80
  Q 273.78 152.27 274.43 151.91
  L 274.74 151.74
  Q 275.71 151.20 274.76 151.13
  Q 274.44 151.10 274.33 150.78
  Q 274.19 150.35 274.50 150.02
  Q 275.18 149.32 274.34 148.88
  A 0.46 0.46 0.0 0 1 274.38 148.05
  L 274.94 147.82
  Q 275.55 147.57 275.01 147.19
  L 274.66 146.93
  Q 274.29 146.66 274.43 146.22
  L 275.32 143.53
  A 0.50 0.49 -78.5 0 0 274.89 142.88
  Q 274.27 142.84 273.90 142.36
  Q 273.61 141.99 274.06 141.88
  L 274.43 141.78
  Q 274.90 141.66 274.56 141.31
  L 274.26 141.02
  Q 274.07 140.82 274.12 140.56
  Q 274.42 139.07 273.48 138.01
  Q 282.10 118.35 295.53 101.77
  Q 305.59 89.35 318.29 84.08
  Q 326.84 80.52 338.31 81.69
  Q 338.35 81.69 338.36 81.66
  Q 338.37 81.64 338.37 81.63
  Q 338.37 81.61 338.35 81.62
  C 323.08 85.04 312.04 95.34 303.54 106.50
  Q 301.62 109.01 299.71 111.54
  Q 297.67 114.22 296.14 116.78
  Q 283.47 137.89 275.76 161.66
  Z"
/>
<path fill="#0badd0" d="
  M 409.94 113.98
  C 421.87 137.57 430.07 162.97 436.45 188.80
  L 438.94 199.96
  C 446.13 232.08 449.67 261.86 452.23 294.77
  Q 452.01 294.93 451.56 294.88
  Q 451.46 294.87 451.40 294.78
  L 451.18 294.44
  Q 451.03 294.21 450.81 294.06
  L 439.69 286.12
  C 435.50 234.60 426.68 183.85 407.71 135.53
  L 408.08 134.89
  Q 408.30 134.52 408.02 134.20
  Q 407.86 134.03 407.84 133.80
  Q 407.81 133.33 408.24 133.14
  Q 408.98 132.81 408.91 131.87
  Q 408.83 130.94 409.10 130.05
  Q 409.25 129.57 408.93 129.18
  Q 408.43 128.56 408.83 127.97
  Q 409.12 127.54 408.75 127.17
  L 408.55 126.97
  A 0.37 0.37 0.0 0 1 408.55 126.45
  L 408.98 126.02
  Q 409.30 125.70 409.08 125.31
  Q 408.66 124.53 408.94 123.85
  Q 409.13 123.38 408.77 123.02
  L 408.50 122.75
  Q 408.24 122.49 408.48 122.23
  Q 409.13 121.48 408.59 120.71
  A 0.59 0.59 0.0 0 1 408.80 119.85
  Q 409.26 119.61 409.14 119.05
  Q 409.07 118.71 409.21 118.39
  Q 409.56 117.60 409.24 116.75
  Q 409.15 116.53 409.27 116.32
  Q 409.40 116.10 409.59 115.95
  Q 410.41 115.34 410.00 115.23
  L 409.67 115.15
  Q 409.30 115.05 409.33 114.67
  Q 409.38 114.17 409.94 113.98
  Z"
/>
<path fill="#225ba8" d="
  M 273.48 138.01
  Q 274.42 139.07 274.12 140.56
  Q 274.07 140.82 274.26 141.02
  L 274.56 141.31
  Q 274.90 141.66 274.43 141.78
  L 274.06 141.88
  Q 273.61 141.99 273.90 142.36
  Q 274.27 142.84 274.89 142.88
  A 0.50 0.49 -78.5 0 1 275.32 143.53
  L 274.43 146.22
  Q 274.29 146.66 274.66 146.93
  L 275.01 147.19
  Q 275.55 147.57 274.94 147.82
  L 274.38 148.05
  A 0.46 0.46 0.0 0 0 274.34 148.88
  Q 275.18 149.32 274.50 150.02
  Q 274.19 150.35 274.33 150.78
  Q 274.44 151.10 274.76 151.13
  Q 275.71 151.20 274.74 151.74
  L 274.43 151.91
  Q 273.78 152.27 274.29 152.80
  Q 274.43 152.94 274.56 153.07
  A 0.10 0.09 -39.8 0 1 274.54 153.22
  Q 274.21 153.43 273.79 153.37
  A 0.12 0.12 0.0 0 0 273.74 153.60
  Q 274.02 153.68 274.40 153.70
  A 0.17 0.17 0.0 0 1 274.51 153.99
  L 274.15 154.35
  A 0.23 0.23 0.0 0 0 274.18 154.71
  Q 274.99 155.26 274.30 156.06
  A 0.58 0.57 36.6 0 0 274.43 156.93
  Q 275.07 157.32 274.62 157.95
  Q 274.39 158.28 274.43 158.68
  Q 274.75 161.57 275.76 161.66
  Q 269.18 180.98 264.70 201.03
  L 256.00 198.66
  L 253.43 197.71
  Q 257.25 183.75 261.48 169.77
  Q 266.40 153.48 273.48 138.01
  Z"
/>
<path fill="#1b75b5" d="
  M 172.73 173.68
  Q 171.74 182.86 172.20 192.10
  Q 172.20 192.22 172.27 192.22
  Q 172.37 192.23 172.47 192.23
  Q 172.57 192.23 172.58 192.27
  Q 172.92 193.34 172.41 194.15
  Q 172.16 194.54 172.16 195.00
  Q 172.15 205.37 172.16 215.75
  Q 172.16 217.26 174.20 217.64
  Q 167.78 219.53 161.01 217.40
  Q 160.35 216.39 159.32 215.66
  Q 158.94 215.39 158.94 214.93
  L 158.94 175.00
  Q 166.53 172.15 172.73 173.68
  Z"
/>
<path fill="#109dc8" d="
  M 172.73 173.68
  L 177.24 175.12
  L 182.75 178.49
  Q 183.55 178.98 184.09 179.73
  Q 182.44 179.63 182.39 181.12
  Q 181.93 194.49 182.84 212.54
  Q 180.60 215.98 174.20 217.64
  Q 172.16 217.26 172.16 215.75
  Q 172.15 205.37 172.16 195.00
  Q 172.16 194.54 172.41 194.15
  Q 172.92 193.34 172.58 192.27
  Q 172.57 192.23 172.47 192.23
  Q 172.37 192.23 172.27 192.22
  Q 172.20 192.22 172.20 192.10
  Q 171.74 182.86 172.73 173.68
  Z"
/>
<path fill="#225ba8" d="
  M 158.94 175.00
  L 158.94 214.93
  Q 158.94 215.39 159.32 215.66
  Q 160.35 216.39 161.01 217.40
  C 146.67 212.47 141.00 196.09 149.05 183.26
  Q 152.69 177.45 158.94 175.00
  Z"
/>
<path fill="#225ba8" d="
  M 182.75 178.49
  L 177.24 175.12
  Q 180.41 175.66 182.75 178.49
  Z"
/>
<path fill="#109dc8" d="
  M 438.94 199.96
  L 436.45 188.80
  Q 464.98 180.38 494.49 177.15
  C 522.20 174.12 558.12 174.95 579.84 195.53
  Q 580.89 196.52 579.65 195.79
  C 559.08 183.71 531.13 183.09 506.25 185.56
  Q 474.91 188.67 438.94 199.96
  Z"
/>
<path fill="#0badd0" d="
  M 184.09 179.73
  C 193.07 189.01 193.46 204.00 182.84 212.54
  Q 181.93 194.49 182.39 181.12
  Q 182.44 179.63 184.09 179.73
  Z"
/>
<path fill="#1f66ad" d="
  M 253.43 197.71
  L 256.00 198.66
  Q 255.91 198.83 255.76 198.92
  Q 255.13 199.32 255.51 199.50
  Q 255.62 199.55 255.75 199.62
  Q 255.84 199.66 255.81 199.75
  Q 255.39 200.85 256.33 201.23
  Q 256.67 201.37 256.39 201.60
  Q 255.87 202.01 255.90 202.60
  A 0.54 0.53 82.9 0 0 256.55 203.11
  Q 257.09 202.99 257.39 203.38
  A 0.16 0.16 0.0 0 1 257.27 203.64
  L 256.82 203.65
  Q 256.30 203.66 256.09 204.14
  Q 256.01 204.33 255.89 204.49
  A 0.28 0.28 0.0 0 0 256.07 204.94
  L 257.49 205.20
  A 0.25 0.25 0.0 0 1 257.53 205.68
  L 256.65 205.98
  Q 255.67 206.31 256.54 206.87
  Q 257.06 207.20 257.69 207.11
  A 0.62 0.61 86.0 0 1 258.39 207.72
  L 258.39 210.50
  A 0.72 0.70 -86.4 0 0 259.00 211.21
  Q 260.46 211.41 261.60 212.33
  Q 261.96 212.62 262.43 212.62
  Q 263.62 212.61 264.68 213.08
  Q 266.02 213.67 266.72 213.81
  Q 270.80 214.61 273.28 216.73
  C 248.84 208.82 226.14 202.61 200.96 199.15
  Q 200.43 199.08 200.44 198.55
  C 200.46 195.38 200.53 190.21 198.91 186.99
  Q 198.70 186.58 199.16 186.64
  C 216.09 188.94 236.19 192.51 253.43 197.71
  Z"
/>
<path fill="#225ba8" d="
  M 135.95 190.30
  A 0.19 0.19 0.0 0 1 136.21 190.48
  L 135.85 200.42
  Q 135.84 200.64 135.62 200.69
  C 122.40 203.73 109.82 210.06 101.16 221.16
  Q 99.68 223.05 99.08 224.50
  Q 98.99 224.72 98.78 224.63
  L 98.77 224.62
  Q 98.56 224.53 98.65 224.32
  Q 100.99 218.84 103.37 213.37
  Q 104.42 210.95 109.02 206.04
  C 113.15 201.63 119.46 196.60 124.49 194.62
  Q 127.77 193.32 135.95 190.30
  Z"
/>
<path fill="#1589be" d="
  M 402.27 262.99
  Q 401.04 263.08 399.73 262.25
  Q 399.28 261.96 399.38 262.49
  Q 399.45 262.90 399.28 263.19
  A 0.46 0.46 0.0 0 0 399.67 263.88
  L 400.19 263.88
  A 0.87 0.87 0.0 0 1 400.91 264.26
  Q 402.22 266.12 402.13 268.31
  Q 402.11 268.76 402.55 268.88
  Q 403.00 269.00 403.32 268.62
  Q 403.59 268.31 403.67 268.71
  Q 403.73 268.99 403.62 269.31
  Q 403.42 269.86 402.84 269.85
  Q 402.55 269.84 402.49 270.24
  Q 402.42 270.69 402.84 270.87
  Q 403.98 271.37 404.14 272.58
  Q 404.22 273.13 404.77 273.13
  L 405.27 273.13
  Q 406.15 273.13 405.67 273.87
  Q 405.45 274.19 405.47 274.61
  Q 405.48 274.94 405.68 275.20
  Q 405.89 275.48 406.01 275.84
  Q 406.06 275.98 405.92 276.00
  Q 405.76 276.03 405.68 276.12
  Q 405.39 276.44 405.75 276.25
  Q 405.89 276.18 406.02 276.12
  A 0.17 0.17 0.0 0 1 406.27 276.27
  Q 406.26 277.70 407.64 278.23
  A 0.43 0.43 0.0 0 1 407.87 278.82
  Q 407.63 279.31 407.79 280.00
  Q 379.72 262.88 352.23 249.27
  C 349.15 247.74 346.28 246.02 343.48 244.81
  Q 334.28 240.82 325.41 236.74
  L 320.51 232.63
  A 1.02 1.02 0.0 0 1 320.14 231.91
  Q 320.02 230.40 318.48 230.14
  Q 318.12 230.08 318.12 229.71
  L 318.12 228.68
  Q 318.12 228.22 318.56 228.06
  L 319.22 227.82
  Q 319.68 227.66 319.53 227.19
  Q 319.42 226.88 318.99 226.88
  Q 317.66 226.87 316.33 226.85
  A 0.16 0.16 0.0 0 1 316.18 226.67
  L 316.21 226.42
  Q 316.26 226.10 316.58 226.13
  Q 318.21 226.32 318.15 224.97
  Q 318.10 223.87 316.93 223.19
  Q 316.46 222.91 316.52 222.36
  Q 316.68 220.84 319.40 220.94
  L 335.41 228.05
  A 1.86 1.86 0.0 0 0 336.99 228.01
  Q 342.05 225.47 347.09 223.17
  Q 349.41 222.10 351.66 220.89
  C 355.39 218.88 359.13 217.43 362.90 215.81
  C 367.80 213.70 373.45 210.73 379.10 208.81
  C 381.34 208.05 383.45 206.82 385.49 206.07
  Q 399.00 201.11 412.57 196.23
  Q 413.35 195.95 413.54 196.75
  L 416.02 206.93
  Q 416.16 207.50 415.61 207.70
  C 393.57 215.72 372.51 224.88 351.42 234.96
  Q 350.82 235.24 351.41 235.54
  Q 365.48 242.61 379.71 250.07
  Q 380.09 250.27 381.70 251.35
  C 382.66 252.00 383.68 252.28 384.57 252.79
  Q 393.44 257.83 402.27 262.99
  Z"
/>
<path fill="#1b75b5" d="
  M 256.00 198.66
  L 264.70 201.03
  Q 292.89 209.69 319.40 220.94
  Q 316.68 220.84 316.52 222.36
  Q 316.46 222.91 316.93 223.19
  Q 318.10 223.87 318.15 224.97
  Q 318.21 226.32 316.58 226.13
  Q 316.26 226.10 316.21 226.42
  L 316.18 226.67
  A 0.16 0.16 0.0 0 0 316.33 226.85
  Q 317.66 226.87 318.99 226.88
  Q 319.42 226.88 319.53 227.19
  Q 319.68 227.66 319.22 227.82
  L 318.56 228.06
  Q 318.12 228.22 318.12 228.68
  L 318.12 229.71
  Q 318.12 230.08 318.48 230.14
  Q 320.02 230.40 320.14 231.91
  A 1.02 1.02 0.0 0 0 320.51 232.63
  L 325.41 236.74
  C 321.75 235.43 317.97 233.47 314.82 232.24
  C 305.38 228.59 296.08 224.67 286.49 221.36
  Q 279.87 219.08 273.28 216.73
  Q 270.80 214.61 266.72 213.81
  Q 266.02 213.67 264.68 213.08
  Q 263.62 212.61 262.43 212.62
  Q 261.96 212.62 261.60 212.33
  Q 260.46 211.41 259.00 211.21
  A 0.72 0.70 -86.4 0 1 258.39 210.50
  L 258.39 207.72
  A 0.62 0.61 86.0 0 0 257.69 207.11
  Q 257.06 207.20 256.54 206.87
  Q 255.67 206.31 256.65 205.98
  L 257.53 205.68
  A 0.25 0.25 0.0 0 0 257.49 205.20
  L 256.07 204.94
  A 0.28 0.28 0.0 0 1 255.89 204.49
  Q 256.01 204.33 256.09 204.14
  Q 256.30 203.66 256.82 203.65
  L 257.27 203.64
  A 0.16 0.16 0.0 0 0 257.39 203.38
  Q 257.09 202.99 256.55 203.11
  A 0.54 0.53 82.9 0 1 255.90 202.60
  Q 255.87 202.01 256.39 201.60
  Q 256.67 201.37 256.33 201.23
  Q 255.39 200.85 255.81 199.75
  Q 255.84 199.66 255.75 199.62
  Q 255.62 199.55 255.51 199.50
  Q 255.13 199.32 255.76 198.92
  Q 255.91 198.83 256.00 198.66
  Z"
/>
<path fill="#0badd0" d="
  M 568.34 253.41
  C 571.14 240.61 568.82 224.99 558.73 215.65
  Q 558.06 215.03 558.85 215.47
  C 578.35 226.33 584.16 244.95 578.64 266.18
  A 0.59 0.58 24.6 0 1 577.74 266.51
  Q 572.84 263.15 566.95 262.10
  A 0.73 0.72 -72.8 0 1 566.42 261.08
  C 567.55 258.61 567.91 255.37 568.34 253.41
  Z"
/>
<path fill="#225ba8" d="
  M 253.39 276.87
  Q 252.08 284.65 252.86 293.47
  Q 252.29 293.86 252.18 295.25
  Q 251.62 302.24 251.40 309.25
  Q 249.86 357.80 254.96 406.12
  Q 255.10 407.44 255.53 408.77
  L 243.31 400.08
  Q 242.73 399.87 242.35 399.08
  C 239.28 365.77 239.12 340.13 239.67 305.00
  Q 239.72 302.21 240.16 296.51
  C 240.46 292.72 240.40 288.72 240.74 285.17
  Q 241.90 273.12 243.11 261.07
  C 244.37 248.54 246.53 235.44 248.27 222.52
  A 0.62 0.62 0.0 0 1 249.04 222.00
  L 259.17 224.74
  A 0.88 0.88 0.0 0 1 259.81 225.74
  Q 255.47 250.72 253.39 276.87
  Z"
/>
<path fill="#225ba8" d="
  M 175.07 339.14
  Q 175.07 339.35 176.49 340.06
  Q 176.99 340.32 176.91 340.88
  Q 176.74 342.03 177.12 342.51
  Q 178.55 344.26 179.61 346.28
  A 1.33 1.32 34.5 0 1 179.75 347.02
  Q 179.64 348.22 180.50 349.21
  Q 180.88 349.64 180.44 350.02
  Q 180.19 350.24 180.64 350.84
  A 0.99 0.94 81.1 0 0 181.07 351.17
  Q 181.81 351.45 181.21 352.07
  Q 180.81 352.48 181.22 352.89
  L 181.55 353.23
  Q 181.86 353.53 181.51 353.79
  Q 181.18 354.03 180.73 354.16
  Q 179.31 354.55 180.76 354.83
  L 182.50 355.17
  A 0.35 0.35 0.0 0 1 182.46 355.86
  Q 181.91 355.90 181.47 356.27
  Q 181.15 356.54 181.51 356.78
  Q 182.15 357.19 182.13 357.93
  Q 182.12 358.25 181.80 358.27
  Q 181.63 358.29 181.50 358.32
  A 0.16 0.16 0.0 0 0 181.54 358.63
  Q 182.51 358.62 183.22 359.29
  Q 183.53 359.59 183.19 359.85
  Q 182.91 360.07 182.88 360.37
  Q 182.79 361.15 183.69 361.19
  Q 184.07 361.20 183.86 361.52
  L 183.64 361.87
  A 0.46 0.45 34.6 0 0 183.76 362.50
  Q 185.42 363.69 184.67 365.62
  C 171.92 353.26 163.90 343.40 154.18 331.38
  C 142.29 316.69 133.14 302.70 125.86 285.60
  C 118.78 268.97 116.69 251.16 125.79 235.16
  Q 126.04 234.72 126.13 235.22
  Q 126.20 235.64 125.88 235.91
  Q 125.52 236.20 125.46 236.65
  C 122.69 255.96 129.12 273.13 138.46 289.79
  C 148.53 307.73 161.05 323.68 175.07 339.14
  Z"
/>
<path fill="#1b75b5" d="
  M 252.86 293.47
  Q 252.08 284.65 253.39 276.87
  Q 261.09 271.45 268.69 266.56
  Q 269.62 265.96 271.74 264.89
  C 274.10 263.69 276.53 261.74 278.40 260.63
  Q 280.31 259.51 282.18 258.32
  Q 295.05 250.09 308.48 242.86
  A 2.01 2.00 -47.2 0 1 310.23 242.79
  L 323.80 248.67
  Q 324.77 249.10 323.78 249.46
  C 321.51 250.31 319.33 252.10 317.62 253.06
  Q 293.46 266.48 275.23 278.53
  Q 274.48 279.02 273.98 279.29
  Q 273.55 279.51 273.15 279.79
  L 252.86 293.47
  Z"
/>
<path fill="#109dc8" d="
  M 402.27 262.99
  Q 420.88 274.00 438.81 286.13
  Q 439.04 286.29 439.23 286.28
  Q 439.48 286.27 439.69 286.12
  L 450.81 294.06
  Q 451.03 294.21 451.18 294.44
  L 451.40 294.78
  Q 451.46 294.87 451.56 294.88
  Q 452.01 294.93 452.23 294.77
  C 452.59 295.21 452.80 295.75 453.26 296.09
  C 473.47 310.83 493.12 326.28 511.65 343.02
  A 1.10 1.10 0.0 0 0 513.33 342.77
  Q 514.01 341.66 515.36 340.64
  Q 515.19 342.27 513.12 343.45
  Q 512.57 343.77 512.95 344.28
  Q 513.35 344.83 513.72 345.39
  Q 513.79 345.49 514.55 347.02
  Q 514.95 347.82 515.88 348.28
  A 0.87 0.85 14.5 0 1 516.36 349.08
  Q 516.33 349.83 517.08 350.22
  Q 517.60 350.49 517.77 351.06
  Q 518.06 352.09 518.56 353.09
  Q 518.82 353.62 518.96 354.19
  Q 519.39 355.89 518.68 355.87
  A 0.47 0.46 61.3 0 0 518.43 356.73
  Q 519.49 357.39 518.94 358.38
  Q 518.72 358.77 519.05 359.06
  Q 519.78 359.70 519.91 360.63
  Q 519.98 361.11 520.27 361.50
  Q 520.40 361.67 520.52 361.86
  Q 520.83 362.36 520.24 362.37
  L 519.78 362.37
  Q 518.80 362.37 519.71 362.76
  L 520.93 363.28
  A 0.42 0.30 -18.4 0 1 520.50 363.87
  Q 520.28 363.82 520.21 364.10
  Q 520.10 364.49 520.41 364.77
  Q 521.54 365.78 521.83 367.26
  Q 521.93 367.77 522.33 368.11
  Q 525.40 370.68 526.92 373.74
  Q 496.50 343.48 466.59 320.41
  Q 440.81 300.51 407.79 280.00
  Q 407.63 279.31 407.87 278.82
  A 0.43 0.43 0.0 0 0 407.64 278.23
  Q 406.26 277.70 406.27 276.27
  A 0.17 0.17 0.0 0 0 406.02 276.12
  Q 405.89 276.18 405.75 276.25
  Q 405.39 276.44 405.68 276.12
  Q 405.76 276.03 405.92 276.00
  Q 406.06 275.98 406.01 275.84
  Q 405.89 275.48 405.68 275.20
  Q 405.48 274.94 405.47 274.61
  Q 405.45 274.19 405.67 273.87
  Q 406.15 273.13 405.27 273.13
  L 404.77 273.13
  Q 404.22 273.13 404.14 272.58
  Q 403.98 271.37 402.84 270.87
  Q 402.42 270.69 402.49 270.24
  Q 402.55 269.84 402.84 269.85
  Q 403.42 269.86 403.62 269.31
  Q 403.73 268.99 403.67 268.71
  Q 403.59 268.31 403.32 268.62
  Q 403.00 269.00 402.55 268.88
  Q 402.11 268.76 402.13 268.31
  Q 402.22 266.12 400.91 264.26
  A 0.87 0.87 0.0 0 0 400.19 263.88
  L 399.67 263.88
  A 0.46 0.46 0.0 0 1 399.28 263.19
  Q 399.45 262.90 399.38 262.49
  Q 399.28 261.96 399.73 262.25
  Q 401.04 263.08 402.27 262.99
  Z"
/>
<path fill="#1f66ad" d="
  M 563.21 271.39
  L 561.25 271.43
  Q 560.73 271.44 560.70 271.96
  Q 560.46 276.00 560.91 280.00
  Q 560.96 280.40 560.80 280.74
  Q 560.63 281.09 560.63 281.47
  Q 560.80 295.37 560.64 309.27
  C 560.63 310.43 561.16 311.86 560.58 313.32
  A 2.26 2.25 10.2 0 0 562.74 316.41
  L 564.20 316.36
  C 549.90 318.14 537.56 307.63 538.12 292.99
  C 538.63 279.66 550.06 270.12 563.21 271.39
  Z"
/>
<path fill="#1589be" d="
  M 563.21 271.39
  L 566.64 272.01
  L 566.44 313.16
  Q 566.44 313.62 566.72 313.97
  Q 567.47 314.92 568.22 315.33
  L 564.20 316.36
  L 562.74 316.41
  A 2.26 2.25 10.2 0 1 560.58 313.32
  C 561.16 311.86 560.63 310.43 560.64 309.27
  Q 560.80 295.37 560.63 281.47
  Q 560.63 281.09 560.80 280.74
  Q 560.96 280.40 560.91 280.00
  Q 560.46 276.00 560.70 271.96
  Q 560.73 271.44 561.25 271.43
  L 563.21 271.39
  Z"
/>
<path fill="#109dc8" d="
  M 566.64 272.01
  C 580.73 276.54 587.58 290.93 580.81 304.28
  Q 576.75 312.28 568.22 315.33
  Q 567.47 314.92 566.72 313.97
  Q 566.44 313.62 566.44 313.16
  L 566.64 272.01
  Z"
/>
<path fill="#1f66ad" d="
  M 221.15 300.57
  L 219.88 317.43
  A 1.02 1.01 -15.3 0 1 219.43 318.21
  Q 217.53 319.51 216.29 321.41
  Q 211.85 324.45 207.84 328.10
  C 200.26 335.01 192.55 341.77 185.12 348.85
  A 0.45 0.45 0.0 0 0 185.11 349.49
  Q 211.66 376.45 242.35 399.08
  Q 242.73 399.87 243.31 400.08
  L 242.98 400.45
  Q 242.69 400.77 242.48 401.16
  Q 241.65 402.68 242.74 403.08
  A 0.41 0.41 0.0 0 1 242.77 403.84
  Q 242.40 404.02 242.14 404.36
  A 0.34 0.34 0.0 0 0 242.49 404.90
  Q 243.16 404.74 243.63 405.12
  Q 244.23 405.63 243.48 405.86
  Q 242.13 406.27 240.72 406.10
  A 0.31 0.31 0.0 0 0 240.37 406.41
  L 240.37 406.68
  Q 240.37 406.85 240.54 406.85
  L 243.38 406.90
  A 0.40 0.40 0.0 0 1 243.78 407.26
  L 243.81 407.51
  Q 243.83 407.72 243.63 407.78
  L 242.24 408.21
  Q 242.12 408.25 242.12 408.37
  L 242.12 408.69
  A 0.24 0.23 83.3 0 0 242.41 408.92
  Q 243.20 408.71 243.85 409.10
  Q 244.43 409.44 243.90 409.86
  Q 243.38 410.27 242.72 410.10
  A 0.34 0.33 73.8 0 0 242.41 410.67
  Q 242.82 411.06 243.42 411.15
  Q 243.93 411.23 243.61 411.62
  Q 243.48 411.78 243.32 411.90
  Q 242.98 412.16 242.90 412.57
  Q 242.66 413.79 243.67 413.88
  Q 244.13 413.92 244.00 414.37
  L 243.75 415.22
  C 223.14 399.89 203.04 383.60 184.67 365.62
  Q 185.42 363.69 183.76 362.50
  A 0.46 0.45 34.6 0 1 183.64 361.87
  L 183.86 361.52
  Q 184.07 361.20 183.69 361.19
  Q 182.79 361.15 182.88 360.37
  Q 182.91 360.07 183.19 359.85
  Q 183.53 359.59 183.22 359.29
  Q 182.51 358.62 181.54 358.63
  A 0.16 0.16 0.0 0 1 181.50 358.32
  Q 181.63 358.29 181.80 358.27
  Q 182.12 358.25 182.13 357.93
  Q 182.15 357.19 181.51 356.78
  Q 181.15 356.54 181.47 356.27
  Q 181.91 355.90 182.46 355.86
  A 0.35 0.35 0.0 0 0 182.50 355.17
  L 180.76 354.83
  Q 179.31 354.55 180.73 354.16
  Q 181.18 354.03 181.51 353.79
  Q 181.86 353.53 181.55 353.23
  L 181.22 352.89
  Q 180.81 352.48 181.21 352.07
  Q 181.81 351.45 181.07 351.17
  A 0.99 0.94 81.1 0 1 180.64 350.84
  Q 180.19 350.24 180.44 350.02
  Q 180.88 349.64 180.50 349.21
  Q 179.64 348.22 179.75 347.02
  A 1.33 1.32 34.5 0 0 179.61 346.28
  Q 178.55 344.26 177.12 342.51
  Q 176.74 342.03 176.91 340.88
  Q 176.99 340.32 176.49 340.06
  Q 175.07 339.35 175.07 339.14
  Q 192.55 322.49 215.25 304.51
  Q 216.26 303.71 216.89 303.40
  Q 217.30 303.20 217.59 302.85
  Q 219.10 300.98 221.15 300.57
  Z"
/>
<path fill="#225ba8" d="
  M 221.15 300.57
  Q 221.11 308.72 221.10 315.25
  C 221.10 318.39 219.43 319.64 216.29 321.41
  Q 217.53 319.51 219.43 318.21
  A 1.02 1.01 -15.3 0 0 219.88 317.43
  L 221.15 300.57
  Z"
/>
<path fill="#1589be" d="
  M 353.37 316.10
  Q 352.32 317.19 352.31 320.26
  Q 352.31 329.74 352.35 339.21
  Q 352.36 339.67 352.12 340.08
  Q 351.27 341.60 351.63 343.20
  Q 351.75 343.70 351.50 344.14
  Q 351.23 344.62 351.62 345.12
  Q 351.92 345.49 351.63 345.86
  Q 351.15 346.50 351.63 347.12
  Q 351.92 347.50 351.63 347.88
  Q 351.15 348.50 351.63 349.13
  Q 351.91 349.50 351.63 349.87
  Q 351.15 350.50 351.64 351.12
  Q 351.93 351.50 351.64 351.87
  Q 351.15 352.49 351.63 353.11
  Q 351.92 353.49 351.63 353.86
  Q 351.14 354.50 351.64 355.13
  Q 351.94 355.51 351.63 355.88
  Q 351.23 356.36 351.49 356.84
  Q 351.73 357.29 351.63 357.79
  Q 351.10 360.64 351.71 363.45
  Q 351.76 363.68 351.65 363.89
  Q 351.57 364.02 351.51 364.15
  Q 351.42 364.35 351.44 364.60
  Q 351.64 367.54 351.43 370.47
  Q 351.42 370.64 351.49 370.79
  Q 351.56 370.96 351.65 371.13
  Q 351.87 371.55 351.60 371.93
  Q 351.16 372.54 351.65 373.14
  Q 351.87 373.42 351.71 373.74
  L 351.56 374.04
  Q 351.36 374.44 351.52 374.87
  Q 351.76 375.50 351.52 376.19
  Q 351.35 376.69 351.65 377.13
  Q 351.97 377.58 351.59 378.00
  A 0.75 0.75 0.0 0 0 351.59 379.01
  Q 352.03 379.49 351.60 379.98
  A 0.79 0.79 0.0 0 0 351.59 381.01
  Q 352.02 381.53 351.54 382.05
  A 0.57 0.57 0.0 0 0 351.67 382.93
  Q 352.29 383.31 351.87 383.89
  A 0.62 0.62 0.0 0 0 352.05 384.78
  Q 353.11 385.43 352.19 386.15
  Q 351.76 386.49 352.15 386.88
  L 352.52 387.25
  Q 352.85 387.58 352.55 387.92
  Q 351.97 388.59 352.70 389.33
  Q 343.72 393.23 333.70 392.44
  L 333.43 388.13
  Q 333.42 387.99 333.33 387.92
  Q 333.28 387.89 333.23 387.88
  Q 333.02 387.81 333.02 387.66
  Q 332.77 379.83 332.91 372.00
  Q 332.91 371.81 333.03 371.65
  Q 333.18 371.44 333.16 371.18
  Q 332.65 366.50 333.15 361.83
  Q 333.18 361.58 333.04 361.37
  Q 332.94 361.22 332.95 361.00
  Q 333.13 353.09 332.94 340.25
  Q 332.93 339.87 333.08 339.51
  Q 333.29 339.01 333.16 338.47
  Q 332.68 336.48 333.18 334.48
  A 1.57 1.54 39.4 0 0 333.07 333.47
  C 332.61 332.50 333.08 331.50 333.05 330.73
  Q 332.64 321.84 333.02 312.69
  Q 344.21 311.81 353.37 316.10
  Z"
/>
<path fill="#1b75b5" d="
  M 333.02 312.69
  Q 332.64 321.84 333.05 330.73
  C 333.08 331.50 332.61 332.50 333.07 333.47
  A 1.57 1.54 39.4 0 1 333.18 334.48
  Q 332.68 336.48 333.16 338.47
  Q 333.29 339.01 333.08 339.51
  Q 332.93 339.87 332.94 340.25
  Q 333.13 353.09 332.95 361.00
  Q 332.94 361.22 333.04 361.37
  Q 333.18 361.58 333.15 361.83
  Q 332.65 366.50 333.16 371.18
  Q 333.18 371.44 333.03 371.65
  Q 332.91 371.81 332.91 372.00
  Q 332.77 379.83 333.02 387.66
  Q 333.02 387.81 333.23 387.88
  Q 333.28 387.89 333.33 387.92
  Q 333.42 387.99 333.43 388.13
  L 333.70 392.44
  Q 328.50 392.11 323.09 390.11
  Q 324.40 384.86 323.88 380.50
  Q 323.66 378.73 324.08 377.71
  Q 324.12 377.59 324.12 377.51
  Q 324.10 377.33 324.00 377.16
  Q 323.88 376.96 323.88 376.72
  L 323.88 324.74
  Q 323.88 324.37 324.14 324.12
  L 324.38 323.87
  A 0.95 0.91 68.8 0 0 324.66 323.20
  L 324.62 314.47
  L 333.02 312.69
  Z"
/>
<path fill="#1f66ad" d="
  M 324.62 314.47
  L 324.66 323.20
  A 0.95 0.91 68.8 0 1 324.38 323.87
  L 324.14 324.12
  Q 323.88 324.37 323.88 324.74
  L 323.88 376.72
  Q 323.88 376.96 324.00 377.16
  Q 324.10 377.33 324.12 377.51
  Q 324.12 377.59 324.08 377.71
  Q 323.66 378.73 323.88 380.50
  Q 324.40 384.86 323.09 390.11
  Q 317.38 388.06 312.20 384.04
  Q 312.91 383.83 312.90 383.40
  C 312.90 383.01 313.07 382.48 313.23 382.12
  Q 313.40 381.75 313.31 381.36
  L 312.59 378.33
  Q 312.48 377.88 312.94 377.88
  L 313.35 377.88
  A 0.24 0.24 0.0 0 0 313.58 377.57
  Q 313.04 375.76 313.27 373.87
  Q 313.33 373.37 313.20 372.89
  Q 312.79 371.39 313.34 369.83
  Q 313.54 369.26 313.09 368.85
  Q 312.71 368.52 313.06 368.16
  Q 313.43 367.78 313.38 367.26
  L 313.04 363.03
  Q 312.99 362.41 313.50 362.06
  Q 314.17 361.61 313.58 361.05
  Q 313.19 360.69 313.40 360.21
  Q 313.81 359.26 313.82 358.31
  Q 313.82 357.78 313.22 356.63
  Q 312.53 355.32 312.81 353.74
  Q 312.89 353.28 312.46 353.10
  Q 312.22 353.00 312.03 352.79
  A 0.48 0.47 59.1 0 1 312.22 352.03
  Q 313.09 351.70 312.68 351.05
  A 0.87 0.84 -45.2 0 1 312.69 350.14
  Q 313.26 349.24 312.29 349.01
  A 0.45 0.45 0.0 0 1 312.04 348.30
  Q 312.87 347.21 312.80 345.73
  Q 312.78 345.27 312.37 345.07
  Q 312.23 345.00 312.13 344.87
  Q 311.85 344.51 312.13 344.14
  Q 312.26 343.96 312.47 343.90
  Q 313.00 343.74 312.76 343.25
  Q 312.35 342.41 313.02 341.62
  A 0.32 0.32 0.0 0 0 312.69 341.11
  Q 312.41 341.18 312.23 340.95
  Q 311.97 340.62 312.16 340.25
  Q 312.82 339.00 312.84 337.51
  Q 312.85 337.20 312.54 337.13
  Q 312.29 337.07 312.13 336.87
  Q 311.85 336.51 312.13 336.13
  Q 312.26 335.95 312.47 335.89
  Q 313.00 335.75 312.76 335.25
  Q 312.47 334.65 312.73 334.07
  Q 313.04 333.38 312.36 333.06
  Q 312.07 332.93 311.98 332.52
  Q 311.94 332.32 312.08 332.18
  Q 312.21 332.04 312.36 331.91
  Q 312.69 331.59 312.70 331.14
  L 312.75 326.75
  A 5.15 1.22 80.7 0 1 312.82 325.77
  Q 312.91 325.08 311.96 324.68
  Q 311.45 324.46 311.95 324.21
  Q 312.71 323.83 311.99 323.59
  A 0.17 0.17 0.0 0 1 311.97 323.27
  Q 312.11 323.20 312.26 323.12
  Q 312.56 322.96 312.57 322.63
  Q 312.57 322.19 312.93 321.94
  Q 313.32 321.66 313.41 321.19
  L 313.66 319.92
  Q 318.83 316.27 324.62 314.47
  Z"
/>
<path fill="#225ba8" d="
  M 538.95 317.74
  L 537.06 316.58
  Q 536.60 316.29 536.18 316.64
  L 534.79 317.77
  L 536.31 316.03
  Q 536.68 315.61 537.18 315.85
  Q 538.39 316.41 538.95 317.74
  Z"
/>
<path fill="#109dc8" d="
  M 353.37 316.10
  Q 359.54 318.85 364.15 323.21
  L 361.62 323.38
  Q 361.26 323.40 361.25 323.76
  L 361.07 355.87
  Q 361.07 356.17 361.17 356.45
  Q 361.25 356.70 361.24 357.00
  Q 361.02 370.17 361.49 384.05
  Q 358.25 386.97 352.70 389.33
  Q 351.97 388.59 352.55 387.92
  Q 352.85 387.58 352.52 387.25
  L 352.15 386.88
  Q 351.76 386.49 352.19 386.15
  Q 353.11 385.43 352.05 384.78
  A 0.62 0.62 0.0 0 1 351.87 383.89
  Q 352.29 383.31 351.67 382.93
  A 0.57 0.57 0.0 0 1 351.54 382.05
  Q 352.02 381.53 351.59 381.01
  A 0.79 0.79 0.0 0 1 351.60 379.98
  Q 352.03 379.49 351.59 379.01
  A 0.75 0.75 0.0 0 1 351.59 378.00
  Q 351.97 377.58 351.65 377.13
  Q 351.35 376.69 351.52 376.19
  Q 351.76 375.50 351.52 374.87
  Q 351.36 374.44 351.56 374.04
  L 351.71 373.74
  Q 351.87 373.42 351.65 373.14
  Q 351.16 372.54 351.60 371.93
  Q 351.87 371.55 351.65 371.13
  Q 351.56 370.96 351.49 370.79
  Q 351.42 370.64 351.43 370.47
  Q 351.64 367.54 351.44 364.60
  Q 351.42 364.35 351.51 364.15
  Q 351.57 364.02 351.65 363.89
  Q 351.76 363.68 351.71 363.45
  Q 351.10 360.64 351.63 357.79
  Q 351.73 357.29 351.49 356.84
  Q 351.23 356.36 351.63 355.88
  Q 351.94 355.51 351.64 355.13
  Q 351.14 354.50 351.63 353.86
  Q 351.92 353.49 351.63 353.11
  Q 351.15 352.49 351.64 351.87
  Q 351.93 351.50 351.64 351.12
  Q 351.15 350.50 351.63 349.87
  Q 351.91 349.50 351.63 349.13
  Q 351.15 348.50 351.63 347.88
  Q 351.92 347.50 351.63 347.12
  Q 351.15 346.50 351.63 345.86
  Q 351.92 345.49 351.62 345.12
  Q 351.23 344.62 351.50 344.14
  Q 351.75 343.70 351.63 343.20
  Q 351.27 341.60 352.12 340.08
  Q 352.36 339.67 352.35 339.21
  Q 352.31 329.74 352.31 320.26
  Q 352.32 317.19 353.37 316.10
  Z"
/>
<path fill="#0badd0" d="
  M 451.67 396.91
  Q 450.47 404.02 450.93 412.21
  Q 450.13 412.76 450.01 414.06
  Q 446.29 455.07 436.26 495.00
  Q 435.93 496.32 435.08 498.78
  Q 428.40 497.74 424.78 494.52
  Q 428.75 478.93 431.43 463.75
  Q 436.11 437.28 437.43 423.74
  C 438.26 415.17 439.43 406.04 440.03 398.06
  Q 443.06 357.57 441.60 316.96
  Q 441.58 316.47 441.98 316.76
  L 453.32 324.93
  A 0.74 0.73 -73.5 0 1 453.63 325.51
  Q 454.49 360.66 451.67 396.91
  Z"
/>
<path fill="#0badd0" d="
  M 538.95 317.74
  Q 542.82 321.26 547.66 323.52
  Q 548.02 323.69 547.74 323.98
  L 545.10 326.79
  Q 542.00 329.11 540.19 332.36
  L 521.83 352.12
  Q 521.49 352.49 521.86 352.84
  C 554.20 383.25 619.89 457.18 591.99 505.62
  Q 591.74 506.05 591.87 505.57
  C 596.08 489.78 592.50 472.04 586.23 457.30
  C 572.78 425.73 551.75 399.49 526.92 373.74
  Q 525.40 370.68 522.33 368.11
  Q 521.93 367.77 521.83 367.26
  Q 521.54 365.78 520.41 364.77
  Q 520.10 364.49 520.21 364.10
  Q 520.28 363.82 520.50 363.87
  A 0.42 0.30 -18.4 0 0 520.93 363.28
  L 519.71 362.76
  Q 518.80 362.37 519.78 362.37
  L 520.24 362.37
  Q 520.83 362.36 520.52 361.86
  Q 520.40 361.67 520.27 361.50
  Q 519.98 361.11 519.91 360.63
  Q 519.78 359.70 519.05 359.06
  Q 518.72 358.77 518.94 358.38
  Q 519.49 357.39 518.43 356.73
  A 0.47 0.46 61.3 0 1 518.68 355.87
  Q 519.39 355.89 518.96 354.19
  Q 518.82 353.62 518.56 353.09
  Q 518.06 352.09 517.77 351.06
  Q 517.60 350.49 517.08 350.22
  Q 516.33 349.83 516.36 349.08
  A 0.87 0.85 14.5 0 0 515.88 348.28
  Q 514.95 347.82 514.55 347.02
  Q 513.79 345.49 513.72 345.39
  Q 513.35 344.83 512.95 344.28
  Q 512.57 343.77 513.12 343.45
  Q 515.19 342.27 515.36 340.64
  Q 525.59 329.76 534.79 317.77
  L 536.18 316.64
  Q 536.60 316.29 537.06 316.58
  L 538.95 317.74
  Z"
/>
<path fill="#225ba8" d="
  M 313.66 319.92
  L 313.41 321.19
  Q 313.32 321.66 312.93 321.94
  Q 312.57 322.19 312.57 322.63
  Q 312.56 322.96 312.26 323.12
  Q 312.11 323.20 311.97 323.27
  A 0.17 0.17 0.0 0 0 311.99 323.59
  Q 312.71 323.83 311.95 324.21
  Q 311.45 324.46 311.96 324.68
  Q 312.91 325.08 312.82 325.77
  A 5.15 1.22 80.7 0 0 312.75 326.75
  L 312.70 331.14
  Q 312.69 331.59 312.36 331.91
  Q 312.21 332.04 312.08 332.18
  Q 311.94 332.32 311.98 332.52
  Q 312.07 332.93 312.36 333.06
  Q 313.04 333.38 312.73 334.07
  Q 312.47 334.65 312.76 335.25
  Q 313.00 335.75 312.47 335.89
  Q 312.26 335.95 312.13 336.13
  Q 311.85 336.51 312.13 336.87
  Q 312.29 337.07 312.54 337.13
  Q 312.85 337.20 312.84 337.51
  Q 312.82 339.00 312.16 340.25
  Q 311.97 340.62 312.23 340.95
  Q 312.41 341.18 312.69 341.11
  A 0.32 0.32 0.0 0 1 313.02 341.62
  Q 312.35 342.41 312.76 343.25
  Q 313.00 343.74 312.47 343.90
  Q 312.26 343.96 312.13 344.14
  Q 311.85 344.51 312.13 344.87
  Q 312.23 345.00 312.37 345.07
  Q 312.78 345.27 312.80 345.73
  Q 312.87 347.21 312.04 348.30
  A 0.45 0.45 0.0 0 0 312.29 349.01
  Q 313.26 349.24 312.69 350.14
  A 0.87 0.84 -45.2 0 0 312.68 351.05
  Q 313.09 351.70 312.22 352.03
  A 0.48 0.47 59.1 0 0 312.03 352.79
  Q 312.22 353.00 312.46 353.10
  Q 312.89 353.28 312.81 353.74
  Q 312.53 355.32 313.22 356.63
  Q 313.82 357.78 313.82 358.31
  Q 313.81 359.26 313.40 360.21
  Q 313.19 360.69 313.58 361.05
  Q 314.17 361.61 313.50 362.06
  Q 312.99 362.41 313.04 363.03
  L 313.38 367.26
  Q 313.43 367.78 313.06 368.16
  Q 312.71 368.52 313.09 368.85
  Q 313.54 369.26 313.34 369.83
  Q 312.79 371.39 313.20 372.89
  Q 313.33 373.37 313.27 373.87
  Q 313.04 375.76 313.58 377.57
  A 0.24 0.24 0.0 0 1 313.35 377.88
  L 312.94 377.88
  Q 312.48 377.88 312.59 378.33
  L 313.31 381.36
  Q 313.40 381.75 313.23 382.12
  C 313.07 382.48 312.90 383.01 312.90 383.40
  Q 312.91 383.83 312.20 384.04
  C 290.97 367.51 292.31 335.45 313.66 319.92
  Z"
/>
<path fill="#0badd0" d="
  M 364.15 323.21
  C 381.06 339.03 380.91 364.24 365.50 380.76
  Q 364.19 382.15 361.49 384.05
  Q 361.02 370.17 361.24 357.00
  Q 361.25 356.70 361.17 356.45
  Q 361.07 356.17 361.07 355.87
  L 361.25 323.76
  Q 361.26 323.40 361.62 323.38
  L 364.15 323.21
  Z"
/>
<path fill="#225ba8" d="
  M 545.10 326.79
  Q 543.38 330.01 540.19 332.36
  Q 542.00 329.11 545.10 326.79
  Z"
/>
<path fill="#109dc8" d="
  M 450.93 412.21
  Q 450.47 404.02 451.67 396.91
  Q 474.04 379.92 494.39 361.25
  Q 494.79 360.88 495.19 361.25
  L 503.80 369.26
  Q 504.13 369.57 503.74 369.81
  Q 502.72 370.44 502.31 370.82
  Q 478.25 392.58 450.93 412.21
  Z"
/>
<path fill="#225ba8" d="
  M 103.11 431.66
  C 113.26 409.80 127.78 389.70 143.74 371.73
  Q 148.13 366.79 152.44 361.78
  Q 152.78 361.38 153.15 361.75
  L 162.58 371.25
  Q 162.91 371.59 162.53 371.87
  Q 161.60 372.55 160.87 373.37
  C 133.19 404.44 79.30 472.44 116.61 514.75
  Q 116.78 514.95 116.56 514.81
  C 85.18 495.63 89.65 460.64 103.11 431.66
  Z"
/>
<path fill="#1b75b5" d="
  M 243.31 400.08
  L 255.53 408.77
  Q 293.14 435.20 326.02 452.99
  Q 330.19 455.25 343.69 462.18
  C 345.52 463.11 346.60 462.68 348.20 461.71
  Q 346.52 465.09 350.04 466.58
  Q 350.13 466.62 350.05 466.68
  Q 349.94 466.78 350.00 466.97
  Q 350.05 467.10 350.18 467.15
  Q 351.61 467.63 352.05 469.13
  Q 352.17 469.54 352.12 469.97
  Q 352.08 470.35 352.16 470.71
  Q 352.22 470.95 352.45 471.04
  L 353.23 471.32
  Q 353.50 471.42 353.27 471.60
  L 352.44 472.22
  Q 351.88 472.64 352.50 472.95
  Q 352.87 473.14 353.28 473.21
  A 0.23 0.23 0.0 0 1 353.24 473.66
  Q 352.94 473.66 352.55 473.96
  Q 351.80 474.53 352.69 474.84
  Q 353.20 475.02 353.49 475.62
  Q 353.62 475.91 353.38 476.13
  Q 353.27 476.22 353.15 476.29
  Q 352.29 476.84 353.02 477.00
  Q 353.16 477.04 353.30 477.11
  Q 353.53 477.23 353.52 477.49
  Q 353.50 478.01 353.21 478.31
  Q 352.85 478.67 353.19 479.06
  C 354.46 480.55 356.17 480.94 357.49 481.65
  Q 362.62 484.39 368.00 486.64
  Q 368.40 486.81 369.21 487.60
  Q 369.55 487.93 370.03 487.89
  Q 371.54 487.76 372.74 488.33
  Q 377.60 490.61 387.56 495.60
  Q 374.04 490.51 364.01 485.90
  Q 323.90 467.46 293.31 448.41
  C 276.45 437.92 259.64 427.17 243.75 415.22
  L 244.00 414.37
  Q 244.13 413.92 243.67 413.88
  Q 242.66 413.79 242.90 412.57
  Q 242.98 412.16 243.32 411.90
  Q 243.48 411.78 243.61 411.62
  Q 243.93 411.23 243.42 411.15
  Q 242.82 411.06 242.41 410.67
  A 0.34 0.33 73.8 0 1 242.72 410.10
  Q 243.38 410.27 243.90 409.86
  Q 244.43 409.44 243.85 409.10
  Q 243.20 408.71 242.41 408.92
  A 0.24 0.23 83.3 0 1 242.12 408.69
  L 242.12 408.37
  Q 242.12 408.25 242.24 408.21
  L 243.63 407.78
  Q 243.83 407.72 243.81 407.51
  L 243.78 407.26
  A 0.40 0.40 0.0 0 0 243.38 406.90
  L 240.54 406.85
  Q 240.37 406.85 240.37 406.68
  L 240.37 406.41
  A 0.31 0.31 0.0 0 1 240.72 406.10
  Q 242.13 406.27 243.48 405.86
  Q 244.23 405.63 243.63 405.12
  Q 243.16 404.74 242.49 404.90
  A 0.34 0.34 0.0 0 1 242.14 404.36
  Q 242.40 404.02 242.77 403.84
  A 0.41 0.41 0.0 0 0 242.74 403.08
  Q 241.65 402.68 242.48 401.16
  Q 242.69 400.77 242.98 400.45
  L 243.31 400.08
  Z"
/>
<path fill="#1589be" d="
  M 412.58 491.82
  Q 411.97 493.10 412.00 494.50
  Q 412.01 495.08 412.47 495.42
  Q 413.21 495.96 413.53 496.85
  Q 413.70 497.32 413.42 497.75
  Q 413.08 498.26 412.45 498.10
  A 0.28 0.28 0.0 0 0 412.12 498.46
  L 412.22 498.78
  Q 412.26 498.90 412.39 498.89
  Q 413.76 498.74 415.01 499.27
  A 0.30 0.30 0.0 0 1 414.87 499.85
  Q 414.51 499.83 414.50 500.29
  Q 414.49 500.64 414.82 500.77
  Q 417.01 501.65 417.16 504.09
  Q 417.20 504.61 417.72 504.61
  Q 418.75 504.59 419.04 505.59
  Q 419.19 506.08 419.69 506.13
  Q 420.91 506.26 421.62 507.13
  A 1.13 1.11 70.9 0 0 422.47 507.55
  Q 424.46 507.60 425.32 508.95
  Q 405.98 503.18 387.56 495.60
  Q 377.60 490.61 372.74 488.33
  Q 371.54 487.76 370.03 487.89
  Q 369.55 487.93 369.21 487.60
  Q 368.40 486.81 368.00 486.64
  Q 362.62 484.39 357.49 481.65
  C 356.17 480.94 354.46 480.55 353.19 479.06
  Q 352.85 478.67 353.21 478.31
  Q 353.50 478.01 353.52 477.49
  Q 353.53 477.23 353.30 477.11
  Q 353.16 477.04 353.02 477.00
  Q 352.29 476.84 353.15 476.29
  Q 353.27 476.22 353.38 476.13
  Q 353.62 475.91 353.49 475.62
  Q 353.20 475.02 352.69 474.84
  Q 351.80 474.53 352.55 473.96
  Q 352.94 473.66 353.24 473.66
  A 0.23 0.23 0.0 0 0 353.28 473.21
  Q 352.87 473.14 352.50 472.95
  Q 351.88 472.64 352.44 472.22
  L 353.27 471.60
  Q 353.50 471.42 353.23 471.32
  L 352.45 471.04
  Q 352.22 470.95 352.16 470.71
  Q 352.08 470.35 352.12 469.97
  Q 352.17 469.54 352.05 469.13
  Q 351.61 467.63 350.18 467.15
  Q 350.05 467.10 350.00 466.97
  Q 349.94 466.78 350.05 466.68
  Q 350.13 466.62 350.04 466.58
  Q 346.52 465.09 348.20 461.71
  L 362.01 454.35
  Q 362.15 454.28 362.19 454.13
  Q 362.20 454.09 362.21 454.05
  Q 362.23 453.97 362.30 453.94
  Q 373.02 448.19 383.53 442.06
  Q 383.89 441.85 384.31 441.87
  Q 384.73 441.89 384.90 441.57
  Q 385.03 441.34 385.26 441.19
  L 426.39 415.57
  A 0.10 0.10 0.0 0 1 426.54 415.67
  L 425.02 429.97
  Q 424.98 430.42 424.60 430.67
  Q 412.83 438.28 400.89 445.58
  Q 390.98 451.64 380.99 457.57
  Q 372.68 462.51 365.79 465.54
  Q 361.68 467.35 358.98 469.05
  Q 358.46 469.37 359.02 469.63
  Q 385.34 481.78 412.58 491.82
  Z"
/>
<path fill="#225ba8" d="
  M 271.61 493.61
  L 275.47 504.63
  Q 275.26 504.54 275.30 505.35
  Q 275.32 505.69 275.45 506.08
  Q 278.99 515.99 282.85 525.84
  Q 283.06 526.39 282.47 526.38
  Q 277.26 526.33 272.37 528.11
  Q 271.88 528.29 271.69 527.80
  C 267.95 518.13 264.23 508.59 261.36 498.59
  C 255.21 477.13 251.92 462.14 248.20 443.61
  Q 247.98 442.54 247.94 442.12
  Q 247.81 440.99 248.76 441.62
  L 260.89 449.64
  A 1.64 1.63 11.5 0 1 261.59 450.69
  Q 265.74 472.17 271.61 493.61
  Z"
/>
<path fill="#1b75b5" d="
  M 275.47 504.63
  L 271.61 493.61
  C 284.52 489.80 296.75 484.49 309.19 479.67
  A 1.34 1.32 47.8 0 1 310.27 479.73
  L 323.17 486.40
  Q 323.34 486.49 323.16 486.56
  C 313.30 490.51 303.23 495.20 293.76 498.49
  Q 284.98 501.53 275.47 504.63
  Z"
/>
<path fill="#109dc8" d="
  M 425.32 508.95
  Q 424.46 507.60 422.47 507.55
  A 1.13 1.11 70.9 0 1 421.62 507.13
  Q 420.91 506.26 419.69 506.13
  Q 419.19 506.08 419.04 505.59
  Q 418.75 504.59 417.72 504.61
  Q 417.20 504.61 417.16 504.09
  Q 417.01 501.65 414.82 500.77
  Q 414.49 500.64 414.50 500.29
  Q 414.51 499.83 414.87 499.85
  A 0.30 0.30 0.0 0 0 415.01 499.27
  Q 413.76 498.74 412.39 498.89
  Q 412.26 498.90 412.22 498.78
  L 412.12 498.46
  A 0.28 0.28 0.0 0 1 412.45 498.10
  Q 413.08 498.26 413.42 497.75
  Q 413.70 497.32 413.53 496.85
  Q 413.21 495.96 412.47 495.42
  Q 412.01 495.08 412.00 494.50
  Q 411.97 493.10 412.58 491.82
  Q 417.92 493.51 423.31 495.31
  Q 423.85 495.49 424.19 495.31
  Q 424.64 495.06 424.78 494.52
  Q 428.40 497.74 435.08 498.78
  Q 453.01 504.55 471.50 508.07
  C 499.50 513.41 550.33 518.24 569.57 490.88
  Q 570.23 489.95 569.98 491.06
  Q 569.50 493.22 568.32 495.61
  C 567.52 497.21 566.92 499.31 565.76 501.03
  C 549.12 525.73 511.99 524.98 486.00 522.29
  Q 458.14 519.41 425.32 508.95
  Z"
/>
<path fill="#1f66ad" d="
  M 150.30 510.26
  Q 144.47 506.70 139.43 502.11
  A 0.04 0.04 0.0 0 1 139.47 502.05
  C 152.42 508.35 165.56 510.50 180.75 510.56
  Q 204.01 510.64 226.75 505.75
  Q 234.14 504.16 241.54 502.55
  Q 242.06 502.43 242.22 502.94
  L 245.22 512.37
  A 0.38 0.37 -14.7 0 1 244.93 512.86
  Q 236.43 514.38 227.98 515.91
  C 204.63 520.14 179.00 521.21 156.77 513.37
  C 155.11 512.79 153.71 512.02 152.01 511.51
  C 151.31 511.30 150.81 510.57 150.30 510.26
  Z"
/>
<path fill="#109dc8" d="
  M 343.35 621.42
  Q 342.33 621.15 342.18 620.82
  C 353.87 618.66 364.61 611.17 372.94 602.70
  C 382.88 592.59 390.37 581.96 397.20 568.91
  Q 407.94 548.43 415.24 526.38
  A 0.79 0.78 -72.4 0 1 416.22 525.87
  L 425.70 528.83
  Q 426.18 528.98 426.00 529.44
  Q 422.36 538.76 418.66 547.94
  Q 409.35 571.04 394.50 591.03
  C 389.53 597.72 385.78 601.11 381.79 605.23
  C 379.11 607.99 376.27 609.85 373.28 612.03
  C 364.64 618.36 354.00 621.38 343.35 621.42
  Z"
/>
<path fill="#1b75b5" d="
  M 291.02 537.57
  L 290.88 539.77
  Q 290.85 540.23 290.60 540.62
  Q 290.25 541.17 290.41 541.76
  C 290.68 542.72 290.77 543.19 290.46 543.98
  Q 290.29 544.42 290.37 544.90
  Q 290.64 546.47 290.44 548.05
  Q 290.38 548.55 290.54 549.03
  Q 291.16 550.81 290.22 552.41
  Q 290.06 552.67 290.27 552.89
  Q 290.97 553.60 290.39 554.12
  Q 290.00 554.47 290.34 554.87
  Q 290.86 555.48 290.46 556.06
  Q 290.22 556.40 290.36 556.79
  Q 290.99 558.52 290.39 560.28
  Q 290.23 560.72 290.49 561.12
  Q 290.85 561.69 290.39 562.13
  Q 290.01 562.48 290.35 562.88
  Q 290.86 563.48 290.46 564.06
  Q 290.22 564.40 290.36 564.78
  Q 291.00 566.54 290.40 568.34
  Q 290.25 568.78 290.50 569.17
  Q 290.84 569.71 290.39 570.13
  Q 290.01 570.48 290.35 570.88
  Q 290.91 571.53 290.38 572.16
  Q 290.06 572.53 290.37 572.91
  Q 290.89 573.54 290.39 574.15
  Q 290.08 574.52 290.40 574.88
  Q 290.91 575.44 290.49 576.01
  Q 290.24 576.35 290.39 576.75
  L 291.44 579.50
  Q 291.64 579.55 291.84 579.61
  Q 283.07 583.24 273.61 579.65
  Q 273.40 578.63 272.33 578.49
  A 1.05 1.05 0.0 0 1 271.43 577.33
  C 271.67 575.16 272.23 573.11 272.04 570.91
  C 271.53 564.98 272.01 559.29 271.81 553.40
  C 271.70 550.19 271.95 547.01 271.69 543.84
  Q 271.50 541.50 271.41 539.01
  Q 280.79 533.99 291.02 537.57
  Z"
/>
<path fill="#109dc8" d="
  M 291.02 537.57
  C 304.04 543.26 309.81 558.24 302.06 570.60
  Q 297.93 576.02 291.44 579.50
  L 290.39 576.75
  Q 290.24 576.35 290.49 576.01
  Q 290.91 575.44 290.40 574.88
  Q 290.08 574.52 290.39 574.15
  Q 290.89 573.54 290.37 572.91
  Q 290.06 572.53 290.38 572.16
  Q 290.91 571.53 290.35 570.88
  Q 290.01 570.48 290.39 570.13
  Q 290.84 569.71 290.50 569.17
  Q 290.25 568.78 290.40 568.34
  Q 291.00 566.54 290.36 564.78
  Q 290.22 564.40 290.46 564.06
  Q 290.86 563.48 290.35 562.88
  Q 290.01 562.48 290.39 562.13
  Q 290.85 561.69 290.49 561.12
  Q 290.23 560.72 290.39 560.28
  Q 290.99 558.52 290.36 556.79
  Q 290.22 556.40 290.46 556.06
  Q 290.86 555.48 290.34 554.87
  Q 290.00 554.47 290.39 554.12
  Q 290.97 553.60 290.27 552.89
  Q 290.06 552.67 290.22 552.41
  Q 291.16 550.81 290.54 549.03
  Q 290.38 548.55 290.44 548.05
  Q 290.64 546.47 290.37 544.90
  Q 290.29 544.42 290.46 543.98
  C 290.77 543.19 290.68 542.72 290.41 541.76
  Q 290.25 541.17 290.60 540.62
  Q 290.85 540.23 290.88 539.77
  L 291.02 537.57
  Z"
/>
<path fill="#225ba8" d="
  M 271.41 539.01
  Q 271.50 541.50 271.69 543.84
  C 271.95 547.01 271.70 550.19 271.81 553.40
  C 272.01 559.29 271.53 564.98 272.04 570.91
  C 272.23 573.11 271.67 575.16 271.43 577.33
  A 1.05 1.05 0.0 0 0 272.33 578.49
  Q 273.40 578.63 273.61 579.65
  Q 259.81 573.10 260.11 557.75
  Q 260.34 545.55 271.41 539.01
  Z"
/>
<path fill="#225ba8" d="
  M 302.06 570.60
  Q 298.97 577.09 291.84 579.61
  Q 291.64 579.55 291.44 579.50
  Q 297.93 576.02 302.06 570.60
  Z"
/>
<path fill="#1b75b5" d="
  M 323.75 586.36
  Q 323.95 586.38 324.04 586.44
  Q 330.97 591.35 339.13 593.57
  C 340.98 594.08 343.03 593.99 344.94 594.28
  Q 345.90 594.43 344.94 594.56
  C 337.97 595.49 330.91 595.42 324.26 593.01
  Q 314.01 589.29 306.07 581.72
  Q 305.87 581.53 306.03 581.31
  L 310.92 574.74
  Q 311.07 574.53 311.25 574.71
  L 323.15 586.09
  Q 323.40 586.34 323.75 586.36
  Z"
/>
<path fill="#225ba8" d="
  M 342.18 620.82
  Q 342.33 621.15 343.35 621.42
  L 340.84 621.42
  Q 339.70 621.42 340.80 621.15
  L 342.18 620.82
  Z"
/>
</svg>
